  0
SECTION
  2
HEADER
  9
$ACADVER
  1
AC1015
  9
$ACADMAINTVER
 70
     6
  9
$DWGCODEPAGE
  3
ANSI_1252
  9
$INSBASE
 10
0.0
 20
0.0
 30
0.0
  9
$EXTMIN
 10
-157.5
 20
0.0
 30
0.0
  9
$EXTMAX
 10
0.0
 20
240.0
 30
0.0
  9
$LIMMIN
 10
0.0
 20
0.0
  9
$LIMMAX
 10
420.0
 20
297.0
  9
$ORTHOMODE
 70
     0
  9
$REGENMODE
 70
     1
  9
$FILLMODE
 70
     1
  9
$QTEXTMODE
 70
     0
  9
$MIRRTEXT
 70
     1
  9
$LTSCALE
 40
1.0
  9
$ATTMODE
 70
     1
  9
$TEXTSIZE
 40
3.5
  9
$TRACEWID
 40
1.0
  9
$TEXTSTYLE
  7
Standard
  9
$CLAYER
  8
0
  9
$CELTYPE
  6
ByLayer
  9
$CECOLOR
 62
   256
  9
$CELTSCALE
 40
1.0
  9
$DISPSILH
 70
     0
  9
$DIMSCALE
 40
1.0
  9
$DIMASZ
 40
3.302
  9
$DIMEXO
 40
0.0
  9
$DIMDLI
 40
3.75
  9
$DIMRND
 40
0.0
  9
$DIMDLE
 40
0.0
  9
$DIMEXE
 40
1.0
  9
$DIMTP
 40
0.0
  9
$DIMTM
 40
0.0
  9
$DIMTXT
 40
3.5
  9
$DIMCEN
 40
2.5
  9
$DIMTSZ
 40
0.0
  9
$DIMTOL
 70
     0
  9
$DIMLIM
 70
     0
  9
$DIMTIH
 70
     1
  9
$DIMTOH
 70
     1
  9
$DIMSE1
 70
     0
  9
$DIMSE2
 70
     0
  9
$DIMTAD
 70
     1
  9
$DIMZIN
 70
     0
  9
$DIMBLK
  1

  9
$DIMASO
 70
     1
  9
$DIMSHO
 70
     1
  9
$DIMPOST
  1

  9
$DIMAPOST
  1

  9
$DIMALT
 70
     0
  9
$DIMALTD
 70
     3
  9
$DIMALTF
 40
0.0393700787
  9
$DIMLFAC
 40
1.0
  9
$DIMTOFL
 70
     1
  9
$DIMTVP
 40
0.0
  9
$DIMTIX
 70
     0
  9
$DIMSOXD
 70
     0
  9
$DIMSAH
 70
     0
  9
$DIMBLK1
  1

  9
$DIMBLK2
  1

  9
$DIMSTYLE
  2
ISO-25
  9
$DIMCLRD
 70
     0
  9
$DIMCLRE
 70
     0
  9
$DIMCLRT
 70
     0
  9
$DIMTFAC
 40
1.0
  9
$DIMGAP
 40
1.524
  9
$DIMJUST
 70
     0
  9
$DIMSD1
 70
     0
  9
$DIMSD2
 70
     0
  9
$DIMTOLJ
 70
     0
  9
$DIMTZIN
 70
     0
  9
$DIMALTZ
 70
     0
  9
$DIMALTTZ
 70
     0
  9
$DIMUPT
 70
     0
  9
$DIMDEC
 70
     2
  9
$DIMTDEC
 70
     2
  9
$DIMALTU
 70
     2
  9
$DIMALTTD
 70
     3
  9
$DIMTXSTY
  7
Standard
  9
$DIMAUNIT
 70
     0
  9
$DIMADEC
 70
     2
  9
$DIMALTRND
 40
0.0
  9
$DIMAZIN
 70
     0
  9
$DIMDSEP
 70
    44
  9
$DIMATFIT
 70
     3
  9
$DIMFRAC
 70
     0
  9
$DIMLDRBLK
  1

  9
$DIMLUNIT
 70
     2
  9
$DIMLWD
 70
    -2
  9
$DIMLWE
 70
    -2
  9
$DIMTMOVE
 70
     0
  9
$LUNITS
 70
     2
  9
$LUPREC
 70
     2
  9
$SKETCHINC
 40
1.0
  9
$FILLETRAD
 40
10.0
  9
$AUNITS
 70
     0
  9
$AUPREC
 70
     2
  9
$MENU
  1
.
  9
$ELEVATION
 40
0.0
  9
$PELEVATION
 40
0.0
  9
$THICKNESS
 40
0.0
  9
$LIMCHECK
 70
     0
  9
$CHAMFERA
 40
0.0
  9
$CHAMFERB
 40
0.0
  9
$CHAMFERC
 40
0.0
  9
$CHAMFERD
 40
0.0
  9
$SKPOLY
 70
     0
  9
$TDCREATE
 40
2459341.514250336
  9
$TDUCREATE
 40
2459341.472583669
  9
$TDUPDATE
 40
2459341.514502315
  9
$TDUUPDATE
 40
2459341.472835648
  9
$TDINDWG
 40
0.0000000116
  9
$TDUSRTIMER
 40
0.0000000116
  9
$USRTIMER
 70
     1
  9
$ANGBASE
 50
0.0
  9
$ANGDIR
 70
     0
  9
$PDMODE
 70
     0
  9
$PDSIZE
 40
-1.0
  9
$PLINEWID
 40
0.0
  9
$SPLFRAME
 70
     0
  9
$SPLINETYPE
 70
     6
  9
$SPLINESEGS
 70
     8
  9
$HANDSEED
  5
D9
  9
$SURFTAB1
 70
     6
  9
$SURFTAB2
 70
     6
  9
$SURFTYPE
 70
     6
  9
$SURFU
 70
     6
  9
$SURFV
 70
     6
  9
$UCSBASE
  2

  9
$UCSNAME
  2

  9
$UCSORG
 10
0.0
 20
0.0
 30
0.0
  9
$UCSXDIR
 10
1.0
 20
0.0
 30
0.0
  9
$UCSYDIR
 10
0.0
 20
1.0
 30
0.0
  9
$UCSORTHOREF
  2

  9
$UCSORTHOVIEW
 70
     0
  9
$UCSORGTOP
 10
0.0
 20
0.0
 30
0.0
  9
$UCSORGBOTTOM
 10
0.0
 20
0.0
 30
0.0
  9
$UCSORGLEFT
 10
0.0
 20
0.0
 30
0.0
  9
$UCSORGRIGHT
 10
0.0
 20
0.0
 30
0.0
  9
$UCSORGFRONT
 10
0.0
 20
0.0
 30
0.0
  9
$UCSORGBACK
 10
0.0
 20
0.0
 30
0.0
  9
$PUCSBASE
  2

  9
$PUCSNAME
  2

  9
$PUCSORG
 10
0.0
 20
0.0
 30
0.0
  9
$PUCSXDIR
 10
1.0
 20
0.0
 30
0.0
  9
$PUCSYDIR
 10
0.0
 20
1.0
 30
0.0
  9
$PUCSORTHOREF
  2

  9
$PUCSORTHOVIEW
 70
     0
  9
$PUCSORGTOP
 10
0.0
 20
0.0
 30
0.0
  9
$PUCSORGBOTTOM
 10
0.0
 20
0.0
 30
0.0
  9
$PUCSORGLEFT
 10
0.0
 20
0.0
 30
0.0
  9
$PUCSORGRIGHT
 10
0.0
 20
0.0
 30
0.0
  9
$PUCSORGFRONT
 10
0.0
 20
0.0
 30
0.0
  9
$PUCSORGBACK
 10
0.0
 20
0.0
 30
0.0
  9
$USERI1
 70
     0
  9
$USERI2
 70
     0
  9
$USERI3
 70
     0
  9
$USERI4
 70
     0
  9
$USERI5
 70
     0
  9
$USERR1
 40
0.0
  9
$USERR2
 40
0.0
  9
$USERR3
 40
0.0
  9
$USERR4
 40
0.0
  9
$USERR5
 40
0.0
  9
$WORLDVIEW
 70
     1
  9
$SHADEDGE
 70
     3
  9
$SHADEDIF
 70
    70
  9
$TILEMODE
 70
     1
  9
$MAXACTVP
 70
    64
  9
$PINSBASE
 10
0.0
 20
0.0
 30
0.0
  9
$PLIMCHECK
 70
     0
  9
$PEXTMIN
 10
1.0000000000E+20
 20
1.0000000000E+20
 30
1.0000000000E+20
  9
$PEXTMAX
 10
-1.0000000000E+20
 20
-1.0000000000E+20
 30
-1.0000000000E+20
  9
$PLIMMIN
 10
0.0
 20
0.0
  9
$PLIMMAX
 10
420.0
 20
297.0
  9
$UNITMODE
 70
     0
  9
$VISRETAIN
 70
     1
  9
$PLINEGEN
 70
     0
  9
$PSLTSCALE
 70
     1
  9
$TREEDEPTH
 70
  3020
  9
$CMLSTYLE
  2
Standard
  9
$CMLJUST
 70
     0
  9
$CMLSCALE
 40
20.0
  9
$PROXYGRAPHICS
 70
     1
  9
$MEASUREMENT
 70
     1
  9
$CELWEIGHT
370
    -1
  9
$ENDCAPS
280
     0
  9
$JOINSTYLE
280
     0
  9
$LWDISPLAY
290
     1
  9
$INSUNITS
 70
     4
  9
$HYPERLINKBASE
  1

  9
$STYLESHEET
  1

  9
$XEDIT
290
     1
  9
$CEPSNTYPE
380
     0
  9
$PSTYLEMODE
290
     1
  9
$FINGERPRINTGUID
  2
{6605e571-c0b0-4e3e-a050-914b487634af}
  9
$VERSIONGUID
  2
{FAEB1C32-E019-11D5-929B-00C0DF256EC4}
  9
$EXTNAMES
290
     1
  9
$PSVPSCALE
 40
0.0
  9
$OLESTARTUP
290
     0
  0
ENDSEC
  0
SECTION
  2
CLASSES
  0
CLASS
  1
ACDBDICTIONARYWDFLT
  2
AcDbDictionaryWithDefault
  3
ObjectDBX Classes
 90
        0
280
     0
281
     0
  0
CLASS
  1
VISUALSTYLE
  2
AcDbVisualStyle
  3
ObjectDBX Classes
 90
     4095
280
     0
281
     0
  0
CLASS
  1
MATERIAL
  2
AcDbMaterial
  3
ObjectDBX Classes
 90
     1153
280
     0
281
     0
  0
CLASS
  1
SCALE
  2
AcDbScale
  3
ObjectDBX Classes
 90
     1153
280
     0
281
     0
  0
CLASS
  1
TABLESTYLE
  2
AcDbTableStyle
  3
ObjectDBX Classes
 90
     4095
280
     0
281
     0
  0
CLASS
  1
MLEADERSTYLE
  2
AcDbMLeaderStyle
  3
ACDB_MLEADERSTYLE_CLASS
 90
     4095
280
     0
281
     0
  0
CLASS
  1
SUN
  2
AcDbSun
  3
SCENEOE
 90
     1153
280
     0
281
     0
  0
CLASS
  1
ACDBPLACEHOLDER
  2
AcDbPlaceHolder
  3
ObjectDBX Classes
 90
        0
280
     0
281
     0
  0
CLASS
  1
LAYOUT
  2
AcDbLayout
  3
ObjectDBX Classes
 90
        0
280
     0
281
     0
  0
ENDSEC
  0
SECTION
  2
TABLES
  0
TABLE
  2
VPORT
  5
8
330
0
100
AcDbSymbolTable
 70
     1
  0
VPORT
  5
29
330
8
100
AcDbSymbolTableRecord
100
AcDbViewportTableRecord
  2
*Active
 70
     0
 10
0.0
 20
0.0
 11
1.0
 21
1.0
 12
-78.75
 22
120.0
 13
0.0
 23
0.0
 14
10.0
 24
10.0
 15
10.0
 25
10.0
 16
0.0
 26
0.0
 36
1.0
 17
0.0
 27
0.0
 37
0.0
 40
244.8
 41
0.65625
 42
50.0
 43
0.0
 44
0.0
 50
0.0
 51
0.0
 71
     0
 72
   100
 73
     1
 74
     3
 75
     0
 76
     0
 77
     0
 78
     0
281
     0
 65
     1
110
0.0
120
0.0
130
0.0
111
1.0
121
0.0
131
0.0
112
0.0
122
1.0
132
0.0
 79
     0
146
0.0
  0
ENDTAB
  0
TABLE
  2
LTYPE
  5
5
330
0
100
AcDbSymbolTable
 70
     6
  0
LTYPE
  5
14
330
5
100
AcDbSymbolTableRecord
100
AcDbLinetypeTableRecord
  2
ByBlock
 70
     0
  3

 72
    65
 73
     0
 40
0.0
  0
LTYPE
  5
15
330
5
100
AcDbSymbolTableRecord
100
AcDbLinetypeTableRecord
  2
ByLayer
 70
     0
  3

 72
    65
 73
     0
 40
0.0
  0
LTYPE
  5
16
330
5
100
AcDbSymbolTableRecord
100
AcDbLinetypeTableRecord
  2
Continuous
 70
     0
  3
Solid line
 72
    65
 73
     0
 40
0.0
  0
LTYPE
  5
6E
330
5
100
AcDbSymbolTableRecord
100
AcDbLinetypeTableRecord
  2
HIDDEN
 70
     0
  3
Hidden __ __ __ __ __ __ __ __ __ __ __ __ __ __
 72
    65
 73
     2
 40
1.905
 49
1.27
 74
     0
 49
-0.635
 74
     0
  0
LTYPE
  5
6F
330
5
100
AcDbSymbolTableRecord
100
AcDbLinetypeTableRecord
  2
PHANTOM
 70
     0
  3
Phantom ______  __  __  ______  __  __  ______
 72
    65
 73
     6
 40
12.7
 49
6.35
 74
     0
 49
-1.27
 74
     0
 49
1.27
 74
     0
 49
-1.27
 74
     0
 49
1.27
 74
     0
 49
-1.27
 74
     0
  0
LTYPE
  5
70
330
5
100
AcDbSymbolTableRecord
100
AcDbLinetypeTableRecord
  2
CENTER
 70
     0
  3
Center ____ _ ____ _ ____ _ ____ _ ____ _ ____
 72
    65
 73
     4
 40
10.16
 49
6.35
 74
     0
 49
-1.27
 74
     0
 49
1.27
 74
     0
 49
-1.27
 74
     0
  0
LTYPE
  5
71
330
5
100
AcDbSymbolTableRecord
100
AcDbLinetypeTableRecord
  2
CENTERX2
 70
     0
  3
Center (2x) ________  __  ________  __  _____
 72
    65
 73
     4
 40
20.32
 49
12.7
 74
     0
 49
-2.54
 74
     0
 49
2.54
 74
     0
 49
-2.54
 74
     0
  0
LTYPE
  5
72
330
5
100
AcDbSymbolTableRecord
100
AcDbLinetypeTableRecord
  2
DOT2
 70
     0
  3
Dot (.5x) ........................................
 72
    65
 73
     2
 40
0.635
 49
0.0
 74
     0
 49
-0.635
 74
     0
  0
ENDTAB
  0
TABLE
  2
LAYER
  5
2
330
0
100
AcDbSymbolTable
 70
     1
  0
LAYER
  5
10
330
2
100
AcDbSymbolTableRecord
100
AcDbLayerTableRecord
  2
0
 70
     0
 62
     7
  6
Continuous
370
    -3
390
F
  0
ENDTAB
  0
TABLE
  2
STYLE
  5
3
330
0
100
AcDbSymbolTable
 70
     1
  0
STYLE
  5
11
330
3
100
AcDbSymbolTableRecord
100
AcDbTextStyleTableRecord
  2
Standard
 70
     0
 40
0.0
 41
1.0
 50
0.0
 71
     0
 42
3.5
  3
txt
  4

  0
ENDTAB
  0
TABLE
  2
VIEW
  5
6
330
0
100
AcDbSymbolTable
 70
     0
  0
ENDTAB
  0
TABLE
  2
UCS
  5
7
330
0
100
AcDbSymbolTable
 70
     0
  0
ENDTAB
  0
TABLE
  2
APPID
  5
9
330
0
100
AcDbSymbolTable
 70
     1
  0
APPID
  5
12
330
9
100
AcDbSymbolTableRecord
100
AcDbRegAppTableRecord
  2
ACAD
 70
     0
  0
ENDTAB
  0
TABLE
  2
DIMSTYLE
  5
A
330
0
100
AcDbSymbolTable
 70
     1
100
AcDbDimStyleTable
  0
DIMSTYLE
105
27
330
A
100
AcDbSymbolTableRecord
100
AcDbDimStyleTableRecord
  2
ISO-25
 70
     0
 41
2.5
 42
0.625
 43
3.75
 44
1.25
 73
     0
 74
     0
 77
     1
 78
     8
140
2.5
141
2.5
143
0.0393700787
147
0.625
171
     3
172
     1
178
     0
271
     2
272
     2
274
     3
278
    44
283
     0
284
     8
340
11
  0
ENDTAB
  0
TABLE
  2
BLOCK_RECORD
  5
1
330
0
100
AcDbSymbolTable
 70
     1
  0
BLOCK_RECORD
  5
1F
330
1
100
AcDbSymbolTableRecord
100
AcDbBlockTableRecord
  2
*Model_Space
340
22
  0
BLOCK_RECORD
  5
1B
330
1
100
AcDbSymbolTableRecord
100
AcDbBlockTableRecord
  2
*Paper_Space
340
1E
  0
BLOCK_RECORD
  5
23
330
1
100
AcDbSymbolTableRecord
100
AcDbBlockTableRecord
  2
*Paper_Space0
340
26
  0
ENDTAB
  0
ENDSEC
  0
SECTION
  2
BLOCKS
  0
BLOCK
  5
20
330
1F
100
AcDbEntity
  8
0
100
AcDbBlockBegin
  2
*Model_Space
 70
     0
 10
0.0
 20
0.0
 30
0.0
  3
*Model_Space
  1

  0
ENDBLK
  5
21
330
1F
100
AcDbEntity
  8
0
100
AcDbBlockEnd
  0
BLOCK
  5
1C
330
1B
100
AcDbEntity
 67
     1
  8
0
100
AcDbBlockBegin
  2
*Paper_Space
 70
     0
 10
0.0
 20
0.0
 30
0.0
  3
*Paper_Space
  1

  0
ENDBLK
  5
1D
330
1B
100
AcDbEntity
 67
     1
  8
0
100
AcDbBlockEnd
  0
BLOCK
  5
24
330
23
100
AcDbEntity
  8
0
100
AcDbBlockBegin
  2
*Paper_Space0
 70
     0
 10
0.0
 20
0.0
 30
0.0
  3
*Paper_Space0
  1

  0
ENDBLK
  5
25
330
23
100
AcDbEntity
  8
0
100
AcDbBlockEnd
  0
ENDSEC
  0
SECTION
  2
ENTITIES
  0
CIRCLE
  5
73
330
1F
100
AcDbEntity
  8
0
  6
Continuous
 62
     7
370
    25
100
AcDbCircle
 10
-85.0
 20
140.0
 30
0.0
 40
17.49999999999993
  0
SPLINE
  5
74
330
1F
100
AcDbEntity
  8
0
  6
Continuous
 62
     7
370
    25
100
AcDbSpline
210
0.0
220
0.0
230
1.0
 70
     8
 71
     3
 72
    13
 73
     9
 74
     0
 42
0.00000001
 43
0.00000001
 40
0.0
 40
0.0
 40
0.0
 40
0.0
 40
0.2401617253493935
 40
0.3589429724295686
 40
0.4783125940138262
 40
0.6007021989671231
 40
0.7278645029107073
 40
1.0
 40
1.0
 40
1.0
 40
1.0
 10
-78.52574531116382
 20
149.0215791480777
 30
0.0
 10
-78.32101031036399
 20
148.8497510180706
 30
0.0
 10
-78.03857059986083
 20
148.5604736167485
 30
0.0
 10
-77.75286853358519
 20
148.1089312079293
 30
0.0
 10
-77.56908585754529
 20
147.7507189480188
 30
0.0
 10
-77.43103191167603
 20
147.3619941580327
 30
0.0
 10
-77.30307356563554
 20
146.7938605166126
 30
0.0
 10
-77.26041171093178
 20
146.3490618067598
 30
0.0
 10
-77.26397305088983
 20
146.0453377097215
 30
0.0
  0
SPLINE
  5
75
330
1F
100
AcDbEntity
  8
0
  6
Continuous
 62
     7
370
    25
100
AcDbSpline
210
0.0
220
0.0
230
1.0
 70
     8
 71
     3
 72
    17
 73
    13
 74
     0
 42
0.00000001
 43
0.00000001
 40
0.0
 40
0.0
 40
0.0
 40
0.0
 40
0.1865391832896041
 40
0.2703232338712168
 40
0.3469442293336655
 40
0.4172905491156703
 40
0.4815033623793873
 40
0.5386422629506971
 40
0.5898604906088543
 40
0.6871236880344861
 40
0.7864460173837284
 40
1.0
 40
1.0
 40
1.0
 40
1.0
 10
-81.86157579061587
 20
149.862760654927
 30
0.0
 10
-81.64217797988174
 20
149.8608222941966
 30
0.0
 10
-81.32416376108394
 20
149.8592237092697
 30
0.0
 10
-80.91633182690299
 20
149.8423823755286
 30
0.0
 10
-80.6456697137122
 20
149.8219627203856
 30
0.0
 10
-80.39807572859003
 20
149.8012405636931
 30
0.0
 10
-80.17451598792461
 20
149.7715339198763
 30
0.0
 10
-79.97379165532203
 20
149.7408049294154
 30
0.0
 10
-79.73740271197119
 20
149.6891496736523
 30
0.0
 10
-79.45799420421399
 20
149.6030851542334
 30
0.0
 10
-79.02051224829056
 20
149.3965409434367
 30
0.0
 10
-78.71689446804366
 20
149.1846355971169
 30
0.0
 10
-78.52574531116382
 20
149.0215791480777
 30
0.0
  0
SPLINE
  5
77
330
1F
100
AcDbEntity
  8
0
  6
Continuous
 62
     7
370
    25
100
AcDbSpline
210
0.0
220
0.0
230
1.0
 70
     8
 71
     3
 72
    13
 73
     9
 74
     0
 42
0.00000001
 43
0.00000001
 40
0.0
 40
0.0
 40
0.0
 40
0.0
 40
0.225577311793893
 40
0.3314680495709817
 40
0.4418389586152326
 40
0.5609873253661376
 40
0.691580894833826
 40
1.0
 40
1.0
 40
1.0
 40
1.0
 10
-87.53794565362958
 20
148.3762452439681
 30
0.0
 10
-87.53532435634632
 20
148.5911053350736
 30
0.0
 10
-87.48148896576177
 20
148.9182347905092
 30
0.0
 10
-87.24005930592578
 20
149.2748012083727
 30
0.0
 10
-86.99487413562213
 20
149.4884847121269
 30
0.0
 10
-86.69133521350388
 20
149.6594418631967
 30
0.0
 10
-86.17944213363447
 20
149.8304521477279
 30
0.0
 10
-85.75262170258998
 20
149.857288743198
 30
0.0
 10
-85.45746620157477
 20
149.8627606549269
 30
0.0
  0
SPLINE
  5
78
330
1F
100
AcDbEntity
  8
0
  6
Continuous
 62
     7
370
    25
100
AcDbSpline
210
0.0
220
0.0
230
1.0
 70
     8
 71
     3
 72
    13
 73
     9
 74
     0
 42
0.00000001
 43
0.00000001
 40
0.0
 40
0.0
 40
0.0
 40
0.0
 40
0.3321063883378406
 40
0.4657569196631837
 40
0.5841506393246657
 40
0.689755269804874
 40
0.7895250924351823
 40
1.0
 40
1.0
 40
1.0
 40
1.0
 10
-85.95511174951997
 20
147.3970072302695
 30
0.0
 10
-86.18628197012369
 20
147.4011368417606
 30
0.0
 10
-86.51577762651765
 20
147.4139155186774
 30
0.0
 10
-86.91035987887275
 20
147.5252797216635
 30
0.0
 10
-87.13999007840569
 20
147.6281598869915
 30
0.0
 10
-87.32116147273419
 20
147.7687666313502
 30
0.0
 10
-87.49249250259781
 20
148.0088654303995
 30
0.0
 10
-87.5384589534927
 20
148.2294313793848
 30
0.0
 10
-87.53794565362958
 20
148.3762452439681
 30
0.0
  0
SPLINE
  5
7B
330
1F
100
AcDbEntity
  8
0
  6
Continuous
 62
     7
370
    25
100
AcDbSpline
210
0.0
220
0.0
230
1.0
 70
     8
 71
     3
 72
    21
 73
    17
 74
     0
 42
0.00000001
 43
0.00000001
 40
0.0
 40
0.0
 40
0.0
 40
0.0
 40
0.0902352335344577
 40
0.1340134624128677
 40
0.1781563262522636
 40
0.2232423282540218
 40
0.2694498637929626
 40
0.3176648593259079
 40
0.3680163641201082
 40
0.4231035185497686
 40
0.4841975543306289
 40
0.552524760120206
 40
0.6280901437236113
 40
0.709967853936649
 40
0.799264554297677
 40
1.0
 40
1.0
 40
1.0
 40
1.0
 10
-93.02488914678024
 20
133.0134455864338
 30
0.0
 10
-92.80865626152118
 20
133.00916233085
 30
0.0
 10
-92.48864927101853
 20
133.0485774200636
 30
0.0
 10
-92.07804241680397
 20
133.1650097997186
 30
0.0
 10
-91.78421621213569
 20
133.2885107775801
 30
0.0
 10
-91.50054112743412
 20
133.446108682945
 30
0.0
 10
-91.22949780129038
 20
133.641563282402
 30
0.0
 10
-90.96856992128936
 20
133.8698483735136
 30
0.0
 10
-90.71831857666088
 20
134.1395025234728
 30
0.0
 10
-90.46971831979535
 20
134.4508673239407
 30
0.0
 10
-90.21826993978063
 20
134.813738474902
 30
0.0
 10
-89.96397244104946
 20
135.23284722099
 30
0.0
 10
-89.69677688362758
 20
135.7020398907095
 30
0.0
 10
-89.43248716561496
 20
136.2296285275853
 30
0.0
 10
-89.04748874768246
 20
137.0311776743065
 30
0.0
 10
-88.77761924370724
 20
137.6703868872343
 30
0.0
 10
-88.5974490782871
 20
138.1151151069818
 30
0.0
  0
SPLINE
  5
7C
330
1F
100
AcDbEntity
  8
0
  6
Continuous
 62
     7
370
    25
100
AcDbSpline
210
0.0
220
0.0
230
1.0
 70
     8
 71
     3
 72
    21
 73
    17
 74
     0
 42
0.00000001
 43
0.00000001
 40
0.0
 40
0.0
 40
0.0
 40
0.0
 40
0.1456455203829286
 40
0.2132790341278084
 40
0.2782518089699827
 40
0.3406403363204066
 40
0.401964679730345
 40
0.4618278693631574
 40
0.5207489709335184
 40
0.5792664985654817
 40
0.6369227607573265
 40
0.69411476197747
 40
0.7518109701171272
 40
0.8103172476235198
 40
0.8711295802606652
 40
1.0
 40
1.0
 40
1.0
 40
1.0
 10
-95.34616483171173
 20
135.6333086001325
 30
0.0
 10
-95.34654439775035
 20
135.441131938338
 30
0.0
 10
-95.32855279010992
 20
135.1597279936638
 30
0.0
 10
-95.26497752622558
 20
134.7976633341808
 30
0.0
 10
-95.19277476630258
 20
134.5503584433064
 30
0.0
 10
-95.10598256931523
 20
134.3169716522126
 30
0.0
 10
-95.00208137022727
 20
134.0974930608624
 30
0.0
 10
-94.87085145144272
 20
133.8989207803776
 30
0.0
 10
-94.72766742158782
 20
133.713396315946
 30
0.0
 10
-94.56235879953492
 20
133.5514836072625
 30
0.0
 10
-94.38702597641797
 20
133.4037681238943
 30
0.0
 10
-94.1912033335063
 20
133.2864323162569
 30
0.0
 10
-93.98569070297489
 20
133.1854703113293
 30
0.0
 10
-93.76484272487538
 20
133.1076576948275
 30
0.0
 10
-93.44500239351919
 20
133.0357876596807
 30
0.0
 10
-93.19528507274102
 20
133.0090589877623
 30
0.0
 10
-93.02488914678024
 20
133.0134455864338
 30
0.0
  0
SPLINE
  5
7D
330
1F
100
AcDbEntity
  8
0
  6
Continuous
 62
     7
370
    25
100
AcDbSpline
210
0.0
220
0.0
230
1.0
 70
     8
 71
     3
 72
    13
 73
     9
 74
     0
 42
0.00000001
 43
0.00000001
 40
0.0
 40
0.0
 40
0.0
 40
0.0
 40
0.2601602338869009
 40
0.3873695560141905
 40
0.5149533189126853
 40
0.6400696384320314
 40
0.7617470667789201
 40
1.0
 40
1.0
 40
1.0
 40
1.0
 10
-92.98636174951997
 20
139.550260654927
 30
0.0
 10
-93.3378697755502
 20
139.3328533394031
 30
0.0
 10
-93.83621939516078
 20
138.9593273451754
 30
0.0
 10
-94.37592264218091
 20
138.3396331411211
 30
0.0
 10
-94.72262793826309
 20
137.8426914746121
 30
0.0
 10
-94.9991538102848
 20
137.3129815499047
 30
0.0
 10
-95.26636696184262
 20
136.58625771394
 30
0.0
 10
-95.34827009433097
 20
136.0129234837426
 30
0.0
 10
-95.34616483171173
 20
135.6333086001325
 30
0.0
  0
SPLINE
  5
7E
330
1F
100
AcDbEntity
  8
0
  6
Continuous
 62
     7
370
    25
100
AcDbSpline
210
0.0
220
0.0
230
1.0
 70
     8
 71
     3
 72
    13
 73
     9
 74
     0
 42
0.00000001
 43
0.00000001
 40
0.0
 40
0.0
 40
0.0
 40
0.0
 40
0.2846310933052568
 40
0.417966189658368
 40
0.5448808467563699
 40
0.6661836530136185
 40
0.781378868436983
 40
1.0
 40
1.0
 40
1.0
 40
1.0
 10
-89.54458092760217
 20
140.5294986686256
 30
0.0
 10
-89.88592836317154
 20
140.5011222086311
 30
0.0
 10
-90.38388400129979
 20
140.4310093573265
 30
0.0
 10
-91.02801568149958
 20
140.3087492199421
 30
0.0
 10
-91.47181504220224
 20
140.1909439209026
 30
0.0
 10
-91.88908071356157
 20
140.0605466683963
 30
0.0
 10
-92.40183169077929
 20
139.867781175062
 30
0.0
 10
-92.76051826503745
 20
139.684842181976
 30
0.0
 10
-92.98636174951997
 20
139.550260654927
 30
0.0
  0
SPLINE
  5
7F
330
1F
100
AcDbEntity
  8
0
  6
Continuous
 62
     7
370
    25
100
AcDbSpline
210
0.0
220
0.0
230
1.0
 70
     8
 71
     3
 72
     9
 73
     5
 74
     0
 42
0.00000001
 43
0.00000001
 40
0.0
 40
0.0
 40
0.0
 40
0.0
 40
0.3954870240917859
 40
1.0
 40
1.0
 40
1.0
 40
1.0
 10
-88.30207236595832
 20
140.8505603124612
 30
0.0
 10
-88.44696572859851
 20
140.7588046962462
 30
0.0
 10
-88.85629785332769
 20
140.612011944755
 30
0.0
 10
-89.28670386297381
 20
140.5625779819973
 30
0.0
 10
-89.54458092760217
 20
140.5294986686256
 30
0.0
  0
SPLINE
  5
80
330
1F
100
AcDbEntity
  8
0
  6
Continuous
 62
     7
370
    25
100
AcDbSpline
210
0.0
220
0.0
230
1.0
 70
     8
 71
     3
 72
     9
 73
     5
 74
     0
 42
0.00000001
 43
0.00000001
 40
0.0
 40
0.0
 40
0.0
 40
0.0
 40
0.4942104332837083
 40
1.0
 40
1.0
 40
1.0
 40
1.0
 10
-87.74342510568437
 20
141.9132743535571
 30
0.0
 10
-87.74400143822362
 20
141.7088498980783
 30
0.0
 10
-87.82953981913407
 20
141.2834376142035
 30
0.0
 10
-88.13179698965186
 20
140.9715846465444
 30
0.0
 10
-88.30207236595832
 20
140.8505603124612
 30
0.0
  0
SPLINE
  5
81
330
1F
100
AcDbEntity
  8
0
  6
Continuous
 62
     7
370
    25
100
AcDbSpline
210
0.0
220
0.0
230
1.0
 70
     8
 71
     3
 72
    13
 73
     9
 74
     0
 42
0.00000001
 43
0.00000001
 40
0.0
 40
0.0
 40
0.0
 40
0.0
 40
0.295207314007304
 40
0.4266156061717299
 40
0.5525888230662322
 40
0.6703937489233042
 40
0.7791341539463418
 40
1.0
 40
1.0
 40
1.0
 40
1.0
 10
-89.63126757143779
 20
143.2874181891736
 30
0.0
 10
-89.37486543507565
 20
143.29180557153
 30
0.0
 10
-89.00258304739866
 20
143.2474549961825
 30
0.0
 10
-88.54933270092077
 20
143.0836248441158
 30
0.0
 10
-88.26628341795593
 20
142.9181098492095
 30
0.0
 10
-88.03626301032854
 20
142.7130367918584
 30
0.0
 10
-87.80606502697418
 20
142.3951488628751
 30
0.0
 10
-87.74035174872955
 20
142.1048839333799
 30
0.0
 10
-87.74342510568437
 20
141.9132743535571
 30
0.0
  0
SPLINE
  5
82
330
1F
100
AcDbEntity
  8
0
  6
Continuous
 62
     7
370
    25
100
AcDbSpline
210
0.0
220
0.0
230
1.0
 70
     8
 71
     3
 72
    17
 73
    13
 74
     0
 42
0.00000001
 43
0.00000001
 40
0.0
 40
0.0
 40
0.0
 40
0.0
 40
0.118310592605142
 40
0.17861239361637
 40
0.2397412165817779
 40
0.3018770109760369
 40
0.3648049301112352
 40
0.4296528845487413
 40
0.4957484144498713
 40
0.6270873902028308
 40
0.7541918273442672
 40
1.0
 40
1.0
 40
1.0
 40
1.0
 10
-96.20661003719121
 20
140.5744472987626
 30
0.0
 10
-96.00592582416877
 20
140.780363984822
 30
0.0
 10
-95.6805016365351
 20
141.0677764970852
 30
0.0
 10
-95.22193802734073
 20
141.4267475281065
 30
0.0
 10
-94.85507372536537
 20
141.6804017935549
 30
0.0
 10
-94.46978230721452
 20
141.9172835790497
 30
0.0
 10
-94.06599897958469
 20
142.1404327898816
 30
0.0
 10
-93.64290042795501
 20
142.3471541074178
 30
0.0
 10
-93.06164288512699
 20
142.6078172196384
 30
0.0
 10
-92.31970280203824
 20
142.8770808892607
 30
0.0
 10
-91.13434623280834
 20
143.1914428720701
 30
0.0
 10
-90.22814691256553
 20
143.284153133743
 30
0.0
 10
-89.63126757143779
 20
143.2874181891736
 30
0.0
  0
SPLINE
  5
83
330
1F
100
AcDbEntity
  8
0
  6
Continuous
 62
     7
370
    25
100
AcDbSpline
210
0.0
220
0.0
230
1.0
 70
     8
 71
     3
 72
    13
 73
     9
 74
     0
 42
0.00000001
 43
0.00000001
 40
0.0
 40
0.0
 40
0.0
 40
0.0
 40
0.248968891541897
 40
0.3703880631316432
 40
0.4916663153283528
 40
0.614359809739187
 40
0.7389391566812618
 40
1.0
 40
1.0
 40
1.0
 40
1.0
 10
-98.42835661253366
 20
135.28656202479
 30
0.0
 10
-98.42628370004482
 20
135.774985180502
 30
0.0
 10
-98.36316176878944
 20
136.5031308488388
 30
0.0
 10
-98.12917270181468
 20
137.4412030089658
 30
0.0
 10
-97.88202165160376
 20
138.1155100448338
 30
0.0
 10
-97.5712402553607
 20
138.7699463331874
 30
0.0
 10
-97.04789609869022
 20
139.6212541918616
 30
0.0
 10
-96.5648101259269
 20
140.2079730670153
 30
0.0
 10
-96.20661003719123
 20
140.5744472987626
 30
0.0
  0
SPLINE
  5
84
330
1F
100
AcDbEntity
  8
0
  6
Continuous
 62
     7
370
    25
100
AcDbSpline
210
0.0
220
0.0
230
1.0
 70
     8
 71
     3
 72
    21
 73
    17
 74
     0
 42
0.00000001
 43
0.00000001
 40
0.0
 40
0.0
 40
0.0
 40
0.0
 40
0.1338740298778698
 40
0.1972374000602722
 40
0.2583596728673348
 40
0.3187482494209007
 40
0.3784649321603606
 40
0.4385357759926185
 40
0.4993251885334683
 40
0.5601146010743182
 40
0.620185444906573
 40
0.6800987146775997
 40
0.740487291231165
 40
0.8019818782583599
 40
0.8653452484407625
 40
1.0
 40
1.0
 40
1.0
 40
1.0
 10
-93.28494907828708
 20
130.1367332576667
 30
0.0
 10
-93.65076837350244
 20
130.1347828977556
 30
0.0
 10
-94.18872263688095
 20
130.1810732782586
 30
0.0
 10
-94.88065244701782
 20
130.3241892206583
 30
0.0
 10
-95.35962048410973
 20
130.4859885691928
 30
0.0
 10
-95.81432203992738
 20
130.6827980051302
 30
0.0
 10
-96.24084779167194
 20
130.9297488691837
 30
0.0
 10
-96.64100356299002
 20
131.2191832679553
 30
0.0
 10
-97.00831486418006
 20
131.553537916595
 30
0.0
 10
-97.34292382742998
 20
131.9207531152421
 30
0.0
 10
-97.63157337552121
 20
132.3219758423932
 30
0.0
 10
-97.8828635953842
 20
132.7465871896586
 30
0.0
 10
-98.07958805398728
 20
133.2032271232522
 30
0.0
 10
-98.2403406629547
 20
133.6835342715948
 30
0.0
 10
-98.38482014564353
 20
134.3783760126958
 30
0.0
 10
-98.42991716006904
 20
134.9186935123099
 30
0.0
 10
-98.42835661253365
 20
135.28656202479
 30
0.0
  0
SPLINE
  5
85
330
1F
100
AcDbEntity
  8
0
  6
Continuous
 62
     7
370
    25
100
AcDbSpline
210
0.0
220
0.0
230
1.0
 70
     8
 71
     3
 72
    13
 73
     9
 74
     0
 42
0.00000001
 43
0.00000001
 40
0.0
 40
0.0
 40
0.0
 40
0.0
 40
0.2668676914780279
 40
0.3916514417251581
 40
0.513114922214528
 40
0.6328462787921186
 40
0.752286505923222
 40
1.0
 40
1.0
 40
1.0
 40
1.0
 10
-88.05164428376654
 20
132.9074952439681
 30
0.0
 10
-88.38256213851307
 20
132.4720172730156
 30
0.0
 10
-88.91667203812204
 20
131.8640165940557
 30
0.0
 10
-89.74526585005248
 20
131.2097778569185
 30
0.0
 10
-90.3887237580142
 20
130.8193480575465
 30
0.0
 10
-91.06308913732073
 20
130.5096502136271
 30
0.0
 10
-92.02219312746922
 20
130.2200221309889
 30
0.0
 10
-92.7760397412378
 20
130.1318260453426
 30
0.0
 10
-93.28494907828708
 20
130.1367332576667
 30
0.0
  0
SPLINE
  5
86
330
1F
100
AcDbEntity
  8
0
  6
Continuous
 62
     7
370
    25
100
AcDbSpline
210
0.0
220
0.0
230
1.0
 70
     8
 71
     3
 72
    15
 73
    11
 74
     0
 42
0.00000001
 43
0.00000001
 40
0.0
 40
0.0
 40
0.0
 40
0.0
 40
0.2221853964662462
 40
0.3187266106593967
 40
0.4058617633245413
 40
0.4833745168238924
 40
0.5512682594795599
 40
0.6097848408448774
 40
0.6584587619966153
 40
1.0
 40
1.0
 40
1.0
 40
1.0
 10
-85.5505740782871
 20
138.0059541480776
 30
0.0
 10
-85.70689032654542
 20
137.6142010188413
 30
0.0
 10
-85.94500994890417
 20
137.0580109431069
 30
0.0
 10
-86.23905359048472
 20
136.3459218267739
 30
0.0
 10
-86.43553892917396
 20
135.8907178957848
 30
0.0
 10
-86.6122277239657
 20
135.4862328047191
 30
0.0
 10
-86.76802523433093
 20
135.1318516259907
 30
0.0
 10
-86.9106252236539
 20
134.831637215884
 30
0.0
 10
-87.27125465644187
 20
134.0599735782134
 30
0.0
 10
-87.66208961451782
 20
133.425514661688
 30
0.0
 10
-88.05164428376654
 20
132.9074952439681
 30
0.0
  0
SPLINE
  5
8A
330
1F
100
AcDbEntity
  8
0
  6
Continuous
 62
     7
370
    25
100
AcDbSpline
210
0.0
220
0.0
230
1.0
 70
     8
 71
     3
 72
    13
 73
     9
 74
     0
 42
0.00000001
 43
0.00000001
 40
0.0
 40
0.0
 40
0.0
 40
0.0
 40
0.2295418545952148
 40
0.3372216021137044
 40
0.4480204126307771
 40
0.566564833302757
 40
0.6954389314250327
 40
1.0
 40
1.0
 40
1.0
 40
1.0
 10
-71.099589489246
 20
133.6876750384886
 30
0.0
 10
-71.09889787053322
 20
133.4725805169253
 30
0.0
 10
-71.1531091832993
 20
133.1475657926414
 30
0.0
 10
-71.38374177583069
 20
132.7876451827675
 30
0.0
 10
-71.61832216018806
 20
132.5688628420803
 30
0.0
 10
-71.91301645606728
 20
132.3987725393506
 30
0.0
 10
-72.40740801018018
 20
132.2278664866275
 30
0.0
 10
-72.81994614406223
 20
132.1931318152561
 30
0.0
 10
-73.10622476321859
 20
132.1915277782146
 30
0.0
  0
SPLINE
  5
8B
330
1F
100
AcDbEntity
  8
0
  6
Continuous
 62
     7
370
    25
100
AcDbSpline
210
0.0
220
0.0
230
1.0
 70
     8
 71
     3
 72
    13
 73
     9
 74
     0
 42
0.00000001
 43
0.00000001
 40
0.0
 40
0.0
 40
0.0
 40
0.0
 40
0.3265901508290568
 40
0.4591117360873834
 40
0.5765880426103958
 40
0.681577585666199
 40
0.7831810571571655
 40
1.0
 40
1.0
 40
1.0
 40
1.0
 10
-72.59573674951997
 20
134.6572812028722
 30
0.0
 10
-72.3768458080718
 20
134.655213794814
 30
0.0
 10
-72.06584825937041
 20
134.6363582497548
 30
0.0
 10
-71.69111465853518
 20
134.5329892460365
 30
0.0
 10
-71.47346650848883
 20
134.4296459923339
 30
0.0
 10
-71.30721719883147
 20
134.2855405408558
 30
0.0
 10
-71.13769867719787
 20
134.05276925305
 30
0.0
 10
-71.09733981788328
 20
133.8322147143377
 30
0.0
 10
-71.099589489246
 20
133.6876750384886
 30
0.0
  0
SPLINE
  5
8D
330
1F
100
AcDbEntity
  8
0
  6
Continuous
 62
     7
370
    25
100
AcDbSpline
210
0.0
220
0.0
230
1.0
 70
     8
 71
     3
 72
    13
 73
     9
 74
     0
 42
0.00000001
 43
0.00000001
 40
0.0
 40
0.0
 40
0.0
 40
0.0
 40
0.3119557429819679
 40
0.4463339199960693
 40
0.5681887766588775
 40
0.6828151186206585
 40
0.7902150911014753
 40
1.0
 40
1.0
 40
1.0
 40
1.0
 10
-78.71838229746517
 20
135.7039421617763
 30
0.0
 10
-78.64771650057163
 20
135.5470643120981
 30
0.0
 10
-78.54187012064288
 20
135.3225992968601
 30
0.0
 10
-78.35771329061392
 20
135.0668989464405
 30
0.0
 10
-78.21386956640363
 20
134.9198224997145
 30
0.0
 10
-78.06311991854892
 20
134.8031391320471
 30
0.0
 10
-77.85224920770341
 20
134.6878677632455
 30
0.0
 10
-77.67491543553494
 20
134.6580943368029
 30
0.0
 10
-77.5593497632186
 20
134.6572812028722
 30
0.0
  0
SPLINE
  5
8F
330
1F
100
AcDbEntity
  8
0
  6
Continuous
 62
     7
370
    25
100
AcDbSpline
210
0.0
220
0.0
230
1.0
 70
     8
 71
     3
 72
    21
 73
    17
 74
     0
 42
0.00000001
 43
0.00000001
 40
0.0
 40
0.0
 40
0.0
 40
0.0
 40
0.1277729975540503
 40
0.1897200756759545
 40
0.2513906071602681
 40
0.3127435590052349
 40
0.3742176870242388
 40
0.4362491758051573
 40
0.499658136025663
 40
0.5627011148816102
 40
0.625111970394221
 40
0.6866276975941564
 40
0.7479692769001443
 40
0.8096699688124664
 40
0.871782009487362
 40
1.0
 40
1.0
 40
1.0
 40
1.0
 10
-77.26397305088983
 20
146.0453377097215
 30
0.0
 10
-77.26399934258201
 20
145.7618046015199
 30
0.0
 10
-77.29416249769284
 20
145.3403175463761
 30
0.0
 10
-77.40294992667305
 20
144.7925079424334
 30
0.0
 10
-77.51505871631507
 20
144.3971337677984
 30
0.0
 10
-77.66012916961665
 20
144.0137308258712
 30
0.0
 10
-77.8372493702471
 20
143.6431225600263
 30
0.0
 10
-78.04791309179342
 20
143.2852965961919
 30
0.0
 10
-78.28623470387006
 20
142.9410279162815
 30
0.0
 10
-78.55279173820266
 20
142.6169909037902
 30
0.0
 10
-78.84127270147133
 20
142.3180600157914
 30
0.0
 10
-79.15160905591361
 20
142.0477483532313
 30
0.0
 10
-79.47948260187815
 20
141.8014611680898
 30
0.0
 10
-79.83060152870128
 20
141.5869733330719
 30
0.0
 10
-80.33022020132483
 20
141.3340537261521
 30
0.0
 10
-80.73112659153695
 20
141.1956749138962
 30
0.0
 10
-81.00434120157475
 20
141.1170414768448
 30
0.0
  0
SPLINE
  5
90
330
1F
100
AcDbEntity
  8
0
  6
Continuous
 62
     7
370
    25
100
AcDbSpline
210
0.0
220
0.0
230
1.0
 70
     8
 71
     3
 72
    13
 73
     9
 74
     0
 42
0.00000001
 43
0.00000001
 40
0.0
 40
0.0
 40
0.0
 40
0.0
 40
0.2605512157823091
 40
0.3810118791330961
 40
0.4980708531615777
 40
0.615928256000445
 40
0.7368576457766793
 40
1.0
 40
1.0
 40
1.0
 40
1.0
 10
-78.10194394130077
 20
132.1915277782146
 30
0.0
 10
-78.42167667887837
 20
132.1900581099459
 30
0.0
 10
-78.89213689800633
 20
132.2418172933464
 30
0.0
 10
-79.47127411228867
 20
132.447773699022
 30
0.0
 10
-79.85213311978752
 20
132.664757147809
 30
0.0
 10
-80.19708194302585
 20
132.9360198716208
 30
0.0
 10
-80.61055650912064
 20
133.3974554544987
 30
0.0
 10
-80.83430192139856
 20
133.819031189788
 30
0.0
 10
-80.96260318787613
 20
134.11468702479
 30
0.0
  0
CIRCLE
  5
91
330
1F
100
AcDbEntity
  8
0
  6
Continuous
 62
     7
370
    25
100
AcDbCircle
 10
-115.5
 20
58.86
 30
0.0
 40
2.750000000000014
  0
CIRCLE
  5
92
330
1F
100
AcDbEntity
  8
0
  6
Continuous
 62
     7
370
    25
100
AcDbCircle
 10
-139.5
 20
58.86
 30
0.0
 40
2.75
  0
CIRCLE
  5
93
330
1F
100
AcDbEntity
  8
0
  6
Continuous
 62
     7
370
    25
100
AcDbCircle
 10
-139.5
 20
93.86
 30
0.0
 40
2.749999999999943
  0
CIRCLE
  5
94
330
1F
100
AcDbEntity
  8
0
  6
Continuous
 62
     7
370
    25
100
AcDbCircle
 10
-146.25
 20
45.0
 30
0.0
 40
1.750000000000028
  0
CIRCLE
  5
95
330
1F
100
AcDbEntity
  8
0
  6
Continuous
 62
     7
370
    25
100
AcDbCircle
 10
-25.0
 20
215.0
 30
0.0
 40
9.49999999999994
  0
CIRCLE
  5
9C
330
1F
100
AcDbEntity
  8
0
  6
Continuous
 62
     7
370
    25
100
AcDbCircle
 10
-85.0
 20
140.0
 30
0.0
 40
20.00000000000009
  0
CIRCLE
  5
9D
330
1F
100
AcDbEntity
  8
0
  6
Continuous
 62
     7
370
    25
100
AcDbCircle
 10
-123.75
 20
45.0
 30
0.0
 40
1.750000000000014
  0
CIRCLE
  5
9E
330
1F
100
AcDbEntity
  8
0
  6
Continuous
 62
     7
370
    25
100
AcDbCircle
 10
-101.25
 20
45.0
 30
0.0
 40
1.75
  0
CIRCLE
  5
9F
330
1F
100
AcDbEntity
  8
0
  6
Continuous
 62
     7
370
    25
100
AcDbCircle
 10
-78.75
 20
45.0
 30
0.0
 40
1.750000000000014
  0
CIRCLE
  5
A0
330
1F
100
AcDbEntity
  8
0
  6
Continuous
 62
     7
370
    25
100
AcDbCircle
 10
-146.25
 20
5.0
 30
0.0
 40
1.750000000000028
  0
CIRCLE
  5
A1
330
1F
100
AcDbEntity
  8
0
  6
Continuous
 62
     7
370
    25
100
AcDbCircle
 10
-123.75
 20
5.0
 30
0.0
 40
1.750000000000028
  0
CIRCLE
  5
A2
330
1F
100
AcDbEntity
  8
0
  6
Continuous
 62
     7
370
    25
100
AcDbCircle
 10
-101.25
 20
5.0
 30
0.0
 40
1.75
  0
CIRCLE
  5
A3
330
1F
100
AcDbEntity
  8
0
  6
Continuous
 62
     7
370
    25
100
AcDbCircle
 10
-78.75
 20
5.0
 30
0.0
 40
1.749999999999986
  0
CIRCLE
  5
A5
330
1F
100
AcDbEntity
  8
0
  6
Continuous
 62
     7
370
    25
100
AcDbCircle
 10
-25.0
 20
105.0
 30
0.0
 40
9.499999999999979
  0
CIRCLE
  5
A6
330
1F
100
AcDbEntity
  8
0
  6
Continuous
 62
     7
370
    25
100
AcDbCircle
 10
-42.5
 20
87.5
 30
0.0
 40
1.750000000000007
  0
CIRCLE
  5
A7
330
1F
100
AcDbEntity
  8
0
  6
Continuous
 62
     7
370
    25
100
AcDbCircle
 10
-42.5
 20
122.5
 30
0.0
 40
1.75
  0
CIRCLE
  5
A8
330
1F
100
AcDbEntity
  8
0
  6
Continuous
 62
     7
370
    25
100
AcDbCircle
 10
-42.5
 20
197.5
 30
0.0
 40
1.749999999999993
  0
CIRCLE
  5
A9
330
1F
100
AcDbEntity
  8
0
  6
Continuous
 62
     7
370
    25
100
AcDbCircle
 10
-42.5
 20
232.5
 30
0.0
 40
1.75000000000005
  0
CIRCLE
  5
AA
330
1F
100
AcDbEntity
  8
0
  6
Continuous
 62
     7
370
    25
100
AcDbCircle
 10
-7.5
 20
232.5
 30
0.0
 40
1.750000000000039
  0
CIRCLE
  5
AB
330
1F
100
AcDbEntity
  8
0
  6
Continuous
 62
     7
370
    25
100
AcDbCircle
 10
-7.5
 20
197.5
 30
0.0
 40
1.749999999999983
  0
CIRCLE
  5
AC
330
1F
100
AcDbEntity
  8
0
  6
Continuous
 62
     7
370
    25
100
AcDbCircle
 10
-7.5
 20
122.5
 30
0.0
 40
1.749999999999993
  0
CIRCLE
  5
AD
330
1F
100
AcDbEntity
  8
0
  6
Continuous
 62
     7
370
    25
100
AcDbCircle
 10
-7.5
 20
87.5
 30
0.0
 40
1.75
  0
CIRCLE
  5
AE
330
1F
100
AcDbEntity
  8
0
  6
Continuous
 62
     7
370
    25
100
AcDbCircle
 10
-10.1507575951
 20
174.8492424049
 30
0.0
 40
2.250000000000016
  0
CIRCLE
  5
AF
330
1F
100
AcDbEntity
  8
0
  6
Continuous
 62
     7
370
    25
100
AcDbCircle
 10
-39.8492424049
 20
174.8492424049
 30
0.0
 40
2.250000000000021
  0
CIRCLE
  5
B0
330
1F
100
AcDbEntity
  8
0
  6
Continuous
 62
     7
370
    25
100
AcDbCircle
 10
-39.8492424049
 20
145.1507575951
 30
0.0
 40
2.250000000000043
  0
CIRCLE
  5
B1
330
1F
100
AcDbEntity
  8
0
  6
Continuous
 62
     7
370
    25
100
AcDbCircle
 10
-10.1507575951
 20
145.1507575951
 30
0.0
 40
2.250000000000034
  0
CIRCLE
  5
B2
330
1F
100
AcDbEntity
  8
0
  6
Continuous
 62
     7
370
    25
100
AcDbCircle
 10
-25.0
 20
160.0
 30
0.0
 40
17.99999999999998
  0
CIRCLE
  5
B3
330
1F
100
AcDbEntity
  8
0
  6
Continuous
 62
     7
370
    25
100
AcDbCircle
 10
-115.5
 20
93.86
 30
0.0
 40
2.749999999999957
  0
SPLINE
  5
BA
330
1F
100
AcDbEntity
  8
0
  6
Continuous
 62
     7
370
    25
100
AcDbSpline
210
0.0
220
0.0
230
1.0
 70
     8
 71
     3
 72
    13
 73
     9
 74
     0
 42
0.00000001
 43
0.00000001
 40
0.0
 40
0.0
 40
0.0
 40
0.0
 40
0.2610352283414834
 40
0.385390325821015
 40
0.5060922762046317
 40
0.6252636124815546
 40
0.7454661893577587
 40
1.0
 40
1.0
 40
1.0
 40
1.0
 10
-81.30292853034189
 20
143.6598496960229
 30
0.0
 10
-81.11688731231571
 20
143.7842860985856
 30
0.0
 10
-80.86616782199808
 20
144.0021926221903
 30
0.0
 10
-80.58959838382981
 20
144.3370631187518
 30
0.0
 10
-80.42391761327563
 20
144.6024840115905
 30
0.0
 10
-80.29818393637116
 20
144.8849300253941
 30
0.0
 10
-80.17469156957634
 20
145.2905367826529
 30
0.0
 10
-80.14174941359217
 20
145.6124729753598
 30
0.0
 10
-80.14068537965696
 20
145.8302264083516
 30
0.0
  0
SPLINE
  5
BB
330
1F
100
AcDbEntity
  8
0
  6
Continuous
 62
     7
370
    25
100
AcDbSpline
210
0.0
220
0.0
230
1.0
 70
     8
 71
     3
 72
     9
 73
     5
 74
     0
 42
0.00000001
 43
0.00000001
 40
0.0
 40
0.0
 40
0.0
 40
0.0
 40
0.5659137895089822
 40
1.0
 40
1.0
 40
1.0
 40
1.0
 10
-83.12976928376656
 20
143.1589935316393
 30
0.0
 10
-82.76907925170174
 20
143.1797909172551
 30
0.0
 10
-82.13374575938433
 20
143.2691742182022
 30
0.0
 10
-81.53164395123419
 20
143.4990321535479
 30
0.0
 10
-81.30292853034189
 20
143.6598496960229
 30
0.0
  0
SPLINE
  5
BF
330
1F
100
AcDbEntity
  8
0
  6
Continuous
 62
     7
370
    25
100
AcDbSpline
210
0.0
220
0.0
230
1.0
 70
     8
 71
     3
 72
    13
 73
     9
 74
     0
 42
0.00000001
 43
0.00000001
 40
0.0
 40
0.0
 40
0.0
 40
0.0
 40
0.2876670436325863
 40
0.4075235913895766
 40
0.5193644122435295
 40
0.6268872835817414
 40
0.7405495825434504
 40
1.0
 40
1.0
 40
1.0
 40
1.0
 10
-80.14068537965696
 20
145.8302264083516
 30
0.0
 10
-80.14693433534245
 20
146.0591104650839
 30
0.0
 10
-80.1649446091029
 20
146.3948146907219
 30
0.0
 10
-80.32859799699004
 20
146.7823586117356
 30
0.0
 10
-80.48264778847924
 20
147.0105304715363
 30
0.0
 10
-80.68787607600238
 20
147.1870951679391
 30
0.0
 10
-81.03563841682318
 20
147.3649963454481
 30
0.0
 10
-81.34389722026576
 20
147.3916136481888
 30
0.0
 10
-81.55014599609532
 20
147.3970072302695
 30
0.0
  0
LINE
  5
C0
330
1F
100
AcDbEntity
  8
0
  6
Continuous
 62
     7
370
    25
100
AcDbLine
 10
-85.4574662016
 20
149.8627606549
 30
0.0
 11
-81.8615757906
 21
149.8627606549
 31
0.0
  0
LINE
  5
C1
330
1F
100
AcDbEntity
  8
0
  6
Continuous
 62
     7
370
    25
100
AcDbLine
 10
-84.8410278454
 20
147.3970072303
 30
0.0
 11
-85.9551117495
 21
147.3970072303
 31
0.0
  0
LINE
  5
C2
330
1F
100
AcDbEntity
  8
0
  6
Continuous
 62
     7
370
    25
100
AcDbLine
 10
-88.5974490783
 20
138.115115107
 30
0.0
 11
-84.8410278454
 21
147.3970072303
 31
0.0
  0
LINE
  5
C3
330
1F
100
AcDbEntity
  8
0
  6
Continuous
 62
     7
370
    25
100
AcDbLine
 10
-84.0929542153
 20
141.5472640796
 30
0.0
 11
-85.5505740783
 21
138.0059541481
 31
0.0
  0
LINE
  5
C4
330
1F
100
AcDbEntity
  8
0
  6
Continuous
 62
     7
370
    25
100
AcDbLine
 10
-80.9626031879
 20
134.1146870248
 30
0.0
 11
-84.0929542153
 21
141.5472640796
 31
0.0
  0
LINE
  5
C5
330
1F
100
AcDbEntity
  8
0
  6
Continuous
 62
     7
370
    25
100
AcDbLine
 10
-73.1062247632
 20
132.1915277782
 30
0.0
 11
-78.1019439413
 21
132.1915277782
 31
0.0
  0
LINE
  5
C6
330
1F
100
AcDbEntity
  8
0
  6
Continuous
 62
     7
370
    25
100
AcDbLine
 10
-77.5593497632
 20
134.6572812029
 30
0.0
 11
-72.5957367495
 21
134.6572812029
 31
0.0
  0
LINE
  5
C7
330
1F
100
AcDbEntity
  8
0
  6
Continuous
 62
     7
370
    25
100
AcDbLine
 10
-81.0043412016
 20
141.1170414768
 30
0.0
 11
-78.7183822975
 21
135.7039421618
 31
0.0
  0
LINE
  5
C8
330
1F
100
AcDbEntity
  8
0
  6
Continuous
 62
     7
370
    25
100
AcDbLine
 10
0.0
 20
235.0
 30
0.0
 11
-5.0
 21
240.0
 31
0.0
  0
LINE
  5
C9
330
1F
100
AcDbEntity
  8
0
  6
Continuous
 62
     7
370
    25
100
AcDbLine
 10
-5.0
 20
80.0
 30
0.0
 11
0.0
 21
85.0
 31
0.0
  0
LINE
  5
CA
330
1F
100
AcDbEntity
  8
0
  6
Continuous
 62
     7
370
    25
100
AcDbLine
 10
-67.5
 20
40.0
 30
0.0
 11
-27.5
 21
80.0
 31
0.0
  0
LINE
  5
CB
330
1F
100
AcDbEntity
  8
0
  6
Continuous
 62
     7
370
    25
100
AcDbLine
 10
-72.5
 20
0.0
 30
0.0
 11
-67.5
 21
5.0
 31
0.0
  0
LINE
  5
CC
330
1F
100
AcDbEntity
  8
0
  6
Continuous
 62
     7
370
    25
100
AcDbLine
 10
-157.5
 20
5.0
 30
0.0
 11
-152.5
 21
0.0
 31
0.0
  0
LINE
  5
CD
330
1F
100
AcDbEntity
  8
0
  6
Continuous
 62
     7
370
    25
100
AcDbLine
 10
-45.0
 20
240.0
 30
0.0
 11
-66.5384615385
 21
218.4615384615
 31
0.0
  0
LINE
  5
CE
330
1F
100
AcDbEntity
  8
0
  6
Continuous
 62
     7
370
    25
100
AcDbLine
 10
-5.0
 20
80.0
 30
0.0
 11
-27.5
 21
80.0
 31
0.0
  0
LINE
  5
CF
330
1F
100
AcDbEntity
  8
0
  6
Continuous
 62
     7
370
    25
100
AcDbLine
 10
0.0
 20
235.0
 30
0.0
 11
0.0
 21
85.0
 31
0.0
  0
LINE
  5
D0
330
1F
100
AcDbEntity
  8
0
  6
Continuous
 62
     7
370
    25
100
AcDbLine
 10
-45.0
 20
240.0
 30
0.0
 11
-5.0
 21
240.0
 31
0.0
  0
LINE
  5
D1
330
1F
100
AcDbEntity
  8
0
  6
Continuous
 62
     7
370
    25
100
AcDbLine
 10
-157.5
 20
100.0
 30
0.0
 11
-66.5384615385
 21
218.4615384615
 31
0.0
  0
LINE
  5
D2
330
1F
100
AcDbEntity
  8
0
  6
Continuous
 62
     7
370
    25
100
AcDbLine
 10
-157.5
 20
5.0
 30
0.0
 11
-157.5
 21
100.0
 31
0.0
  0
LINE
  5
D3
330
1F
100
AcDbEntity
  8
0
  6
Continuous
 62
     7
370
    25
100
AcDbLine
 10
-72.5
 20
0.0
 30
0.0
 11
-152.5
 21
0.0
 31
0.0
  0
LINE
  5
D4
330
1F
100
AcDbEntity
  8
0
  6
Continuous
 62
     7
370
    25
100
AcDbLine
 10
-67.5
 20
40.0
 30
0.0
 11
-67.5
 21
5.0
 31
0.0
  0
LINE
  5
D5
330
1F
100
AcDbEntity
  8
0
  6
Continuous
 62
     7
370
    25
100
AcDbLine
 10
-83.4411990783
 20
143.1365192166
 30
0.0
 11
-83.1297692838
 21
143.1589935316
 31
0.0
  0
LINE
  5
D6
330
1F
100
AcDbEntity
  8
0
  6
Continuous
 62
     7
370
    25
100
AcDbLine
 10
-81.7845209961
 20
147.3970072303
 30
0.0
 11
-83.4411990783
 21
143.1365192166
 31
0.0
  0
LINE
  5
D7
330
1F
100
AcDbEntity
  8
0
  6
Continuous
 62
     7
370
    25
100
AcDbLine
 10
-81.5501459961
 20
147.3970072303
 30
0.0
 11
-81.7845209961
 21
147.3970072303
 31
0.0
  0
ENDSEC
  0
SECTION
  2
OBJECTS
  0
DICTIONARY
  5
C
330
0
100
AcDbDictionary
281
     1
  3
ACAD_GROUP
350
D
  3
ACAD_LAYOUT
350
1A
  3
ACAD_MLINESTYLE
350
17
  3
ACAD_PLOTSETTINGS
350
19
  3
ACAD_PLOTSTYLENAME
350
E
  3
ACAD_SCALELIST
350
47
  3
DWGPROPS
350
D8
  0
DICTIONARY
  5
D
102
{ACAD_REACTORS
330
C
102
}
330
C
100
AcDbDictionary
281
     1
  0
DICTIONARY
  5
1A
102
{ACAD_REACTORS
330
C
102
}
330
C
100
AcDbDictionary
281
     1
  3
Layout1
350
1E
  3
Layout2
350
26
  3
Model
350
22
  0
DICTIONARY
  5
17
102
{ACAD_REACTORS
330
C
102
}
330
C
100
AcDbDictionary
281
     1
  3
Standard
350
18
  0
DICTIONARY
  5
19
102
{ACAD_REACTORS
330
C
102
}
330
C
100
AcDbDictionary
281
     1
  0
ACDBDICTIONARYWDFLT
  5
E
102
{ACAD_REACTORS
330
C
102
}
330
C
100
AcDbDictionary
281
     1
  3
Normal
350
F
100
AcDbDictionaryWithDefault
340
F
  0
DICTIONARY
  5
47
102
{ACAD_REACTORS
330
C
102
}
330
C
100
AcDbDictionary
281
     1
  3
A0
350
48
  3
A1
350
49
  3
A2
350
4A
  3
A3
350
4B
  3
A4
350
4C
  3
A5
350
4D
  3
A6
350
4E
  3
A7
350
4F
  3
A8
350
50
  3
A9
350
51
  3
B0
350
52
  3
B1
350
53
  3
B2
350
54
  3
B3
350
55
  3
B4
350
56
  3
B5
350
57
  3
B6
350
58
  3
B7
350
59
  3
B8
350
5A
  3
B9
350
5B
  3
C0
350
5C
  3
C1
350
5D
  3
C2
350
5E
  3
C3
350
5F
  3
C4
350
60
  3
C5
350
61
  3
C6
350
62
  3
C7
350
63
  3
C8
350
64
  3
C9
350
65
  3
D0
350
66
  3
D1
350
67
  3
D2
350
68
  0
XRECORD
  5
D8
102
{ACAD_REACTORS
330
C
102
}
330
C
100
AcDbXrecord
280
     1
  1
DWGPROPS COOKIE
  2

  3

  4

  6

  7

  8
sailo
  9

300
=
301
=
302
=
303
=
304
=
305
=
306
=
307
=
308
=
309
=
 40
0.0
 41
2459341.472583669
 42
2459341.472835648
  1

 90
        0
  0
LAYOUT
  5
1E
102
{ACAD_REACTORS
330
1A
102
}
330
1A
100
AcDbPlotSettings
  1

  2
none_device
  4

  6

 40
0.0
 41
0.0
 42
0.0
 43
0.0
 44
0.0
 45
0.0
 46
0.0
 47
0.0
 48
0.0
 49
0.0
140
0.0
141
0.0
142
1.0
143
1.0
 70
   688
 72
     1
 73
     0
 74
     5
  7

 75
    16
147
1.0
148
0.0
149
0.0
100
AcDbLayout
  1
Layout1
 70
     1
 71
     1
 10
0.0
 20
0.0
 11
420.0
 21
297.0
 12
0.0
 22
0.0
 32
0.0
 14
1.0000000000E+20
 24
1.0000000000E+20
 34
1.0000000000E+20
 15
-1.0000000000E+20
 25
-1.0000000000E+20
 35
-1.0000000000E+20
146
0.0
 13
0.0
 23
0.0
 33
0.0
 16
1.0
 26
0.0
 36
0.0
 17
0.0
 27
1.0
 37
0.0
 76
     0
330
1B
  0
LAYOUT
  5
26
102
{ACAD_REACTORS
330
1A
102
}
330
1A
100
AcDbPlotSettings
  1

  2
none_device
  4

  6

 40
0.0
 41
0.0
 42
0.0
 43
0.0
 44
0.0
 45
0.0
 46
0.0
 47
0.0
 48
0.0
 49
0.0
140
0.0
141
0.0
142
1.0
143
1.0
 70
   688
 72
     1
 73
     0
 74
     5
  7

 75
    16
147
1.0
148
0.0
149
0.0
100
AcDbLayout
  1
Layout2
 70
     1
 71
     2
 10
0.0
 20
0.0
 11
0.0
 21
0.0
 12
0.0
 22
0.0
 32
0.0
 14
0.0
 24
0.0
 34
0.0
 15
0.0
 25
0.0
 35
0.0
146
0.0
 13
0.0
 23
0.0
 33
0.0
 16
1.0
 26
0.0
 36
0.0
 17
0.0
 27
1.0
 37
0.0
 76
     0
330
23
  0
LAYOUT
  5
22
102
{ACAD_REACTORS
330
1A
102
}
330
1A
100
AcDbPlotSettings
  1

  2
none_device
  4
ANSI_A_(11.00_x_8.50_Inches)
  6

 40
6.35
 41
19.05
 42
6.35000508
 43
19.05000254
 44
279.4
 45
215.9
 46
203.483763085
 47
-17.97050127
 48
0.0
 49
0.0
140
0.0
141
0.0
142
0.0350625
143
1.0
 70
  1696
 72
     0
 73
     0
 74
     0
  7

 75
     0
147
0.0179189148
148
-1300.4909072572
149
0.0
100
AcDbLayout
  1
Model
 70
     1
 71
     0
 10
0.0
 20
0.0
 11
420.0
 21
297.0
 12
0.0
 22
0.0
 32
0.0
 14
-157.5
 24
0.0
 34
0.0
 15
0.0
 25
240.0
 35
0.0
146
0.0
 13
0.0
 23
0.0
 33
0.0
 16
1.0
 26
0.0
 36
0.0
 17
0.0
 27
1.0
 37
0.0
 76
     0
330
1F
331
29
  0
MLINESTYLE
  5
18
102
{ACAD_REACTORS
330
17
102
}
330
17
100
AcDbMlineStyle
  2
Standard
 70
     0
  3

 62
   256
 51
90.0
 52
90.0
 71
     2
 49
0.5
 62
   256
  6
BYLAYER
 49
-0.5
 62
   256
  6
BYLAYER
  0
ACDBPLACEHOLDER
  5
F
102
{ACAD_REACTORS
330
E
102
}
330
E
  0
SCALE
  5
48
102
{ACAD_REACTORS
330
47
102
}
330
47
100
AcDbScale
 70
     0
300
1:1
140
1.0
141
1.0
290
     1
  0
SCALE
  5
49
102
{ACAD_REACTORS
330
47
102
}
330
47
100
AcDbScale
 70
     0
300
1:2
140
1.0
141
2.0
290
     0
  0
SCALE
  5
4A
102
{ACAD_REACTORS
330
47
102
}
330
47
100
AcDbScale
 70
     0
300
1:4
140
1.0
141
4.0
290
     0
  0
SCALE
  5
4B
102
{ACAD_REACTORS
330
47
102
}
330
47
100
AcDbScale
 70
     0
300
1:5
140
1.0
141
5.0
290
     0
  0
SCALE
  5
4C
102
{ACAD_REACTORS
330
47
102
}
330
47
100
AcDbScale
 70
     0
300
1:8
140
1.0
141
8.0
290
     0
  0
SCALE
  5
4D
102
{ACAD_REACTORS
330
47
102
}
330
47
100
AcDbScale
 70
     0
300
1:10
140
1.0
141
10.0
290
     0
  0
SCALE
  5
4E
102
{ACAD_REACTORS
330
47
102
}
330
47
100
AcDbScale
 70
     0
300
1:16
140
1.0
141
16.0
290
     0
  0
SCALE
  5
4F
102
{ACAD_REACTORS
330
47
102
}
330
47
100
AcDbScale
 70
     0
300
1:20
140
1.0
141
20.0
290
     0
  0
SCALE
  5
50
102
{ACAD_REACTORS
330
47
102
}
330
47
100
AcDbScale
 70
     0
300
1:30
140
1.0
141
30.0
290
     0
  0
SCALE
  5
51
102
{ACAD_REACTORS
330
47
102
}
330
47
100
AcDbScale
 70
     0
300
1:40
140
1.0
141
40.0
290
     0
  0
SCALE
  5
52
102
{ACAD_REACTORS
330
47
102
}
330
47
100
AcDbScale
 70
     0
300
1:50
140
1.0
141
50.0
290
     0
  0
SCALE
  5
53
102
{ACAD_REACTORS
330
47
102
}
330
47
100
AcDbScale
 70
     0
300
1:100
140
1.0
141
100.0
290
     0
  0
SCALE
  5
54
102
{ACAD_REACTORS
330
47
102
}
330
47
100
AcDbScale
 70
     0
300
2:1
140
2.0
141
1.0
290
     0
  0
SCALE
  5
55
102
{ACAD_REACTORS
330
47
102
}
330
47
100
AcDbScale
 70
     0
300
4:1
140
4.0
141
1.0
290
     0
  0
SCALE
  5
56
102
{ACAD_REACTORS
330
47
102
}
330
47
100
AcDbScale
 70
     0
300
8:1
140
8.0
141
1.0
290
     0
  0
SCALE
  5
57
102
{ACAD_REACTORS
330
47
102
}
330
47
100
AcDbScale
 70
     0
300
10:1
140
10.0
141
1.0
290
     0
  0
SCALE
  5
58
102
{ACAD_REACTORS
330
47
102
}
330
47
100
AcDbScale
 70
     0
300
100:1
140
100.0
141
1.0
290
     0
  0
SCALE
  5
59
102
{ACAD_REACTORS
330
47
102
}
330
47
100
AcDbScale
 70
     0
300
1/128" = 1'-0"
140
0.0078125
141
12.0
290
     0
  0
SCALE
  5
5A
102
{ACAD_REACTORS
330
47
102
}
330
47
100
AcDbScale
 70
     0
300
1/64" = 1'-0"
140
0.015625
141
12.0
290
     0
  0
SCALE
  5
5B
102
{ACAD_REACTORS
330
47
102
}
330
47
100
AcDbScale
 70
     0
300
1/32" = 1'-0"
140
0.03125
141
12.0
290
     0
  0
SCALE
  5
5C
102
{ACAD_REACTORS
330
47
102
}
330
47
100
AcDbScale
 70
     0
300
1/16" = 1'-0"
140
0.0625
141
12.0
290
     0
  0
SCALE
  5
5D
102
{ACAD_REACTORS
330
47
102
}
330
47
100
AcDbScale
 70
     0
300
3/32" = 1'-0"
140
0.09375
141
12.0
290
     0
  0
SCALE
  5
5E
102
{ACAD_REACTORS
330
47
102
}
330
47
100
AcDbScale
 70
     0
300
1/8" = 1'-0"
140
0.125
141
12.0
290
     0
  0
SCALE
  5
5F
102
{ACAD_REACTORS
330
47
102
}
330
47
100
AcDbScale
 70
     0
300
3/16" = 1'-0"
140
0.1875
141
12.0
290
     0
  0
SCALE
  5
60
102
{ACAD_REACTORS
330
47
102
}
330
47
100
AcDbScale
 70
     0
300
1/4" = 1'-0"
140
0.25
141
12.0
290
     0
  0
SCALE
  5
61
102
{ACAD_REACTORS
330
47
102
}
330
47
100
AcDbScale
 70
     0
300
3/8" = 1'-0"
140
0.375
141
12.0
290
     0
  0
SCALE
  5
62
102
{ACAD_REACTORS
330
47
102
}
330
47
100
AcDbScale
 70
     0
300
1/2" = 1'-0"
140
0.5
141
12.0
290
     0
  0
SCALE
  5
63
102
{ACAD_REACTORS
330
47
102
}
330
47
100
AcDbScale
 70
     0
300
3/4" = 1'-0"
140
0.75
141
12.0
290
     0
  0
SCALE
  5
64
102
{ACAD_REACTORS
330
47
102
}
330
47
100
AcDbScale
 70
     0
300
1" = 1'-0"
140
1.0
141
12.0
290
     0
  0
SCALE
  5
65
102
{ACAD_REACTORS
330
47
102
}
330
47
100
AcDbScale
 70
     0
300
1-1/2" = 1'-0"
140
1.5
141
12.0
290
     0
  0
SCALE
  5
66
102
{ACAD_REACTORS
330
47
102
}
330
47
100
AcDbScale
 70
     0
300
3" = 1'-0"
140
3.0
141
12.0
290
     0
  0
SCALE
  5
67
102
{ACAD_REACTORS
330
47
102
}
330
47
100
AcDbScale
 70
     0
300
6" = 1'-0"
140
6.0
141
12.0
290
     0
  0
SCALE
  5
68
102
{ACAD_REACTORS
330
47
102
}
330
47
100
AcDbScale
 70
     0
300
1'-0" = 1'-0"
140
12.0
141
12.0
290
     0
  0
ENDSEC
  0
EOF
