0
SECTION
2
HEADER
9
$INSUNITS
70
1
9
$ACADVER
1
AC1014
9
$HANDSEED
5
FFFF
0
ENDSEC
0
SECTION
2
TABLES
0
TABLE
2
VPORT
5
8
100
AcDbSymbolTable
0
ENDTAB
0
TABLE
2
LTYPE
5
5
100
AcDbSymbolTable
0
LTYPE
5
14
100
AcDbSymbolTableRecord
100
AcDbLinetypeTableRecord
2
BYBLOCK
70
0
0
LTYPE
5
15
100
AcDbSymbolTableRecord
100
AcDbLinetypeTableRecord
2
BYLAYER
70
0
0
ENDTAB
0
TABLE
2
LAYER
5
2
100
AcDbSymbolTable
70
2
0
LAYER
5
50
100
AcDbSymbolTableRecord
100
AcDbLayerTableRecord
2
0
70
0
6
CONTINUOUS
0
ENDTAB
0
TABLE
2
STYLE
5
3
100
AcDbSymbolTable
70
1
0
STYLE
5
11
100
AcDbSymbolTableRecord
100
AcDbTextStyleTableRecord
2
STANDARD
70
0
0
ENDTAB
0
TABLE
2
VIEW
5
6
100
AcDbSymbolTable
70
0
0
ENDTAB
0
TABLE
2
UCS
5
7
100
AcDbSymbolTable
70
0
0
ENDTAB
0
TABLE
2
APPID
5
9
100
AcDbSymbolTable
70
2
0
APPID
5
12
100
AcDbSymbolTableRecord
100
AcDbRegAppTableRecord
2
ACAD
70
0
0
ENDTAB
0
TABLE
2
DIMSTYLE
5
A
100
AcDbSymbolTable
70
1
0
ENDTAB
0
TABLE
2
BLOCK_RECORD
5
1
100
AcDbSymbolTable
70
1
0
BLOCK_RECORD
5
1F
100
AcDbSymbolTableRecord
100
AcDbBlockTableRecord
2
*MODEL_SPACE
0
BLOCK_RECORD
5
1B
100
AcDbSymbolTableRecord
100
AcDbBlockTableRecord
2
*PAPER_SPACE
0
ENDTAB
0
ENDSEC
0
SECTION
2
BLOCKS
0
BLOCK
5
20
100
AcDbEntity
100
AcDbBlockBegin
2
*MODEL_SPACE
0
ENDBLK
5
21
100
AcDbEntity
100
AcDbBlockEnd
0
BLOCK
5
1C
100
AcDbEntity
100
AcDbBlockBegin
2
*PAPER_SPACE
0
ENDBLK
5
1D
100
AcDbEntity
100
AcDbBlockEnd
0
ENDSEC
0
SECTION
2
ENTITIES
0
LWPOLYLINE
5
100
100
AcDbEntity
8
0
100
AcDbPolyline
90
12
70
1
43
0.0
10
3.4005111553625271
20
-0.94488188976370246
42
-7.8729833462238688
10
3.4005111553625271
20
-0.86614173228354163
10
4.409448818897638
20
-0.86614173228346425
10
4.409448818897638
20
4.6062992125984259
10
0.03937007874015748
20
4.606299212598425
10
0.039370078740157514
20
-0.86614173228346458
10
0.93019750605484119
20
-0.86614173228339286
42
-7.8729833461927932
10
0.9301975060551182
20
-0.94488188976377963
10
0.03937007874015748
20
-0.94488188976377963
10
0.039370078740157334
20
-6.4173228346456694
10
4.409448818897638
20
-6.4173228346456694
10
4.409448818897638
20
-0.94488188976377963
0
SPLINE
5
101
100
AcDbEntity
8
0
100
AcDbSpline
70
0
71
3
72
11
73
7
74
0
42
0.000000001
43
0.0000000001
44
0.0000000001
40
0
40
0
40
0
40
0
40
0.19740256871390111
40
0.4285569550718264
40
0.69558822396816189
40
1
40
1
40
1
40
1
10
-0.48673282278071328
20
-8.0246029284866776
30
0
10
-0.48705424205587877
20
-8.0313675108698543
30
0
10
-0.48775203675411255
20
-8.0460532814115187
30
0
10
-0.49311171377031926
20
-8.0693588291870402
30
0
10
-0.50092470806097544
20
-8.0957147409496226
30
0
10
-0.50799439186683104
20
-8.1139749351456647
30
0
10
-0.51176046273325349
20
-8.123702270520976
30
0
0
CIRCLE
5
102
100
AcDbEntity
8
0
100
AcDbCircle
10
9.0354330708661426
20
-8.4645669291338574
30
0
40
0.068897637795275593
210
0
220
0
230
1
0
CIRCLE
5
103
100
AcDbEntity
8
0
100
AcDbCircle
10
5.4133858267716528
20
-5.2362204724409445
30
0
40
0.15748031496062881
210
0
220
0
230
1
0
CIRCLE
5
104
100
AcDbEntity
8
0
100
AcDbCircle
10
-8.0511811023622055
20
8.4645669291338574
30
0
40
0.068897637795275593
210
0
220
0
230
1
0
SPLINE
5
105
100
AcDbEntity
8
0
100
AcDbSpline
70
0
71
3
72
15
73
11
74
0
42
0.000000001
43
0.0000000001
44
0.0000000001
40
0
40
0
40
0
40
0
40
0.12656719299673269
40
0.2438510141687639
40
0.35454695916978152
40
0.46843404224640411
40
0.58717666527500278
40
0.71210842646169747
40
0.8487159137196062
40
1
40
1
40
1
40
1
10
2.3867436091036578
20
-8.8419196958256894
30
0
10
2.3863486766015019
20
-8.8504823755154067
30
0
10
2.3855877788609514
20
-8.8669796847856954
30
0
10
2.3785963051698511
20
-8.8901305227004688
30
0
10
2.3671875220683605
20
-8.9104399932237399
30
0
10
2.3508548974712822
20
-8.927191989085296
30
0
10
2.3306814061446386
20
-8.9407991411584362
30
0
10
2.3065342977071852
20
-8.9499567825874831
30
0
10
2.2791761995761122
20
-8.9559769095390749
30
0
10
2.2597035007183748
20
-8.9564462695081257
30
0
10
2.2494707960306344
20
-8.9566929133858224
30
0
0
SPLINE
5
106
100
AcDbEntity
8
0
100
AcDbSpline
70
0
71
3
72
15
73
11
74
0
42
0.000000001
43
0.0000000001
44
0.0000000001
40
0
40
0
40
0
40
0
40
0.16395646102580111
40
0.31533855641668351
40
0.45403941223416278
40
0.58147928397662252
40
0.69808419336632366
40
0.80563824587676369
40
0.90567397649647918
40
1
40
1
40
1
40
1
10
-0.81487299104735111
20
-8.0215692751590932
30
0
10
-0.80578791998947052
20
-8.012365444334641
30
0
10
-0.78831454215238494
20
-7.9946636550454064
30
0
10
-0.76155518847522408
20
-7.9708194963272172
30
0
10
-0.73542709530969341
20
-7.9507388202755269
30
0
10
-0.71019807578553351
20
-7.9340992698673425
30
0
10
-0.68552617609140276
20
-7.9213007022578621
30
0
10
-0.66164217608883458
20
-7.9121051055000029
30
0
10
-0.63846108757370346
20
-7.9060656934786424
30
0
10
-0.6231121213296984
20
-7.905365997231228
30
0
10
-0.61566308920289015
20
-7.9050264264912045
30
0
0
SPLINE
5
107
100
AcDbEntity
8
0
100
AcDbSpline
70
0
71
3
72
15
73
11
74
0
42
0.000000001
43
0.0000000001
44
0.0000000001
40
0
40
0
40
0
40
0
40
0.1755958676250618
40
0.32800834455745731
40
0.46216616733052007
40
0.57913770863331637
40
0.68513416781190617
40
0.78481538429915743
40
0.8884854142883476
40
1
40
1
40
1
40
1
10
2.4021646801855265
20
-8.3095135368352917
30
0
10
2.4111168696959826
20
-8.3096144546172788
30
0
10
2.4278393182433451
20
-8.3098029663120894
30
0
10
2.4511098361515331
20
-8.313551733343024
30
0
10
2.4711208042884754
20
-8.3186381405684422
30
0
10
2.4873992688991522
20
-8.3269811137993734
30
0
10
2.5005974615816999
20
-8.3370316758007146
30
0
10
2.5098367960812369
20
-8.3500614173099557
30
0
10
2.515267005975538
20
-8.3653962099215882
30
0
10
2.5158680215923992
20
-8.3763775696436635
30
0
10
2.5161794844137648
20
-8.3820684122532594
30
0
0
CIRCLE
5
108
100
AcDbEntity
8
0
100
AcDbCircle
10
-5.4133858267716528
20
-7.4015748031496056
30
0
40
0.1574803149606277
210
0
220
0
230
1
0
CIRCLE
5
109
100
AcDbEntity
8
0
100
AcDbCircle
10
5.4133858267716528
20
3.4251968503937009
30
0
40
0.15748031496062992
210
0
220
0
230
1
0
CIRCLE
5
110
100
AcDbEntity
8
0
100
AcDbCircle
10
9.0354330708661426
20
8.4645669291338574
30
0
40
0.068897637795275593
210
0
220
0
230
1
0
CIRCLE
5
111
100
AcDbEntity
8
0
100
AcDbCircle
10
-1.0826771653543306
20
5.590551181102362
30
0
40
0.15748031496062992
210
0
220
0
230
1
0
CIRCLE
5
112
100
AcDbEntity
8
0
100
AcDbCircle
10
-9.0354330708661426
20
-8.4645669291338574
30
0
40
0.068897637795276689
210
0
220
0
230
1
0
CIRCLE
5
113
100
AcDbEntity
8
0
100
AcDbCircle
10
-9.0354330708661426
20
8.4645669291338574
30
0
40
0.068897637795281172
210
0
220
0
230
1
0
CIRCLE
5
114
100
AcDbEntity
8
0
100
AcDbCircle
10
9.0354330708661426
20
7.4803149606299204
30
0
40
0.068897637795275593
210
0
220
0
230
1
0
CIRCLE
5
115
100
AcDbEntity
8
0
100
AcDbCircle
10
-8.0511811023622055
20
-8.4645669291338574
30
0
40
0.068897637795275593
210
0
220
0
230
1
0
SPLINE
5
116
100
AcDbEntity
8
0
100
AcDbSpline
70
0
71
3
72
15
73
11
74
0
42
0.000000001
43
0.0000000001
44
0.0000000001
40
0
40
0
40
0
40
0
40
0.14750574223701129
40
0.28394387103442109
40
0.41082006313027541
40
0.52975818610719771
40
0.64580934404012624
40
0.76008924269747558
40
0.8775083987125315
40
1
40
1
40
1
40
1
10
-0.81082811994391057
20
-8.8626496602308222
30
0
10
-0.81421623549362332
20
-8.870057164482267
30
0
10
-0.82073825036645198
20
-8.8843163750049357
30
0
10
-0.83260553927179692
20
-8.9037219201543927
30
0
10
-0.84605890024709995
20
-8.9200650931754399
30
0
10
-0.86093913799188826
20
-8.9335019418791539
30
0
10
-0.87722272127115075
20
-8.943993436777232
30
0
10
-0.89500077592270966
20
-8.9514682617337016
30
0
10
-0.91418708979292918
20
-8.9557990416754585
30
0
10
-0.9274334660624628
20
-8.9563907857242526
30
0
10
-0.93419668859885607
20
-8.9566929133858224
30
0
0
CIRCLE
5
117
100
AcDbEntity
8
0
100
AcDbCircle
10
-5.4133858267716528
20
-5.2362204724409445
30
0
40
0.15748031496062656
210
0
220
0
230
1
0
SPLINE
5
118
100
AcDbEntity
8
0
100
AcDbSpline
70
0
71
3
72
15
73
11
74
0
42
0.000000001
43
0.0000000001
44
0.0000000001
40
0
40
0
40
0
40
0
40
0.155207368337692
40
0.29592323957323491
40
0.42488961854513763
40
0.5464809670397397
40
0.66215426735360339
40
0.77147423571524532
40
0.88222186865655938
40
1
40
1
40
1
40
1
10
2.0967769118757427
20
-8.9566929133858224
30
0
10
2.0860414580296878
20
-8.956442747294135
30
0
10
2.0655729048002964
20
-8.9559657727723891
30
0
10
2.0367069274122436
20
-8.9499615442008906
30
0
10
2.011164698878642
20
-8.9407727655467752
30
0
10
1.9894251619865309
20
-8.9275126223210517
30
0
10
1.9717105354863409
20
-8.9111306416357721
30
0
10
1.9588324103351753
20
-8.8915721503443077
30
0
10
1.9512843404476461
20
-8.8691614442738942
30
0
10
1.9503691848949762
20
-8.8533533601614796
30
0
10
1.9498975299320476
20
-8.8452061535972373
30
0
0
CIRCLE
5
119
100
AcDbEntity
8
0
100
AcDbCircle
10
5.4133858267716528
20
-3.0708661417322833
30
0
40
0.15748031496063045
210
0
220
0
230
1
0
CIRCLE
5
120
100
AcDbEntity
8
0
100
AcDbCircle
10
8.0511811023622055
20
7.4803149606299204
30
0
40
0.068897637795275593
210
0
220
0
230
1
0
CIRCLE
5
121
100
AcDbEntity
8
0
100
AcDbCircle
10
5.4133858267716528
20
-0.9055118110236221
30
0
40
0.15748031496063036
210
0
220
0
230
1
0
CIRCLE
5
122
100
AcDbEntity
8
0
100
AcDbCircle
10
-5.4133858267716528
20
1.2598425196850394
30
0
40
0.15748031496062684
210
0
220
0
230
1
0
CIRCLE
5
123
100
AcDbEntity
8
0
100
AcDbCircle
10
-9.0354330708661426
20
-7.4803149606299204
30
0
40
0.068897637795276689
210
0
220
0
230
1
0
SPLINE
5
124
100
AcDbEntity
8
0
100
AcDbSpline
70
0
71
3
72
15
73
11
74
0
42
0.000000001
43
0.0000000001
44
0.0000000001
40
0
40
0
40
0
40
0
40
0.16202170635279811
40
0.30380947275076031
40
0.42955149331789061
40
0.54467919193875569
40
0.6517816671350547
40
0.75895327192945738
40
0.87221306963341572
40
1
40
1
40
1
40
1
10
2.285369027073672
20
-8.7625391004206659
30
0
10
2.2933115817925316
20
-8.7627346997772264
30
0
10
2.3082047921885303
20
-8.7631014712347408
30
0
10
2.3289436768650233
20
-8.7669867294259767
30
0
10
2.3468656653174778
20
-8.7728071876422717
30
0
10
2.3615225535440114
20
-8.7817782700156073
30
0
10
2.373202328353099
20
-8.793172791894623
30
0
10
2.381063448777144
20
-8.8073394025559377
30
0
10
2.3861208044670823
20
-8.8238001535827788
30
0
10
2.3865278308228381
20
-8.8356419588841106
30
0
10
2.3867436091036578
20
-8.8419196958256894
30
0
0
SPLINE
5
125
100
AcDbEntity
8
0
100
AcDbSpline
70
0
71
3
72
11
73
7
74
0
42
0.000000001
43
0.0000000001
44
0.0000000001
40
0
40
0
40
0
40
0
40
0.18178628593912061
40
0.40680054961467288
40
0.68011027830983606
40
1
40
1
40
1
40
1
10
-1.020655808434904
20
-8.8768067090928664
30
0
10
-1.0203597924417058
20
-8.8717341905921518
30
0
10
-1.0196973691565512
20
-8.8603829310438265
30
0
10
-1.0154421709317991
20
-8.8418179613371173
30
0
10
-1.0091582980787357
20
-8.8198651805169757
30
0
10
-1.0034887973208229
20
-8.8043019438823844
30
0
10
-1.0004314529176999
20
-8.7959092870240525
30
0
0
CIRCLE
5
126
100
AcDbEntity
8
0
100
AcDbCircle
10
8.0511811023622055
20
-7.4803149606299204
30
0
40
0.068897637795276689
210
0
220
0
230
1
0
CIRCLE
5
127
100
AcDbEntity
8
0
100
AcDbCircle
10
5.4133858267716528
20
-7.4015748031496056
30
0
40
0.15748031496062881
210
0
220
0
230
1
0
CIRCLE
5
128
100
AcDbEntity
8
0
100
AcDbCircle
10
8.0511811023622055
20
8.4645669291338574
30
0
40
0.068897637795275593
210
0
220
0
230
1
0
CIRCLE
5
129
100
AcDbEntity
8
0
100
AcDbCircle
10
5.4133858267716528
20
1.2598425196850394
30
0
40
0.15748031496063036
210
0
220
0
230
1
0
CIRCLE
5
130
100
AcDbEntity
8
0
100
AcDbCircle
10
-5.4133858267716528
20
-0.9055118110236221
30
0
40
0.15748031496062667
210
0
220
0
230
1
0
CIRCLE
5
131
100
AcDbEntity
8
0
100
AcDbCircle
10
-3.2480314960629917
20
5.590551181102362
30
0
40
0.15748031496062992
210
0
220
0
230
1
0
CIRCLE
5
132
100
AcDbEntity
8
0
100
AcDbCircle
10
-8.0511811023622055
20
7.4803149606299204
30
0
40
0.068897637795275593
210
0
220
0
230
1
0
CIRCLE
5
133
100
AcDbEntity
8
0
100
AcDbCircle
10
9.0354330708661426
20
-7.4803149606299204
30
0
40
0.068897637795275593
210
0
220
0
230
1
0
CIRCLE
5
134
100
AcDbEntity
8
0
100
AcDbCircle
10
5.4133858267716528
20
5.590551181102362
30
0
40
0.15748031496062881
210
0
220
0
230
1
0
CIRCLE
5
135
100
AcDbEntity
8
0
100
AcDbCircle
10
-9.0354330708661426
20
7.4803149606299204
30
0
40
0.068897637795281172
210
0
220
0
230
1
0
CIRCLE
5
136
100
AcDbEntity
8
0
100
AcDbCircle
10
-5.4133858267716528
20
5.590551181102362
30
0
40
0.1574803149606277
210
0
220
0
230
1
0
SPLINE
5
137
100
AcDbEntity
8
0
100
AcDbSpline
70
0
71
3
72
15
73
11
74
0
42
0.000000001
43
0.0000000001
44
0.0000000001
40
0
40
0
40
0
40
0
40
0.1524987930983043
40
0.28924930367927443
40
0.41572283638635588
40
0.53486820020329906
40
0.64936128130261228
40
0.76024105989513979
40
0.8753076122874961
40
1
40
1
40
1
40
1
10
-1.1513557059648361
20
-8.7301801315931389
30
0
10
-1.1632748423676471
20
-8.729784486376424
30
0
10
-1.1858822468914918
20
-8.729034053529622
30
0
10
-1.2177956618078953
20
-8.7223282776242712
30
0
10
-1.245880098028908
20
-8.711690521572196
30
0
10
-1.2694887624902305
20
-8.6960026077555668
30
0
10
-1.2884961315796954
20
-8.6766867740228317
30
0
10
-1.302447500420342
20
-8.6537540834738902
30
0
10
-1.3103264794089744
20
-8.6271976023708294
30
0
10
-1.3113527771338291
20
-8.6084644473417704
30
0
10
-1.3118865278826441
20
-8.5987218207313116
30
0
0
SPLINE
5
138
100
AcDbEntity
8
0
100
AcDbSpline
70
0
71
3
72
15
73
11
74
0
42
0.000000001
43
0.0000000001
44
0.0000000001
40
0
40
0
40
0
40
0
40
0.13441105204323939
40
0.26257402897423737
40
0.38590389777880751
40
0.51193072993554212
40
0.63606580774214116
40
0.75546901014102652
40
0.87446823391358486
40
1
40
1
40
1
40
1
10
-0.61566308920289015
20
-7.9050264264912045
30
0
10
-0.60685309226935469
20
-7.9053486569868241
30
0
10
-0.58964262962566572
20
-7.9059781391477397
30
0
10
-0.56512432979075777
20
-7.9128246211679683
30
0
10
-0.54278572347340348
20
-7.9236344220575745
30
0
10
-0.52323085575384887
20
-7.9385070305691574
30
0
10
-0.50685289804535827
20
-7.9565566743530134
30
0
10
-0.49548238361622871
20
-7.9775242339396568
30
0
10
-0.48782209565503193
20
-8.0003161380538224
30
0
10
-0.48710232321129293
20
-8.0163644239448786
30
0
10
-0.48673282278071328
20
-8.0246029284866776
30
0
0
SPLINE
5
139
100
AcDbEntity
8
0
100
AcDbSpline
70
0
71
3
72
15
73
11
74
0
42
0.000000001
43
0.0000000001
44
0.0000000001
40
0
40
0
40
0
40
0
40
0.16900976207649801
40
0.31729343697083695
40
0.44850368787053729
40
0.56437652053855591
40
0.67025930713638404
40
0.77372187822646588
40
0.88049205114898277
40
1
40
1
40
1
40
1
10
-0.63260098694854883
20
-8.5360263186279752
30
0
10
-0.62373262515472394
20
-8.5362203414535163
30
0
10
-0.60708345081537518
20
-8.5365845936032709
30
0
10
-0.583851351424715
20
-8.5404969668368267
30
0
10
-0.56379562079240675
20
-8.5461395133487397
30
0
10
-0.54748629300370599
20
-8.5551854745942766
30
0
10
-0.53450666988229323
20
-8.5665087613772837
30
0
10
-0.52548156811207392
20
-8.5806332021117981
30
0
10
-0.51991625317096923
20
-8.5972269262836054
30
0
10
-0.51937673573595
20
-8.6091236850928023
30
0
10
-0.51909179160824015
20
-8.6154069140330041
30
0
0
CIRCLE
5
140
100
AcDbEntity
8
0
100
AcDbCircle
10
-5.4133858267716528
20
-3.0708661417322833
30
0
40
0.15748031496062656
210
0
220
0
230
1
0
CIRCLE
5
141
100
AcDbEntity
8
0
100
AcDbCircle
10
-5.4133858267716528
20
3.4251968503937009
30
0
40
0.1574803149606277
210
0
220
0
230
1
0
CIRCLE
5
142
100
AcDbEntity
8
0
100
AcDbCircle
10
1.0826771653543306
20
-7.4015748031496056
30
0
40
0.15748031496062992
210
0
220
0
230
1
0
CIRCLE
5
143
100
AcDbEntity
8
0
100
AcDbCircle
10
3.2480314960629917
20
5.590551181102362
30
0
40
0.15748031496062992
210
0
220
0
230
1
0
CIRCLE
5
144
100
AcDbEntity
8
0
100
AcDbCircle
10
-8.0511811023622055
20
-7.4803149606299204
30
0
40
0.068897637795275593
210
0
220
0
230
1
0
SPLINE
5
145
100
AcDbEntity
8
0
100
AcDbSpline
70
0
71
3
72
11
73
7
74
0
42
0.000000001
43
0.0000000001
44
0.0000000001
40
0
40
0
40
0
40
0
40
0.24900765326997951
40
0.49147415803692451
40
0.73934655031276342
40
1
40
1
40
1
40
1
10
-1.3118865278826441
20
-8.5987218207313116
30
0
10
-1.3114453271505728
20
-8.5893056830720713
30
0
10
-1.3105745155290325
20
-8.5707207590054395
30
0
10
-1.3022060649328844
20
-8.5438592131759439
30
0
10
-1.2890349423071328
20
-8.5185366399327318
30
0
10
-1.276398176468603
20
-8.504026328746237
30
0
10
-1.2699209901844457
20
-8.4965888253694288
30
0
0
CIRCLE
5
146
100
AcDbEntity
8
0
100
AcDbCircle
10
-3.2480314960629917
20
-7.4015748031496056
30
0
40
0.15748031496062992
210
0
220
0
230
1
0
SPLINE
5
147
100
AcDbEntity
8
0
100
AcDbSpline
70
0
71
3
72
15
73
11
74
0
42
0.000000001
43
0.0000000001
44
0.0000000001
40
0
40
0
40
0
40
0
40
0.1148713343074373
40
0.22168748506901639
40
0.32864474045058473
40
0.44094003772507601
40
0.56189350559642603
40
0.69432876993242698
40
0.83888985347991307
40
1
40
1
40
1
40
1
10
2.5161794844137648
20
-8.3820684122532594
30
0
10
2.515722711130278
20
-8.3899706848734326
30
0
10
2.5148411951187031
20
-8.405221094856552
30
0
10
2.5071421836204468
20
-8.4267471411435135
30
0
10
2.4944610663457856
20
-8.4454853621363597
30
0
10
2.4764313771068598
20
-8.4606837898625784
30
0
10
2.4543388051599089
20
-8.4728428818386377
30
0
10
2.4283362228973329
20
-8.4816145285705176
30
0
10
2.3985571098686362
20
-8.4865310388081188
30
0
10
2.3775771577332416
20
-8.487157615556681
30
0
10
2.3665192535864539
20
-8.4874878653866848
30
0
0
SPLINE
5
148
100
AcDbEntity
8
0
100
AcDbSpline
70
0
71
3
72
15
73
11
74
0
42
0.000000001
43
0.0000000001
44
0.0000000001
40
0
40
0
40
0
40
0
40
0.1203942824291819
40
0.23143130133434989
40
0.33969644828726897
40
0.45296051385991848
40
0.5727924768235827
40
0.70191104213116706
40
0.84313132028835525
40
1
40
1
40
1
40
1
10
-0.51909179160824015
20
-8.6154069140330041
30
0
10
-0.51955150235612946
20
-8.6239744760173664
30
0
10
-0.52043519429294527
20
-8.6404437134204759
30
0
10
-0.52796372049954965
20
-8.6636983846467519
30
0
10
-0.54081197643481849
20
-8.6838125805063413
30
0
10
-0.55864344560822354
20
-8.7005584795301409
30
0
10
-0.58073464579445244
20
-8.7140791633732437
30
0
10
-0.60693225797518557
20
-8.7236169445797369
30
0
10
-0.63693026018966181
20
-8.7290369133198418
30
0
10
-0.65811120447090754
20
-8.7297859517259564
30
0
10
-0.66925763132348148
20
-8.7301801315931389
30
0
0
CIRCLE
5
149
100
AcDbEntity
8
0
100
AcDbCircle
10
-6.6535433070866148
20
-2.2637795275590551
30
0
40
0.068897637795278938
210
0
220
0
230
1
0
SPLINE
5
150
100
AcDbEntity
8
0
100
AcDbSpline
70
0
71
3
72
15
73
11
74
0
42
0.000000001
43
0.0000000001
44
0.0000000001
40
0
40
0
40
0
40
0
40
0.13379541417754051
40
0.25985015900792691
40
0.38511793560951391
40
0.51185174827201896
40
0.63763977299552188
40
0.75792277803165409
40
0.87582432612880567
40
1
40
1
40
1
40
1
10
-0.93419668859885607
20
-8.9566929133858224
30
0
10
-0.94003927802796294
20
-8.9564018899935078
30
0
10
-0.95138643668436429
20
-8.9558366802272875
30
0
10
-0.96773275216064814
20
-8.951400210918349
30
0
10
-0.98258773192515592
20
-8.9439791634477892
30
0
10
-0.99560852547333178
20
-8.9337673184108812
30
0
10
-1.0068998182562481
20
-8.9218916753961288
30
0
10
-1.0147096523948789
20
-8.907942510032651
30
0
10
-1.019949234993643
20
-8.8928477837204447
30
0
10
-1.0204162492827311
20
-8.8822453316242491
30
0
10
-1.020655808434904
20
-8.8768067090928664
30
0
0
CIRCLE
5
151
100
AcDbEntity
8
0
100
AcDbCircle
10
3.2480314960629917
20
-5.2362204724409445
30
0
40
0.15748031496062992
210
0
220
0
230
1
0
SPLINE
5
152
100
AcDbEntity
8
0
100
AcDbSpline
70
0
71
3
72
23
73
19
74
0
42
0.000000001
43
0.0000000001
44
0.0000000001
40
0
40
0
40
0
40
0
40
0.068272557069862502
40
0.1338722056779614
40
0.19723471245575611
40
0.25872846154283519
40
0.31875753232201981
40
0.37847340134751989
40
0.43854342663993068
40
0.49933201084954149
40
0.56012059505915246
40
0.62019062035156314
40
0.68010307372988432
40
0.74049082741410033
40
0.80198457650117905
40
0.86534708327897492
40
0.93133570410824496
40
1
40
1
40
1
40
1
10
-2.7052435012404263
20
-9.3450005393161462
30
0
10
-2.7199249459014481
20
-9.344684464745141
30
0
10
-2.7487130485251505
20
-9.3440646900978308
30
0
10
-2.7908074604314423
20
-9.3384984975788061
30
0
10
-2.8309533888716687
20
-9.3301936249652915
30
0
10
-2.8687338304508652
20
-9.3176153914389914
30
0
10
-2.9044577248795429
20
-9.3019275184765995
30
0
10
-2.9379956973201575
20
-9.2825683420296894
30
0
10
-2.969498602259522
20
-9.2597655393432952
30
0
10
-2.9984222079032383
20
-9.233441848782185
30
0
10
-3.0247690434116445
20
-9.2045263420571022
30
0
10
-3.0474972058128524
20
-9.1729342427207285
30
0
10
-3.0672847520781588
20
-9.1395002261281135
30
0
10
-3.0827713091318221
20
-9.1035442941794216
30
0
10
-3.0954426958331656
20
-9.0657250184533336
30
0
10
-3.1037553574151819
20
-9.0254887256484047
30
0
10
-3.1092971659074404
20
-8.9832234755002887
30
0
10
-3.1099190829331187
20
-8.9542677580496033
30
0
10
-3.1102362204724403
20
-8.939502211196201
30
0
0
SPLINE
5
153
100
AcDbEntity
8
0
100
AcDbSpline
70
0
71
3
72
15
73
11
74
0
42
0.000000001
43
0.0000000001
44
0.0000000001
40
0
40
0
40
0
40
0
40
0.1738005960890821
40
0.32675336150865469
40
0.45934117331403862
40
0.57618339831180576
40
0.68141845674418577
40
0.78307270371502957
40
0.88636104963139395
40
1
40
1
40
1
40
1
10
-1.0761716643296295
20
-8.9890518822133529
30
0
10
-1.0669708920092167
20
-8.9892771569641976
30
0
10
-1.0496730037866133
20
-8.9897006841773273
30
0
10
-1.0255878018672326
20
-8.9932187149354839
30
0
10
-1.0048799895230596
20
-8.9986602664396145
30
0
10
-0.98816535388076254
20
-9.0074645308535786
30
0
10
-0.97461783294377868
20
-9.0181989889179448
30
0
10
-0.96500944626310758
20
-9.0317584835820277
30
0
10
-0.95915954188612207
20
-9.0478436269254949
30
0
10
-0.95863800457560178
20
-9.0593638639090202
30
0
10
-0.95836479344191494
20
-9.0653988242907939
30
0
0
SPLINE
5
154
100
AcDbEntity
8
0
100
AcDbSpline
70
0
71
3
72
15
73
11
74
0
42
0.000000001
43
0.0000000001
44
0.0000000001
40
0
40
0
40
0
40
0
40
0.14553885795682181
40
0.27926802792765631
40
0.40423886151878752
40
0.52374376922100108
40
0.63943617741939218
40
0.75560022397040871
40
0.87398351298448673
40
1
40
1
40
1
40
1
10
1.5841906212922021
20
-8.4050736166540787
30
0
10
1.5875086914365801
20
-8.3974555464008862
30
0
10
1.5938755883516353
20
-8.3828375709262275
30
0
10
1.6066282856255691
20
-8.3635681223913707
30
0
10
1.6201530534607216
20
-8.3466900034715668
30
0
10
1.6358447538245515
20
-8.3333372405199597
30
0
10
1.6526426731573527
20
-8.3222440222096328
30
0
10
1.6714091358211736
20
-8.3151495496035555
30
0
10
1.6914678615360037
20
-8.3102672027480864
30
0
10
1.7054208775480455
20
-8.309769935757771
30
0
10
1.712615278826449
20
-8.3095135368352917
30
0
0
SPLINE
5
155
100
AcDbEntity
8
0
100
AcDbSpline
70
0
71
3
72
15
73
11
74
0
42
0.000000001
43
0.0000000001
44
0.0000000001
40
0
40
0
40
0
40
0
40
0.1217805075998341
40
0.23453875430461971
40
0.34393702365408307
40
0.45630156878648842
40
0.57618527309465484
40
0.70427840471220593
40
0.84437713980861084
40
1
40
1
40
1
40
1
10
1.443479667781254
20
-9.0669156509545843
30
0
10
1.4430494448561504
20
-9.0756614489643042
30
0
10
1.4422208726082932
20
-9.0925051016228977
30
0
10
1.4342754415710406
20
-9.1161254225519333
30
0
10
1.4216942305721159
20
-9.1367817724334444
30
0
10
1.4036177388785829
20
-9.1536534272802701
30
0
10
1.381377029553766
20
-9.1670354576833102
30
0
10
1.3551402597137308
20
-9.1766559534809797
30
0
10
1.3251336374241038
20
-9.1820585386338127
30
0
10
1.3039539726780072
20
-9.1828101574015317
30
0
10
1.2928082191780825
20
-9.1832056951785113
30
0
0
CIRCLE
5
156
100
AcDbEntity
8
0
100
AcDbCircle
10
1.0826771653543306
20
5.590551181102362
30
0
40
0.15748031496062992
210
0
220
0
230
1
0
SPLINE
5
157
100
AcDbEntity
8
0
100
AcDbSpline
70
0
71
3
72
15
73
11
74
0
42
0.000000001
43
0.0000000001
44
0.0000000001
40
0
40
0
40
0
40
0
40
0.1209157308256406
40
0.24016172534939559
40
0.35894297242956752
40
0.47831259401382881
40
0.60070219896712618
40
0.72786450291070681
40
0.86066163580201183
40
1
40
1
40
1
40
1
10
-1.5431014723330807
20
-7.8580047999137044
30
0
10
-1.5351664131344189
20
-7.8650667812972213
30
0
10
-1.5194058706897948
20
-7.8790932245223386
30
0
10
-1.4990764966646108
20
-7.9033307163034099
30
0
10
-1.4822383871778897
20
-7.9298586777951643
30
0
10
-1.4677783629002161
20
-7.958074828772733
30
0
10
-1.4568922799861064
20
-7.9886799577876246
30
0
10
-1.4495622294902271
20
-8.0214683279181234
30
0
10
-1.4444697077541775
20
-8.0562143965151769
30
0
10
-1.4439932704765728
20
-8.0801163043890387
30
0
10
-1.4437493258548153
20
-8.0923545194693123
30
0
0
SPLINE
5
158
100
AcDbEntity
8
0
100
AcDbSpline
70
0
71
3
72
23
73
19
74
0
42
0.000000001
43
0.0000000001
44
0.0000000001
40
0
40
0
40
0
40
0
40
0.045706161049548798
40
0.090222292522934802
40
0.13399424298279411
40
0.1781307761098169
40
0.22321031213981921
40
0.2697761438588277
40
0.31798422467799281
40
0.36832850835270292
40
0.42312884148985153
40
0.48447099401933219
40
0.55278840071910107
40
0.62773335801793373
40
0.71020147778134535
40
0.79929334260589602
40
0.89626882749426839
40
1
40
1
40
1
40
1
10
-2.6847663412792575
20
-9.1184877575234555
30
0
10
-2.6761498805000223
20
-9.1182996462808461
30
0
10
-2.6591413016326424
20
-9.1179283215585745
30
0
10
-2.6342473793483681
20
-9.1133277765981422
30
0
10
-2.6102133923428004
20
-9.1065618244601065
30
0
10
-2.5870672985274754
20
-9.0968375809455875
30
0
10
-2.5647110185466904
20
-9.0843422582254405
30
0
10
-2.5431608680778646
20
-9.0691217393567776
30
0
10
-2.5226232408139735
20
-9.0510297583707953
30
0
10
-2.502862954121265
20
-9.0299140224106278
30
0
10
-2.483628825534637
20
-9.0051347737419416
30
0
10
-2.4634641403395783
20
-8.9768340171416448
30
0
10
-2.4435438106167542
20
-8.9438315070635959
30
0
10
-2.4226769629145584
20
-8.9068018232514934
30
0
10
-2.4015956427890757
20
-8.8654364418938894
30
0
10
-2.3801318193531089
20
-8.8196545754724927
30
0
10
-2.3578750353163569
20
-8.7698284406393672
30
0
10
-2.3435517256649443
20
-8.734856193811833
30
0
10
-2.3361490130514495
20
-8.716781496062989
30
0
0
SPLINE
5
159
100
AcDbEntity
8
0
100
AcDbSpline
70
0
71
3
72
15
73
11
74
0
42
0.000000001
43
0.0000000001
44
0.0000000001
40
0
40
0
40
0
40
0
40
0.13670242462783561
40
0.26726393666451381
40
0.39205978429786803
40
0.51308968205054784
40
0.6328326462009245
40
0.75278330942201821
40
0.87463757033509937
40
1
40
1
40
1
40
1
10
-2.2931722575773907
20
-9.1268303041743035
30
0
10
-2.3068965545417015
20
-9.1441555736690034
30
0
10
-2.3337286289882253
20
-9.1780278311767436
30
0
10
-2.3789516102626775
20
-9.2226177339271569
30
0
10
-2.4267259827180623
20
-9.2604459655451841
30
0
10
-2.4772415807431796
20
-9.291306904394208
30
0
10
-2.5303658668701385
20
-9.3157064804450869
30
0
10
-2.5864713000053228
20
-9.332418101456657
30
0
10
-2.6449884141884437
20
-9.3433360765106226
30
0
10
-2.6849693535437376
20
-9.3444404942410166
30
0
10
-2.7052435012404263
20
-9.3450005393161462
30
0
0
SPLINE
5
160
100
AcDbEntity
8
0
100
AcDbSpline
70
0
71
3
72
11
73
7
74
0
42
0.000000001
43
0.0000000001
44
0.0000000001
40
0
40
0
40
0
40
0
40
0.17431032659298859
40
0.39565055419447681
40
0.66969616190133086
40
1
40
1
40
1
40
1
10
-2.3128910042066653
20
-8.5013921098047618
30
0
10
-2.3180246750848115
20
-8.5043810267797362
30
0
10
-2.3296771099559437
20
-8.5111652872461256
30
0
10
-2.3517800639714079
20
-8.5172052376924601
30
0
10
-2.3791375786844444
20
-8.5232367906154174
30
0
10
-2.3995629503882481
20
-8.5254583650267914
30
0
10
-2.4107263240211401
20
-8.5266725542012711
30
0
0
SPLINE
5
161
100
AcDbEntity
8
0
100
AcDbSpline
70
0
71
3
72
15
73
11
74
0
42
0.000000001
43
0.0000000001
44
0.0000000001
40
0
40
0
40
0
40
0
40
0.11972029640545021
40
0.22991442452468319
40
0.33699551294429198
40
0.44780175440624331
40
0.56635412549800646
40
0.69562115279349945
40
0.83856628315784965
40
1
40
1
40
1
40
1
10
-0.95836479344191494
20
-9.0653988242907939
30
0
10
-0.95876374557922905
20
-9.0743204097234411
30
0
10
-0.95952990515131031
20
-9.0914536882249291
30
0
10
-0.9678489483875452
20
-9.1153758476306059
30
0
10
-0.98066769751465688
20
-9.1363432592310705
30
0
10
-0.9992334287396093
20
-9.1535004979836945
30
0
10
-1.0224611043808807
20
-9.166818816002678
30
0
10
-1.0498676146769161
20
-9.1767920130176392
30
0
10
-1.081788416965717
20
-9.1820573671394072
30
0
10
-1.1043836920405721
20
-9.1828077263863115
30
0
10
-1.1163675709200724
20
-9.1832056951785113
30
0
0
SPLINE
5
162
100
AcDbEntity
8
0
100
AcDbSpline
70
0
71
3
72
15
73
11
74
0
42
0.000000001
43
0.0000000001
44
0.0000000001
40
0
40
0
40
0
40
0
40
0.15420461811106451
40
0.29503458899938301
40
0.42594367805071331
40
0.55184318835376367
40
0.6695791868645754
40
0.77926338196068934
40
0.88723991897994159
40
1
40
1
40
1
40
1
10
-2.4175520440081972
20
-8.3095135368352917
30
0
10
-2.4069816967674917
20
-8.3097570178415978
30
0
10
-2.3867578014526569
20
-8.310222861987544
30
0
10
-2.3581443101314514
20
-8.3163873286253622
30
0
10
-2.3323014237522277
20
-8.3252299617520702
30
0
10
-2.3100984414844481
20
-8.3383706298406359
30
0
10
-2.2918454045336656
20
-8.3544998440436604
30
0
10
-2.2785440313268941
20
-8.3734235151803187
30
0
10
-2.2701728476404224
20
-8.39480919932614
30
0
10
-2.2693323744331151
20
-8.4099694473306368
30
0
10
-2.2689030309567464
20
-8.4177138388523289
30
0
0
SPLINE
5
163
100
AcDbEntity
8
0
100
AcDbSpline
70
0
71
3
72
15
73
11
74
0
42
0.000000001
43
0.0000000001
44
0.0000000001
40
0
40
0
40
0
40
0
40
0.1174918489041428
40
0.2255329242660018
40
0.33140282560328682
40
0.44249587049020778
40
0.5610737112140336
40
0.69164158339123183
40
0.83727582844459036
40
1
40
1
40
1
40
1
10
-2.2527235465429825
20
-7.9088184931506813
30
0
10
-2.2521974846877955
20
-7.8999114620217847
30
0
10
-2.2511876761806371
20
-7.8828138608199527
30
0
10
-2.2431921368687968
20
-7.8586466145133258
30
0
10
-2.2291926576608065
20
-7.8380891017862524
30
0
10
-2.2101244166409559
20
-7.8209244449799487
30
0
10
-2.1859643867461545
20
-7.8078543074510511
30
0
10
-2.1575309731423311
20
-7.7982276083429101
30
0
10
-2.1245766908339232
20
-7.7929230316225357
30
0
10
-2.1012277585348311
20
-7.7921683103944925
30
0
10
-2.0889062668536291
20
-7.7917700355948618
30
0
0
SPLINE
5
164
100
AcDbEntity
8
0
100
AcDbSpline
70
0
71
3
72
15
73
11
74
0
42
0.000000001
43
0.0000000001
44
0.0000000001
40
0
40
0
40
0
40
0
40
0.13442726894443802
40
0.26055121578230839
40
0.38101187913309648
40
0.49807085316157768
40
0.61592825600044576
40
0.73685764577668011
40
0.86398906502446038
40
1
40
1
40
1
40
1
10
-1.5097312857296938
20
-9.1832056951785113
30
0
10
-1.5227442867645358
20
-9.1828214482622084
30
0
10
-1.5479664999897846
20
-9.1820766886461769
30
0
10
-1.5842612337152486
20
-9.1748210447426963
30
0
10
-1.6175524970782496
20
-9.1630411954736388
30
0
10
-1.6475394722614751
20
-9.1459397050446025
30
0
10
-1.6747109545021834
20
-9.124587408576625
30
0
10
-1.6984054029346241
20
-9.0980872299729985
30
0
10
-1.718769546837895
20
-9.0668468929110588
30
0
10
-1.7294563402191689
20
-9.0437262486478822
30
0
10
-1.7349800453025559
20
-9.0317758332434455
30
0
0
SPLINE
5
165
100
AcDbEntity
8
0
100
AcDbSpline
70
0
71
3
72
15
73
11
74
0
42
0.000000001
43
0.0000000001
44
0.0000000001
40
0
40
0
40
0
40
0
40
0.16278481696106831
40
0.3118856066726915
40
0.44623357174296541
40
0.56945251726133772
40
0.68288643058538723
40
0.79026225657153015
40
0.89502393682278858
40
1
40
1
40
1
40
1
10
-1.5582697389709845
20
-8.9066376334807451
30
0
10
-1.5553226897809915
20
-8.913082822403247
30
0
10
-1.5496763264304401
20
-8.9254314043824632
30
0
10
-1.5402331827038958
20
-8.9424562615868499
30
0
10
-1.5297670551112832
20
-8.956776702485401
30
0
10
-1.518718438413813
20
-8.9686611714698827
30
0
10
-1.5065790899717817
20
-8.9775372505088651
30
0
10
-1.4941227858407615
20
-8.9844248700355269
30
0
10
-1.4807171578286431
20
-8.9883073418061681
30
0
10
-1.471580388784723
20
-8.9888035330174052
30
0
10
-1.4670073346996004
20
-8.9890518822133512
30
0
0
SPLINE
5
166
100
AcDbEntity
8
0
100
AcDbSpline
70
0
71
3
72
11
73
7
74
0
42
0.000000001
43
0.0000000001
44
0.0000000001
40
0
40
0
40
0
40
0
40
0.20196097628065501
40
0.4357232607841251
40
0.6993823667612582
40
1
40
1
40
1
40
1
10
1.4135476216157921
20
-8.8434365224894798
30
0
10
1.413734457740502
20
-8.8384457119827591
30
0
10
1.414137549699108
20
-8.8276782247780954
30
0
10
1.4181518964953173
20
-8.8108208872630112
30
0
10
1.4235883234289086
20
-8.7918882956856503
30
0
10
1.4289128875765251
20
-8.7790077576683618
30
0
10
1.4317495415812755
20
-8.7721456692913353
30
0
0
SPLINE
5
167
100
AcDbEntity
8
0
100
AcDbSpline
70
0
71
3
72
15
73
11
74
0
42
0.000000001
43
0.0000000001
44
0.0000000001
40
0
40
0
40
0
40
0
40
0.16094375260453661
40
0.3054843288975102
40
0.43797088141642293
40
0.55982997515152666
40
0.67287369569146682
40
0.78081486268481526
40
0.88681653235338531
40
1
40
1
40
1
40
1
10
1.5740784435336008
20
-8.9566929133858224
30
0
10
1.5622582584843929
20
-8.9563020776970319
30
0
10
1.5398225861531158
20
-8.9555602397805636
30
0
10
1.5080075961965638
20
-8.9501066332912274
30
0
10
1.4801218946602108
20
-8.9406557351427391
30
0
10
1.4565858949452415
20
-8.9271506535805916
30
0
10
1.437351486893709
20
-8.9106266029197769
30
0
10
1.4232568499566243
20
-8.8908555463908137
30
0
10
1.4151158364955649
20
-8.8678748599817201
30
0
10
1.4140816552021718
20
-8.8517586556259964
30
0
10
1.4135476216157921
20
-8.8434365224894798
30
0
0
SPLINE
5
168
100
AcDbEntity
8
0
100
AcDbSpline
70
0
71
3
72
23
73
19
74
0
42
0.000000001
43
0.0000000001
44
0.0000000001
40
0
40
0
40
0
40
0
40
0.069651934690832404
40
0.13666048930150321
40
0.20214250501330541
40
0.26545910249794302
40
0.32814932425249038
40
0.39014873196192579
40
0.45319205584455668
40
0.51621129900671991
40
0.57893480305513967
40
0.6393533607971571
40
0.69898168627822865
40
0.75766061890705083
40
0.81634925080026188
40
0.87611106558385232
40
0.93709225007537178
40
1
40
1
40
1
40
1
10
1.2197477348721826
20
-7.7917700355948618
30
0
10
1.2292804721280359
20
-7.7919351053960551
30
0
10
1.2479841670584089
20
-7.7922589803881817
30
0
10
1.2754716099982673
20
-7.7956763080105578
30
0
10
1.3017412465091649
20
-7.8010988289542125
30
0
10
1.3267264570565958
20
-7.8091086737994662
30
0
10
1.3505235056931537
20
-7.8189315890620206
30
0
10
1.3733132312233947
20
-7.8308727783608649
30
0
10
1.394679081455179
20
-7.8452889969692636
30
0
10
1.4146528947745891
20
-7.8617160218481912
30
0
10
1.4327161438903229
20
-7.8797295770429123
30
0
10
1.4485584321728244
20
-7.8991254012602665
30
0
10
1.4620283998319037
20
-7.9195935345589374
30
0
10
1.4729040816618879
20
-7.9412748075494095
30
0
10
1.4816668670938831
20
-7.9639182259778192
30
0
10
1.4876665299575249
20
-7.9877743052571057
30
0
10
1.4912559430517431
20
-8.0126960688879922
30
0
10
1.4917614414066587
20
-8.0296470683703287
30
0
10
1.4920181210225436
20
-8.0382543684607892
30
0
0
SPLINE
5
169
100
AcDbEntity
8
0
100
AcDbSpline
70
0
71
3
72
15
73
11
74
0
42
0.000000001
43
0.0000000001
44
0.0000000001
40
0
40
0
40
0
40
0
40
0.15457242177288369
40
0.29181179582072742
40
0.4150989408587939
40
0.5265782960022416
40
0.63461088920478037
40
0.74617685269106404
40
0.86499577099895597
40
1
40
1
40
1
40
1
10
0.63071338043361069
20
-8.3418725056628134
30
0
10
0.62344877422946066
20
-8.3416604625624657
30
0
10
0.60973418169057791
20
-8.3412601539097651
30
0
10
0.59049218666229442
20
-8.3375074307055819
30
0
10
0.57410421227524677
20
-8.3312376006668298
30
0
10
0.56031774963707615
20
-8.3225887956987368
30
0
10
0.54997001611792118
20
-8.3107218362816297
30
0
10
0.54253795717951114
20
-8.2965304355426106
30
0
10
0.5382048842425925
20
-8.2797601777442917
30
0
10
0.53769809383611622
20
-8.2678274879102744
30
0
10
0.53742854061050638
20
-8.2614806924819284
30
0
0
SPLINE
5
170
100
AcDbEntity
8
0
100
AcDbSpline
70
0
71
3
72
19
73
15
74
0
42
0.000000001
43
0.0000000001
44
0.0000000001
40
0
40
0
40
0
40
0
40
0.101673470478615
40
0.196183448027406
40
0.28294044839843768
40
0.36225861244335295
40
0.43415622737490722
40
0.49832262752894169
40
0.55546249415080706
40
0.60491817871009046
40
0.69829957238681784
40
0.79491431971744297
40
0.89549566969064409
40
1
40
1
40
1
40
1
10
0.64790408262323407
20
-9.2074749217991556
30
0
10
0.64314981466278931
20
-9.2183676446567127
30
0
10
0.63397624483247161
20
-9.2393856340942939
30
0
10
0.61995630670167357
20
-9.2693417634639701
30
0
10
0.60713846067743693
20
-9.2969723898228303
30
0
10
0.59503595203324211
20
-9.3220213528950957
30
0
10
0.58358420178319959
20
-9.3444403756092562
30
0
10
0.57337780864013266
20
-9.3645927232792854
30
0
10
0.5634239237479185
20
-9.3818974173030423
30
0
10
0.55167425505553103
20
-9.4021123243123341
30
0
10
0.53562678224549287
20
-9.4250845264693712
30
0
10
0.51498448036738609
20
-9.4520727141747294
30
0
10
0.49140207261689689
20
-9.4783533681880332
30
0
10
0.47416345651783071
20
-9.4950174866837198
30
0
10
0.46537927408046648
20
-9.5035089256822314
30
0
0
SPLINE
5
171
100
AcDbEntity
8
0
100
AcDbSpline
70
0
71
3
72
15
73
11
74
0
42
0.000000001
43
0.0000000001
44
0.0000000001
40
0
40
0
40
0
40
0
40
0.13178693383426421
40
0.25995331519708709
40
0.3845780873656765
40
0.50711123073446973
40
0.62841917204600184
40
0.75060122829275877
40
0.87411250166682453
40
1
40
1
40
1
40
1
10
0.46537927408046648
20
-9.5035089256822314
30
0
10
0.4535137005963531
20
-9.5140985775921614
30
0
10
0.43010853383081493
20
-9.5349869543126609
30
0
10
0.39229190309211909
20
-9.5620097470087426
30
0
10
0.35317148855785985
20
-9.584889884875432
30
0
10
0.31286036549963087
20
-9.6037690136510836
30
0
10
0.27107037448113047
20
-9.6182554209816846
30
0
10
0.22796927055256733
20
-9.6285474018887722
30
0
10
0.18353853753811999
20
-9.6351675538362276
30
0
10
0.1534419797015194
20
-9.6358744454109981
30
0
10
0.13825032358968872
20
-9.6362312587638854
30
0
0
CIRCLE
5
172
100
AcDbEntity
8
0
100
AcDbCircle
10
6.6535433070866148
20
2.2637795275590551
30
0
40
0.06889763779527866
210
0
220
0
230
1
0
CIRCLE
5
173
100
AcDbEntity
8
0
100
AcDbCircle
10
6.6535433070866148
20
-6.7913385826771648
30
0
40
0.068897637795281172
210
0
220
0
230
1
0
SPLINE
5
174
100
AcDbEntity
8
0
100
AcDbSpline
70
0
71
3
72
15
73
11
74
0
42
0.000000001
43
0.0000000001
44
0.0000000001
40
0
40
0
40
0
40
0
40
0.1222345322737619
40
0.2357509026655015
40
0.34502903884180952
40
0.45744116311555738
40
0.57706087891696844
40
0.70434692849358504
40
0.84440974599270757
40
1
40
1
40
1
40
1
10
3.1981447524538895
20
-8.8419196958256894
30
0
10
3.1976484282070556
20
-8.8504758984111742
30
0
10
3.196691179162702
20
-8.8669780475616182
30
0
10
3.1896334680913276
20
-8.8903925751844532
30
0
10
3.1769312734117117
20
-8.9103884920231806
30
0
10
3.1599016911668141
20
-8.927388686018876
30
0
10
3.1383920814845854
20
-8.9408434858364636
30
0
10
3.1127693029515608
20
-8.9499824734089355
30
0
10
3.0836478343143487
20
-8.95597934833037
30
0
10
3.06292786544843
20
-8.9564468736951497
30
0
10
3.0520237838420887
20
-8.9566929133858224
30
0
0
SPLINE
5
175
100
AcDbEntity
8
0
100
AcDbSpline
70
0
71
3
72
15
73
11
74
0
42
0.000000001
43
0.0000000001
44
0.0000000001
40
0
40
0
40
0
40
0
40
0.1520265464061071
40
0.28646353070937292
40
0.40758992250736181
40
0.51947018357359542
40
0.62703097241668082
40
0.74013185313452978
40
0.86248798602169996
40
1
40
1
40
1
40
1
10
-1.6702621076475024
20
-8.1092924172149665
30
0
10
-1.6705906890246487
20
-8.0996660017114532
30
0
10
-1.671209834717605
20
-8.0815269527203206
30
0
10
-1.6760508870597903
20
-8.0560188942811894
30
0
10
-1.6849814192993013
20
-8.0343699868826306
30
0
10
-1.6972062410093576
20
-8.0163829701097367
30
0
10
-1.7132781310482712
20
-8.002382748731991
30
0
10
-1.7330051148140018
20
-7.9928572012117352
30
0
10
-1.7560470509859503
20
-7.9869387259281366
30
0
10
-1.7725241990985441
20
-7.9862750433215668
30
0
10
-1.7812432585481601
20
-7.9859238485600246
30
0
0
SPLINE
5
176
100
AcDbEntity
8
0
100
AcDbSpline
70
0
71
3
72
23
73
19
74
0
42
0.000000001
43
0.0000000001
44
0.0000000001
40
0
40
0
40
0
40
0
40
0.074702033541996504
40
0.14568342992010291
40
0.2133345477436922
40
0.27832423411061369
40
0.34072900034151221
40
0.40242794567388129
40
0.46187066711195601
40
0.52131338855003306
40
0.57984614749418273
40
0.63751741682259255
40
0.69403514423315738
40
0.75174636990676647
40
0.81026787579709048
40
0.8710960370527765
40
0.93421960061999998
40
1
40
1
40
1
40
1
10
-2.8675439542659902
20
-8.9121993312479724
30
0
10
-2.8674086820906437
20
-8.919958567228937
30
0
10
-2.8671448751560442
20
-8.9350905798083655
30
0
10
-2.8647948199933775
20
-8.9571397441422906
30
0
10
-2.8611632065747163
20
-8.9780023400355198
30
0
10
-2.8554375403968288
20
-8.9974563480154881
30
0
10
-2.8487166983069692
20
-9.0159349103383626
30
0
10
-2.8400826519441127
20
-9.0329663616823943
30
0
10
-2.8302026793782233
20
-9.0489421961704313
30
0
10
-2.8185464077520641
20
-9.0632741300293542
30
0
10
-2.8056017489137859
20
-9.0761489957794677
30
0
10
-2.7917935666614988
20
-9.0876639796469103
30
0
10
-2.7765665884517072
20
-9.097069950562009
30
0
10
-2.7604120561548076
20
-9.104928169267497
30
0
10
-2.7430328659451724
20
-9.1110805302949984
30
0
10
-2.724517661143238
20
-9.1151980943707862
30
0
10
-2.7050045024884248
20
-9.1182222236874413
30
0
10
-2.6916044576597509
20
-9.1183980383412209
30
0
10
-2.6847663412792575
20
-9.1184877575234555
30
0
0
SPLINE
5
177
100
AcDbEntity
8
0
100
AcDbSpline
70
0
71
3
72
23
73
19
74
0
42
0.000000001
43
0.0000000001
44
0.0000000001
40
0
40
0
40
0
40
0
40
0.069989976980167595
40
0.13746909957983219
40
0.20254609281929911
40
0.26555477490061857
40
0.32780585466416029
40
0.38973665385464928
40
0.45126617544674658
40
0.51394175008471232
40
0.57566752655306119
40
0.63600033301068792
40
0.69540461809500487
40
0.75428585371237244
40
0.81333079381957363
40
0.87345312849897072
40
0.93579195030269702
40
1
40
1
40
1
40
1
10
0.13825032358968872
20
-9.6362312587638854
30
0
10
0.1260226795484366
20
-9.6358999377373813
30
0
10
0.10200605189888139
20
-9.6352491816555705
30
0
10
0.066769526860156955
20
-9.6313183833784528
30
0
10
0.03332952192020109
20
-9.6240946386302468
30
0
10
0.0014041357153431573
20
-9.6146047568056652
30
0
10
-0.028776558977519833
20
-9.6018313876687369
30
0
10
-0.057364350104960313
20
-9.5863899455117689
30
0
10
-0.084467995010946526
20
-9.5683164050171907
30
0
10
-0.10949018234184037
20
-9.5474956896429681
30
0
10
-0.13217047264397536
20
-9.5244803417211745
30
0
10
-0.15245015162993325
20
-9.5000081609946303
30
0
10
-0.16897626042862238
20
-9.4734584186389181
30
0
10
-0.18318165637096753
20
-9.4458620837010567
30
0
10
-0.19375017591676727
20
-9.4165136948309289
30
0
10
-0.20136029262636676
20
-9.3856828173713733
30
0
10
-0.20598103803100218
20
-9.3533143502668175
30
0
10
-0.20654274197641417
20
-9.3311956218135705
30
0
10
-0.2068277424226076
20
-9.3199728993636004
30
0
0
SPLINE
5
178
100
AcDbEntity
8
0
100
AcDbSpline
70
0
71
3
72
11
73
7
74
0
42
0.000000001
43
0.0000000001
44
0.0000000001
40
0
40
0
40
0
40
0
40
0.30176591197169927
40
0.56545011849357962
40
0.7966267094012629
40
1
40
1
40
1
40
1
10
-1.9056230449789664
20
-8.3196257145938937
30
0
10
-1.8904947978346243
20
-8.3183387561152298
30
0
10
-1.8621474305509025
20
-8.315927248402172
30
0
10
-1.822867271895257
20
-8.3078680866184911
30
0
10
-1.7893072549631837
20
-8.2967962356368528
30
0
10
-1.7705540067982442
20
-8.2854829443780318
30
0
10
-1.7617773163628514
20
-8.2801882213353473
30
0
0
CIRCLE
5
179
100
AcDbEntity
8
0
100
AcDbCircle
10
8.0511811023622055
20
-8.4645669291338574
30
0
40
0.068897637795276689
210
0
220
0
230
1
0
CIRCLE
5
180
100
AcDbEntity
8
0
100
AcDbCircle
10
-1.0826771653543306
20
-7.4015748031496056
30
0
40
0.15748031496062992
210
0
220
0
230
1
0
SPLINE
5
181
100
AcDbEntity
8
0
100
AcDbSpline
70
0
71
3
72
15
73
11
74
0
42
0.000000001
43
0.0000000001
44
0.0000000001
40
0
40
0
40
0
40
0
40
0.17762846513154629
40
0.33210638833784778
40
0.46575691966318572
40
0.58415063932467048
40
0.6897552698048921
40
0.78952509243519964
40
0.89069264587065644
40
1
40
1
40
1
40
1
10
-2.1280909556682119
20
-7.9859238485600246
30
0
10
-2.1378751881351659
20
-7.9856858315562746
30
0
10
-2.1561684617096017
20
-7.9852408186051251
30
0
10
-2.1816893122502181
20
-7.9819205223449927
30
0
10
-2.2033075935445372
20
-7.9758247756962151
30
0
10
-2.2213849751783266
20
-7.9677229056778422
30
0
10
-2.2356657881060755
20
-7.956650460208011
30
0
10
-2.2455563719891427
20
-7.9427191217953705
30
0
10
-2.2516542861172675
20
-7.9264828991324254
30
0
10
-2.2523580540125629
20
-7.9148565062346528
30
0
10
-2.2527235465429833
20
-7.9088184931506857
30
0
0
SPLINE
5
182
100
AcDbEntity
8
0
100
AcDbSpline
70
0
71
3
72
11
73
7
74
0
42
0.000000001
43
0.0000000001
44
0.0000000001
40
0
40
0
40
0
40
0
40
0.25365082846262071
40
0.49538920176814949
40
0.73940207281346448
40
1
40
1
40
1
40
1
10
-2.2689030309567464
20
-8.4177138388523289
30
0
10
-2.2693901082192269
20
-8.4260574097729375
30
0
10
-2.270341387652147
20
-8.4423527042267636
30
0
10
-2.2792740496149211
20
-8.4652177850660006
30
0
10
-2.2931287808486021
20
-8.485741790867225
30
0
10
-2.3061608216138136
20
-8.4960622690182515
30
0
10
-2.3128910042066653
20
-8.5013921098047618
30
0
0
SPLINE
5
183
100
AcDbEntity
8
0
100
AcDbSpline
70
0
71
3
72
15
73
11
74
0
42
0.000000001
43
0.0000000001
44
0.0000000001
40
0
40
0
40
0
40
0
40
0.13474583838553369
40
0.26174843029119921
40
0.38873653988973761
40
0.51916838981036639
40
0.64535741292806514
40
0.76510001815033446
40
0.88033421688432556
40
1
40
1
40
1
40
1
10
1.712615278826449
20
-8.3095135368352917
30
0
10
1.7185447005409786
20
-8.3097969620922765
30
0
10
1.7300628063682777
20
-8.310347525412153
30
0
10
1.7466536358556406
20
-8.3149006387261846
30
0
10
1.762072552863893
20
-8.321989435037473
30
0
10
1.7757743296291491
20
-8.3320064103674838
30
0
10
1.7871605284427392
20
-8.3441138010576044
30
0
10
1.7957678000178396
20
-8.3575851675230481
30
0
10
1.8007736626410702
20
-8.3725490054607477
30
0
10
1.8014902131365422
20
-8.3828752102659756
30
0
10
1.801855247546112
20
-8.3881357189084209
30
0
0
SPLINE
5
184
100
AcDbEntity
8
0
100
AcDbSpline
70
0
71
3
72
11
73
7
74
0
42
0.000000001
43
0.0000000001
44
0.0000000001
40
0
40
0
40
0
40
0
40
0.1762110228003082
40
0.40249868964930829
40
0.67498512388695242
40
1
40
1
40
1
40
1
10
1.801855247546112
20
-8.3881357189084209
30
0
10
1.801490009076318
20
-8.3931298861213115
30
0
10
1.8006557366047924
20
-8.4045374912026052
30
0
10
1.795572080643806
20
-8.4230813239780105
30
0
10
1.7883078304873874
20
-8.4452847683482091
30
0
10
1.7815271968596738
20
-8.460830007512028
30
0
10
1.7778388253694319
20
-8.4692859454212037
30
0
0
SPLINE
5
185
100
AcDbEntity
8
0
100
AcDbSpline
70
0
71
3
72
17
73
13
74
0
42
0.000000001
43
0.0000000001
44
0.0000000001
40
0
40
0
40
0
40
0
40
0.115791415943357
40
0.22217092472253941
40
0.31870585083495939
40
0.40635360868652731
40
0.48334495315434461
40
0.5512342736433965
40
0.60951027554175308
40
0.6581810263838147
40
0.83127331550943095
40
1
40
1
40
1
40
1
10
-2.0962375957286161
20
-8.7253768471578024
30
0
10
-2.1027726476879192
20
-8.7414035167722748
30
0
10
-2.1153115610873248
20
-8.7721541555779368
30
0
10
-2.1338986103160971
20
-8.8160170961430193
30
0
10
-2.1505229409413671
20
-8.8561404424030599
30
0
10
-2.1658000562774902
20
-8.8920667985442581
30
0
10
-2.1798692122382342
20
-8.9238491139684175
30
0
10
-2.1921688959334067
20
-8.9516127165597084
30
0
10
-2.2030314579930526
20
-8.9753833045637244
30
0
10
-2.2208822598623379
20
-9.013238832984042
30
0
10
-2.248775359161121
20
-9.0646949356420308
30
0
10
-2.2784998353317092
20
-9.106295618283669
30
0
10
-2.2931722575773907
20
-9.1268303041743035
30
0
0
SPLINE
5
186
100
AcDbEntity
8
0
100
AcDbSpline
70
0
71
3
72
15
73
11
74
0
42
0.000000001
43
0.0000000001
44
0.0000000001
40
0
40
0
40
0
40
0
40
0.1248615429853452
40
0.24092464469751981
40
0.35074496119987991
40
0.46395101241914161
40
0.58314646668960401
40
0.70868621509109275
40
0.84706655062499558
40
1
40
1
40
1
40
1
10
1.8503937007874023
20
-8.8419196958256894
30
0
10
1.8500216948542954
20
-8.8504880356463591
30
0
10
1.849303896602597
20
-8.867020942237021
30
0
10
1.8419756898735204
20
-8.8901589876008931
30
0
10
1.8303119107390491
20
-8.9104500677322722
30
0
10
1.8137014216766476
20
-8.9272822583319442
30
0
10
1.7930313171752281
20
-8.9407899130153119
30
0
10
1.7683297920817149
20
-8.9499978369627744
30
0
10
1.7402870658382015
20
-8.9559647910324802
30
0
10
1.7203178416348539
20
-8.9564422550711047
30
0
10
1.7098344299428332
20
-8.9566929133858224
30
0
0
SPLINE
5
187
100
AcDbEntity
8
0
100
AcDbSpline
70
0
71
3
72
19
73
15
74
0
42
0.000000001
43
0.0000000001
44
0.0000000001
40
0
40
0
40
0
40
0
40
0.0586038419754965
40
0.1183126622626547
40
0.1786155181589314
40
0.2394954480256696
40
0.30186479841369768
40
0.36479381837374542
40
0.42964290722409748
40
0.49573959336243989
40
0.62708086668395691
40
0.75418752731736749
40
0.87773544886987975
40
1
40
1
40
1
40
1
10
-2.9352955452486236
20
-8.5231332919857596
30
0
10
-2.9273034038431347
20
-8.5152739129781256
30
0
10
-2.9111684288143924
20
-8.4994069659866209
30
0
10
-2.885007947962781
20
-8.4774225847491937
30
0
10
-2.8578595641090665
20
-8.4559666644061995
30
0
10
-2.8287117845203453
20
-8.4363838054164297
30
0
10
-2.7986304681110146
20
-8.4173346614033964
30
0
10
-2.7667284831857661
20
-8.3998510718839015
30
0
10
-2.7334327124756661
20
-8.3835431134925376
30
0
10
-2.6876580081538148
20
-8.3630322121800624
30
0
10
-2.6292404387732731
20
-8.3417979842384682
30
0
10
-2.5585354909734064
20
-8.3231574384159455
30
0
10
-2.4879421736992735
20
-8.311858734945881
30
0
10
-2.4409336110550126
20
-8.3102925438793367
30
0
10
-2.4175520440081968
20
-8.3095135368352917
30
0
0
SPLINE
5
188
100
AcDbEntity
8
0
100
AcDbSpline
70
0
71
3
72
23
73
19
74
0
42
0.000000001
43
0.0000000001
44
0.0000000001
40
0
40
0
40
0
40
0
40
0.058522074380849005
40
0.1146257524598792
40
0.16953193624274102
40
0.22406717719428898
40
0.27846357702842889
40
0.33441274570556107
40
0.39214569152441092
40
0.45269175026432151
40
0.5150496610467914
40
0.57813730002274477
40
0.64227760623113739
40
0.70857968339753141
40
0.77696068929503648
40
0.84795180532417969
40
0.92234708606418259
40
1
40
1
40
1
40
1
10
1.4920181210225436
20
-8.0382543684607892
30
0
10
1.49169623490339
20
-8.0493163457051935
30
0
10
1.4910657644526282
20
-8.0709831693567562
30
0
10
1.4855715026346381
20
-8.1026395315565782
30
0
10
1.4767436983402613
20
-8.1327128353802358
30
0
10
1.4642451176971143
20
-8.1611092218903973
30
0
10
1.4484632313177868
20
-8.1880633071539339
30
0
10
1.4287291317438466
20
-8.2130299699834168
30
0
10
1.4059042898571543
20
-8.2368323669891002
30
0
10
1.3792846871514521
20
-8.2583013505379324
30
0
10
1.3501028447268855
20
-8.2779287721708457
30
0
10
1.3186732041975844
20
-8.2952175181297214
30
0
10
1.2850217796119725
20
-8.3096276473625661
30
0
10
1.2493556189085391
20
-8.3215398715881257
30
0
10
1.2115159935411242
20
-8.3305506591895089
30
0
10
1.171643257633677
20
-8.3370767770253291
30
0
10
1.1296697278707273
20
-8.3412528177036833
30
0
10
1.1009397482398868
20
-8.3416630135273717
30
0
10
1.0862669884586347
20
-8.3418725056628134
30
0
0
CIRCLE
5
189
100
AcDbEntity
8
0
100
AcDbCircle
10
-6.6535433070866148
20
-6.7913385826771648
30
0
40
0.068897637795280076
210
0
220
0
230
1
0
CIRCLE
5
190
100
AcDbEntity
8
0
100
AcDbCircle
10
3.2480314960629917
20
-7.4015748031496056
30
0
40
0.15748031496062992
210
0
220
0
230
1
0
SPLINE
5
191
100
AcDbEntity
8
0
100
AcDbSpline
70
0
71
3
72
23
73
19
74
0
42
0.000000001
43
0.0000000001
44
0.0000000001
40
0
40
0
40
0
40
0
40
0.064665496296247904
40
0.127772997554052
40
0.18972007567595631
40
0.25139060716026962
40
0.31274355900523482
40
0.37421768702424058
40
0.43624917580515687
40
0.49965813602566028
40
0.56270111488160901
40
0.62511197039422117
40
0.68662769759415732
40
0.74796927690014348
40
0.80966996881246489
40
0.87178200948736184
40
0.93518363410392757
40
1
40
1
40
1
40
1
10
-1.4437493258548153
20
-8.0923545194693123
30
0
10
-1.4439861715759192
20
-8.1036571961072283
30
0
10
-1.4444541566603402
20
-8.1259902323804649
30
0
10
-1.4483576121673665
20
-8.1589639370160292
30
0
10
-1.4546850483776521
20
-8.1910024130288477
30
0
10
-1.4635218019126588
20
-8.2221343891847365
30
0
10
-1.4749421983521291
20
-8.252323557060409
30
0
10
-1.4888893351068559
20
-8.281505320445369
30
0
10
-1.5054768487035461
20
-8.3096805927384665
30
0
10
-1.5242423815001724
20
-8.3367883541167913
30
0
10
-1.5452311035083421
20
-8.3623031145902953
30
0
10
-1.5679461713892839
20
-8.3858408501977504
30
0
10
-1.5923820015074519
20
-8.4071257087609208
30
0
10
-1.6181991970597203
20
-8.4265166318101148
30
0
10
-1.6458449253498459
20
-8.4434120877373857
30
0
10
-1.6750730632475248
20
-8.4581801835291373
30
0
10
-1.7059868120898396
20
-8.4705839332384443
30
0
10
-1.7274277472133661
20
-8.4771102017064379
30
0
10
-1.7382665030741016
20
-8.4804093409556653
30
0
0
SPLINE
5
192
100
AcDbEntity
8
0
100
AcDbSpline
70
0
71
3
72
15
73
11
74
0
42
0.000000001
43
0.0000000001
44
0.0000000001
40
0
40
0
40
0
40
0
40
0.16883730824117141
40
0.31796368401973929
40
0.44845311470403643
40
0.56422552999067965
40
0.66973733610055075
40
0.77283330570195552
40
0.88156080171206619
40
1
40
1
40
1
40
1
10
1.3319929079926658
20
-8.9890518822133512
30
0
10
1.340685030129088
20
-8.9892893307626185
30
0
10
1.35705451152652
20
-8.9897365069008544
30
0
10
1.3799542560941889
20
-8.9931267755100244
30
0
10
1.3995389648749015
20
-8.9990365476002125
30
0
10
1.4155864351775354
20
-9.0076825061079759
30
0
10
1.4283313400139352
20
-9.0187781026342684
30
0
10
1.4371099734535699
20
-9.0327704543068137
30
0
10
1.4426061680758553
20
-9.0490764182084487
30
0
10
1.4431803192833508
20
-9.0608021428522942
30
0
10
1.443479667781254
20
-9.0669156509545843
30
0
0
SPLINE
5
193
100
AcDbEntity
8
0
100
AcDbSpline
70
0
71
3
72
15
73
11
74
0
42
0.000000001
43
0.0000000001
44
0.0000000001
40
0
40
0
40
0
40
0
40
0.13202339191346149
40
0.26015522224636339
40
0.38728133159156641
40
0.51445720510182436
40
0.64014416866251178
40
0.76179640145007343
40
0.88073217775763812
40
1
40
1
40
1
40
1
10
-2.6817326879516767
20
-8.60377790961061
30
0
10
-2.695643776009252
20
-8.6127817322919125
30
0
10
-2.7230559046696006
20
-8.6305239782437209
30
0
10
-2.7593604991623466
20
-8.663004460663899
30
0
10
-2.791543603629604
20
-8.6986682873354102
30
0
10
-2.8184504331009386
20
-8.7381362243175911
30
0
10
-2.8402012489741835
20
-8.7798731275640041
30
0
10
-2.8560087120721254
20
-8.8230903346300167
30
0
10
-2.8658680048094269
20
-8.8673456684694401
30
0
10
-2.8669847855318031
20
-8.8972342225203107
30
0
10
-2.8675439542659911
20
-8.9121993312479759
30
0
0
SPLINE
5
194
100
AcDbEntity
8
0
100
AcDbSpline
70
0
71
3
72
15
73
11
74
0
42
0.000000001
43
0.0000000001
44
0.0000000001
40
0
40
0
40
0
40
0
40
0.12557205517558051
40
0.24896889154189969
40
0.37038806313164119
40
0.49166631532835348
40
0.61435980973918958
40
0.73893915668126509
40
0.86753124571067086
40
1
40
1
40
1
40
1
10
-3.1102362204724403
20
-8.939502211196201
30
0
10
-3.1096878293270009
20
-8.920093097511268
30
0
10
-3.108600546528129
20
-8.8816110840315083
30
0
10
-3.1003414457717642
20
-8.8248432604199873
30
0
10
-3.0866939458335549
20
-8.7698450629119264
30
0
10
-3.0672108570197714
20
-8.716753117736193
30
0
10
-3.0427587340556772
20
-8.6652092757011339
30
0
10
-3.012234940093701
20
-8.6156973192883104
30
0
10
-2.9767306523546746
20
-8.5676972516992596
30
0
10
-2.9492433068796311
20
-8.5381342786086929
30
0
10
-2.9352955452486236
20
-8.5231332919857596
30
0
0
SPLINE
5
195
100
AcDbEntity
8
0
100
AcDbSpline
70
0
71
3
72
15
73
11
74
0
42
0.000000001
43
0.0000000001
44
0.0000000001
40
0
40
0
40
0
40
0
40
0.12729855852174998
40
0.25280157375827372
40
0.37792341840273158
40
0.50521288027172484
40
0.63185252379673662
40
0.75441474760938865
40
0.87675001290227106
40
1
40
1
40
1
40
1
10
-0.2068277424226076
20
-9.3199728993636004
30
0
10
-0.20636621160486973
20
-9.3058641503265189
30
0
10
-0.20544965985112662
20
-9.2778456558380249
30
0
10
-0.19733800016920869
20
-9.2365958389095155
30
0
10
-0.18401269663755626
20
-9.19682628990933
30
0
10
-0.16592811139103655
20
-9.1588215545540983
30
0
10
-0.14335093575139843
20
-9.123627573258716
30
0
10
-0.11677668365322669
20
-9.0920732754238411
30
0
10
-0.086306507539300345
20
-9.0646943507327595
30
0
10
-0.063369725273695512
20
-9.0500139596268152
30
0
10
-0.051858618272030595
20
-9.0426464243339399
30
0
0
SPLINE
5
196
100
AcDbEntity
8
0
100
AcDbSpline
70
0
71
3
72
15
73
11
74
0
42
0.000000001
43
0.0000000001
44
0.0000000001
40
0
40
0
40
0
40
0
40
0.16314028487621871
40
0.30794984914224799
40
0.43353360022918569
40
0.54849730746852643
40
0.65530539834691082
40
0.76182998118452649
40
0.87400412245987891
40
1
40
1
40
1
40
1
10
1.7464910743177657
20
-8.7625391004206659
30
0
10
1.7545997571395469
20
-8.7627455090592239
30
0
10
1.7699060173535985
20
-8.7631351339097314
30
0
10
1.7911692267443247
20
-8.7669181180995501
30
0
10
1.8094916300813426
20
-8.7728114438495037
30
0
10
1.8243945424927459
20
-8.7817719794452529
30
0
10
1.8363335035569499
20
-8.7931510384840923
30
0
10
1.8444410326427518
20
-8.8073137055665427
30
0
10
1.8498408281985863
20
-8.8237567408254538
30
0
10
1.8502024152560197
20
-8.8356355888379703
30
0
10
1.8503937007874023
20
-8.8419196958256894
30
0
0
SPLINE
5
197
100
AcDbEntity
8
0
100
AcDbSpline
70
0
71
3
72
15
73
11
74
0
42
0.000000001
43
0.0000000001
44
0.0000000001
40
0
40
0
40
0
40
0
40
0.1337586445721369
40
0.26105280883596499
40
0.38541628152263607
40
0.50440538192062689
40
0.62523837431337126
40
0.74544904672807855
40
0.86978110418381793
40
1
40
1
40
1
40
1
10
-1.7617773163628514
20
-8.2801882213353419
30
0
10
-1.7544632727026979
20
-8.2748930979759017
30
0
10
-1.7401886690123001
20
-8.2645587616005827
30
0
10
-1.7216654865821008
20
-8.2462255754544174
30
0
10
-1.7056341914453343
20
-8.226986855871818
30
0
10
-1.6927806919985378
20
-8.2059803954111263
30
0
10
-1.6826444984251441
20
-8.1838532963708808
30
0
10
-1.6755437430754396
20
-8.1602027241063535
30
0
10
-1.6711320405093659
20
-8.1352432861398043
30
0
10
-1.6705565218199603
20
-8.1180750531332215
30
0
10
-1.6702621076475024
20
-8.1092924172149665
30
0
0
SPLINE
5
198
100
AcDbEntity
8
0
100
AcDbSpline
70
0
71
3
72
15
73
11
74
0
42
0.000000001
43
0.0000000001
44
0.0000000001
40
0
40
0
40
0
40
0
40
0.087817613764608796
40
0.18068784867938881
40
0.28001333599904188
40
0.39186483824099311
40
0.51906843277423531
40
0.66086281673352909
40
0.82033843686915886
40
1
40
1
40
1
40
1
10
1.2043266637903143
20
-7.9859238485600246
30
0
10
1.1997337900233245
20
-7.9863012366834498
30
0
10
1.1902837896801379
20
-7.9870777261052828
30
0
10
1.1764734395613619
20
-7.9924632300379921
30
0
10
1.1630494017638804
20
-8.0010922086854404
30
0
10
1.1501051019753314
20
-8.0132698133715596
30
0
10
1.1376651743304163
20
-8.0288431296683136
30
0
10
1.1251152593852121
20
-8.0474216188613514
30
0
10
1.1133648043391
20
-8.0696781534958308
30
0
10
1.106062266326163
20
-8.0858236859156367
30
0
10
1.102193668428433
20
-8.0943769550210298
30
0
0
CIRCLE
5
199
100
AcDbEntity
8
0
100
AcDbCircle
10
-3.2480314960629917
20
-5.2362204724409445
30
0
40
0.15748031496062992
210
0
220
0
230
1
0
CIRCLE
5
200
100
AcDbEntity
8
0
100
AcDbCircle
10
-1.0826771653543306
20
1.2598425196850394
30
0
40
0.15748031496063036
210
0
220
0
230
1
0
CIRCLE
5
201
100
AcDbEntity
8
0
100
AcDbCircle
10
-6.6535433070866148
20
6.7913385826771648
30
0
40
0.068897637795278938
210
0
220
0
230
1
0
CIRCLE
5
202
100
AcDbEntity
8
0
100
AcDbCircle
10
1.0826771653543306
20
-5.2362204724409445
30
0
40
0.15748031496062992
210
0
220
0
230
1
0
CIRCLE
5
203
100
AcDbEntity
8
0
100
AcDbCircle
10
3.2480314960629917
20
-3.0708661417322833
30
0
40
0.15748031496063045
210
0
220
0
230
1
0
CIRCLE
5
204
100
AcDbEntity
8
0
100
AcDbCircle
10
6.6535433070866148
20
6.7913385826771648
30
0
40
0.068897637795278938
210
0
220
0
230
1
0
SPLINE
5
205
100
AcDbEntity
8
0
100
AcDbSpline
70
0
71
3
72
15
73
11
74
0
42
0.000000001
43
0.0000000001
44
0.0000000001
40
0
40
0
40
0
40
0
40
0.14592909718477459
40
0.28550120916273802
40
0.41795907352079759
40
0.54486962871122169
40
0.6661685144370626
40
0.78219221961474017
40
0.89325744939956642
40
1
40
1
40
1
40
1
10
-2.4107263240211401
20
-8.5266725542012711
30
0
10
-2.4244789876049451
20
-8.5280557161547179
30
0
10
-2.4513852191799468
20
-8.5307617865532599
30
0
10
-2.4904895283264019
20
-8.5369702973875494
30
0
10
-2.5276083294053531
20
-8.5440905174915187
30
0
10
-2.5624817215597822
20
-8.5533164487265037
30
0
10
-2.5953936982010686
20
-8.563660598074609
30
0
10
-2.6263614958436095
20
-8.5751124341122171
30
0
10
-2.6550164771198888
20
-8.5885703977445278
30
0
10
-2.6729458952286405
20
-8.5987762551678539
30
0
10
-2.6817326879516767
20
-8.60377790961061
30
0
0
SPLINE
5
206
100
AcDbEntity
8
0
100
AcDbSpline
70
0
71
3
72
15
73
11
74
0
42
0.000000001
43
0.0000000001
44
0.0000000001
40
0
40
0
40
0
40
0
40
0.1051312231163707
40
0.2144373818972492
40
0.3287015548810413
40
0.44884158901731641
40
0.57611192282290791
40
0.71019707737142201
40
0.85136642066221579
40
1
40
1
40
1
40
1
10
-0.051858618272030595
20
-9.0426464243339399
30
0
10
-0.043842948763730204
20
-9.0382814623359771
30
0
10
-0.027493294183844552
20
-9.0293781984417745
30
0
10
-0.001014475697263244
20
-9.0186303205720151
30
0
10
0.027420372696850055
20
-9.009598831375401
30
0
10
0.057874479750308981
20
-9.0019226610624283
30
0
10
0.090512969281591596
20
-8.9962880135365584
30
0
10
0.12517623998119473
20
-8.9919492554546725
30
0
10
0.16189138418672977
20
-8.9894097160090229
30
0
10
0.18703764225111383
20
-8.9891731908124761
30
0
10
0.1999346079171615
20
-8.9890518822133512
30
0
0
CIRCLE
5
207
100
AcDbEntity
8
0
100
AcDbCircle
10
1.0826771653543306
20
-3.0708661417322833
30
0
40
0.15748031496062936
210
0
220
0
230
1
0
SPLINE
5
208
100
AcDbEntity
8
0
100
AcDbSpline
70
0
71
3
72
19
73
15
74
0
42
0.000000001
43
0.0000000001
44
0.0000000001
40
0
40
0
40
0
40
0
40
0.0964560345190906
40
0.1865567027424416
40
0.27034862218408107
40
0.3469768137642168
40
0.41732974035670312
40
0.48154858438207537
40
0.53869285134481237
40
0.58991588933454264
40
0.68632040736365674
40
0.786477992580913
40
0.89026098046010127
40
1
40
1
40
1
40
1
10
-1.8057652896127703
20
-7.7917700355948618
30
0
10
-1.7968327063910969
20
-7.7918388531464648
30
0
10
-1.7795560965748618
20
-7.79197195394811
30
0
10
-1.7545222941418643
20
-7.7924161081578216
30
0
10
-1.7313366606448708
20
-7.7933749142466917
30
0
10
-1.7100246029054715
20
-7.7949822782625464
30
0
10
-1.6905292197560915
20
-7.796614592630716
30
0
10
-1.6729254360071537
20
-7.7989518153335986
30
0
10
-1.6571224385548746
20
-7.8013773299444882
30
0
10
-1.6385789945535594
20
-7.8054026888925039
30
0
10
-1.6166415625529884
20
-7.8123444880797042
30
0
10
-1.5913170187688543
20
-7.82402038640498
30
0
10
-1.5665901003671954
20
-7.8394182537910497
30
0
10
-1.5510752730570641
20
-7.8516951331799207
30
0
10
-1.5431014723330807
20
-7.8580047999137044
30
0
0
SPLINE
5
209
100
AcDbEntity
8
0
100
AcDbSpline
70
0
71
3
72
23
73
19
74
0
42
0.000000001
43
0.0000000001
44
0.0000000001
40
0
40
0
40
0
40
0
40
0.075903805028057103
40
0.14929954794760439
40
0.21914959605978651
40
0.28673984295763127
40
0.35139610893802492
40
0.41397836348321032
40
0.47491188662557948
40
0.53373233426838373
40
0.59205129774404786
40
0.64890551523446849
40
0.70610573961185363
40
0.76308698213678239
40
0.82061280718969121
40
0.87884647685789719
40
0.9384883119757208
40
1
40
1
40
1
40
1
10
0.87820893107539666
20
-8.055697875094376
30
0
10
0.88290134093000339
20
-8.0450276001451222
30
0
10
0.89213111102939102
20
-8.0240396243010661
30
0
10
0.90756801592728753
20
-7.9941266317998334
30
0
10
0.92366438917137095
20
-7.9660106725966893
30
0
10
0.94127068144680481
20
-7.9404434419958827
30
0
10
0.959014007986983
20
-7.916325695246754
30
0
10
0.97849398315881564
20
-7.894943031327899
30
0
10
0.99829238449805935
20
-7.8751353349777036
30
0
10
1.0192063208119508
20
-7.8574547531224095
30
0
10
1.0411810172365794
20
-7.842223532214244
30
0
10
1.0638534715618688
20
-7.8285094649283256
30
0
10
1.0876308102278882
20
-7.8172874152247909
30
0
10
1.1122359365589913
20
-7.807717351566736
30
0
10
1.1378904501999969
20
-7.8008592597502
30
0
10
1.1642700172455678
20
-7.7953462475761972
30
0
10
1.1917012441560384
20
-7.7923542700968076
30
0
10
1.2103032053085543
20
-7.7919667739348384
30
0
10
1.2197477348721821
20
-7.7917700355948618
30
0
0
SPLINE
5
210
100
AcDbEntity
8
0
100
AcDbSpline
70
0
71
3
72
15
73
11
74
0
42
0.000000001
43
0.0000000001
44
0.0000000001
40
0
40
0
40
0
40
0
40
0.1160989645341737
40
0.22496018621769251
40
0.33272161270041672
40
0.44582703602422102
40
0.5660959212390152
40
0.69638398457663664
40
0.83987889839705354
40
1
40
1
40
1
40
1
10
0.53742854061050638
20
-8.2614806924819284
30
0
10
0.53784718274291454
20
-8.2530676547970234
30
0
10
0.53865836837616299
20
-8.236766057863349
30
0
10
0.54692224079795981
20
-8.2138299140211242
30
0
10
0.56019848894427404
20
-8.1938253851022438
30
0
10
0.57849684277368107
20
-8.1769614938337867
30
0
10
0.60147361206535233
20
-8.1638906813574952
30
0
10
0.62838183661479097
20
-8.1542230913555311
30
0
10
0.65940919886483906
20
-8.1488665132568183
30
0
10
0.68133829867783979
20
-8.1481150170064645
30
0
10
0.69290327364901338
20
-8.1477186926976586
30
0
0
CIRCLE
5
211
100
AcDbEntity
8
0
100
AcDbCircle
10
-6.6535433070866148
20
2.2637795275590551
30
0
40
0.068897637795279201
210
0
220
0
230
1
0
CIRCLE
5
212
100
AcDbEntity
8
0
100
AcDbCircle
10
6.6535433070866148
20
-2.2637795275590551
30
0
40
0.068897637795279201
210
0
220
0
230
1
0
CIRCLE
5
213
100
AcDbEntity
8
0
100
AcDbCircle
10
-1.0826771653543306
20
-3.0708661417322833
30
0
40
0.15748031496062992
210
0
220
0
230
1
0
LINE
5
214
100
AcDbEntity
8
0
100
AcDbLine
10
2.3758730180118106
20
-8.3095135368346469
30
0
11
2.4021646801855265
21
-8.3095135368352917
31
0
0
CIRCLE
5
215
100
AcDbEntity
8
0
100
AcDbCircle
10
3.2480314960629917
20
3.4251968503937009
30
0
40
0.15748031496062992
210
0
220
0
230
1
0
CIRCLE
5
216
100
AcDbEntity
8
0
100
AcDbCircle
10
-1.0826771653543306
20
3.4251968503937009
30
0
40
0.15748031496063045
210
0
220
0
230
1
0
LINE
5
217
100
AcDbEntity
8
0
100
AcDbLine
10
-2.0889062668536291
20
-7.7917700355948618
30
0
11
-1.8057652896127703
21
-7.7917700355948618
31
0
0
LWPOLYLINE
5
218
100
AcDbEntity
8
0
100
AcDbPolyline
90
4
70
1
43
0.0
10
-11.023622047244093
20
9.940944881889763
10
11.023622047244093
20
9.940944881889763
10
11.023622047244093
20
-9.940944881889763
10
-11.023622047244093
20
-9.940944881889763
0
LINE
5
219
100
AcDbEntity
8
0
100
AcDbLine
10
0.8390242422598424
20
-8.1477186926968503
30
0
11
0.87820893107539666
21
-8.055697875094376
31
0
0
CIRCLE
5
220
100
AcDbEntity
8
0
100
AcDbCircle
10
-3.2480314960629917
20
3.4251968503937009
30
0
40
0.15748031496062936
210
0
220
0
230
1
0
CIRCLE
5
221
100
AcDbEntity
8
0
100
AcDbCircle
10
-3.2480314960629917
20
1.2598425196850394
30
0
40
0.15748031496062881
210
0
220
0
230
1
0
LINE
5
222
100
AcDbEntity
8
0
100
AcDbLine
10
-1.4670073346996004
20
-8.9890518822133512
30
0
11
-1.0761716643296295
21
-8.9890518822133529
31
0
0
LINE
5
223
100
AcDbEntity
8
0
100
AcDbLine
10
-0.75698077337795266
20
-8.7301801315944889
30
0
11
-0.80147435551574797
21
-8.8393916513858262
31
0
0
LINE
5
224
100
AcDbEntity
8
0
100
AcDbLine
10
-1.7382665030741016
20
-8.4804093409556653
30
0
11
-1.5582697389709845
21
-8.9066376334807451
31
0
0
LINE
5
225
100
AcDbEntity
8
0
100
AcDbLine
10
-2.0403678136141732
20
-7.9859238485590556
30
0
11
-2.1280909556682119
21
-7.9859238485600246
31
0
0
CIRCLE
5
226
100
AcDbEntity
8
0
100
AcDbCircle
10
1.0826771653543306
20
3.4251968503937009
30
0
40
0.15748031496062992
210
0
220
0
230
1
0
CIRCLE
5
227
100
AcDbEntity
8
0
100
AcDbCircle
10
1.0826771653543306
20
1.2598425196850394
30
0
40
0.15748031496062945
210
0
220
0
230
1
0
LINE
5
228
100
AcDbEntity
8
0
100
AcDbLine
10
-1.2699209901844457
20
-8.4965888253694288
30
0
11
-1.236803608023622
21
-8.4634714432086611
31
0
0
LWPOLYLINE
5
229
100
AcDbEntity
8
0
100
AcDbPolyline
90
3
70
1
43
0.0
10
-0.89880406644488187
20
-8.5360263186299203
10
-1.0565540394763777
20
-8.5360263186299203
10
-0.74332933340551177
20
-8.2051053014763777
0
LINE
5
230
100
AcDbEntity
8
0
100
AcDbLine
10
2.2494707960306344
20
-8.9566929133858224
30
0
11
2.0967769118757427
21
-8.9566929133858224
31
0
0
LINE
5
231
100
AcDbEntity
8
0
100
AcDbLine
10
2.2095276938858266
20
-8.1912010570590539
30
0
11
2.2191342627559054
21
-8.1669318304409444
31
0
0
CIRCLE
5
232
100
AcDbEntity
8
0
100
AcDbCircle
10
3.2480314960629917
20
1.2598425196850394
30
0
40
0.15748031496063017
210
0
220
0
230
1
0
LINE
5
233
100
AcDbEntity
8
0
100
AcDbLine
10
2.3665192535864539
20
-8.4874878653866848
30
0
11
2.3040765559251972
21
-8.4874878653858286
31
0
0
LINE
5
234
100
AcDbEntity
8
0
100
AcDbLine
10
2.3040765559251972
20
-8.4874878653858286
30
0
11
2.1898089472559055
21
-8.7625391004212592
31
0
0
LINE
5
235
100
AcDbEntity
8
0
100
AcDbLine
10
-1.0004314529176999
20
-8.7959092870240525
30
0
11
-0.97540381296456691
21
-8.7301801315944889
31
0
0
LINE
5
236
100
AcDbEntity
8
0
100
AcDbLine
10
3.0520237838420887
20
-8.9566929133858224
30
0
11
2.8105955398543303
21
-8.956692913385826
31
0
0
LINE
5
237
100
AcDbEntity
8
0
100
AcDbLine
10
1.7098344299428332
20
-8.9566929133858224
30
0
11
1.5740784435336008
21
-8.9566929133858224
31
0
0
LINE
5
238
100
AcDbEntity
8
0
100
AcDbLine
10
-1.7349800453025559
20
-9.0317758332434455
30
0
11
-1.9814643781692913
21
-8.4465335454645665
31
0
0
LINE
5
239
100
AcDbEntity
8
0
100
AcDbLine
10
-2.3361490130514495
20
-8.716781496062989
30
0
11
-2.0403678136141732
21
-7.9859238485590556
31
0
0
LINE
5
240
100
AcDbEntity
8
0
100
AcDbLine
10
1.5748368568661415
20
-8.4288372343858278
30
0
11
1.5841906212922021
21
-8.4050736166540787
31
0
0
LINE
5
241
100
AcDbEntity
8
0
100
AcDbLine
10
-1.1163675709200724
20
-9.1832056951785113
30
0
11
-1.5097312857296938
21
-9.1832056951785113
31
0
0
LINE
5
242
100
AcDbEntity
8
0
100
AcDbLine
10
-0.80147435551574797
20
-8.8393916513858262
30
0
11
-0.81082811994391057
21
-8.8626496602308222
31
0
0
SPLINE
5
243
100
AcDbEntity
8
0
100
AcDbSpline
70
0
71
3
72
15
73
11
74
0
42
0.000000001
43
0.0000000001
44
0.0000000001
40
0
40
0
40
0
40
0
40
0.14909603547780029
40
0.2904604208230227
40
0.42556760347313333
40
0.55880254066286983
40
0.68290725582260214
40
0.79244739446239287
40
0.89678043576170441
40
1
40
1
40
1
40
1
10
1.1188787617301266
20
-8.1477186926976586
30
0
10
1.1285982084117496
20
-8.1474207498123619
30
0
10
1.1475330819264213
20
-8.1468403144200501
30
0
10
1.1747982179121874
20
-8.14111988456661
30
0
10
1.1999262643760928
20
-8.1319373435873619
30
0
10
1.2224674417861001
20
-8.1196283410045478
30
0
10
1.2410761519529092
20
-8.1044206290624832
30
0
10
1.2552514910062311
20
-8.0873767773079308
30
0
10
1.2638307453164737
20
-8.0681409666792874
30
0
10
1.264949141246813
20
-8.0545967264258689
30
0
10
1.265505339229857
20
-8.0478609373314605
30
0
0
CIRCLE
5
244
100
AcDbEntity
8
0
100
AcDbCircle
10
-1.0826771653543306
20
-5.2362204724409445
30
0
40
0.15748031496062992
210
0
220
0
230
1
0
LINE
5
245
100
AcDbEntity
8
0
100
AcDbLine
10
-0.51176046273325349
20
-8.123702270520976
30
0
11
-0.68038102685826762
21
-8.5360263186299203
31
0
0
LINE
5
246
100
AcDbEntity
8
0
100
AcDbLine
10
1.7778388253694319
20
-8.4692859454212037
30
0
11
1.6501725811653543
21
-8.7625391004212592
31
0
0
LINE
5
247
100
AcDbEntity
8
0
100
AcDbLine
10
1.4317495415812755
20
-8.7721456692913353
30
0
11
1.5748368568661415
21
-8.4288372343858278
31
0
0
LINE
5
248
100
AcDbEntity
8
0
100
AcDbLine
10
1.9660770143464565
20
-8.7749265181732294
30
0
11
1.9830149120905511
21
-8.7370058515787381
31
0
0
LINE
5
249
100
AcDbEntity
8
0
100
AcDbLine
10
2.8353703753622046
20
-8.7625391004212592
30
0
11
3.0886804282165352
21
-8.7625391004212592
31
0
0
LINE
5
250
100
AcDbEntity
8
0
100
AcDbLine
10
2.1632644806377952
20
-8.3095135368346469
30
0
11
2.2095276938858266
21
-8.1912010570590539
31
0
0
SPLINE
5
251
100
AcDbEntity
8
0
100
AcDbSpline
70
0
71
3
72
15
73
11
74
0
42
0.000000001
43
0.0000000001
44
0.0000000001
40
0
40
0
40
0
40
0
40
0.1448044177607416
40
0.27454436870672089
40
0.39136503693018571
40
0.50338682450897854
40
0.61341296935501477
40
0.72792947507797268
40
0.85519558223925529
40
1
40
1
40
1
40
1
10
1.265505339229857
20
-8.0478609373314605
30
0
10
1.2653065203013507
20
-8.043045435460666
30
0
10
1.2649295662135007
20
-8.0339154037836735
30
0
10
1.2622668732648543
20
-8.0210882916636539
30
0
10
1.2573811200167173
20
-8.0101025236077206
30
0
10
1.2504583759994841
20
-8.0010706969642751
30
0
10
1.2415975417780953
20
-7.9940501498524377
30
0
10
1.2308550967001182
20
-7.9891611783534566
30
0
10
1.2181920552165522
20
-7.9864799555933725
30
0
10
1.2091429041706554
20
-7.9861170162151929
30
0
10
1.2043266637903143
20
-7.9859238485600246
30
0
0
LINE
5
252
100
AcDbEntity
8
0
100
AcDbLine
10
0.69290327364901338
20
-8.1477186926976586
30
0
11
0.8390242422598424
21
-8.1477186926968503
31
0
0
LINE
5
253
100
AcDbEntity
8
0
100
AcDbLine
10
1.9830149120905511
20
-8.7370058515787381
30
0
11
2.0881815607795278
21
-8.4874878653858286
31
0
0
LINE
5
254
100
AcDbEntity
8
0
100
AcDbLine
10
2.1898089472559055
20
-8.7625391004212592
30
0
11
2.285369027073672
21
-8.7625391004206659
31
0
0
LINE
5
255
100
AcDbEntity
8
0
100
AcDbLine
10
-1.236803608023622
20
-8.4634714432086611
30
0
11
-0.81487299104735111
21
-8.0215692751590932
31
0
0
LINE
5
256
100
AcDbEntity
8
0
100
AcDbLine
10
2.4107600312795276
20
-8.2382226836377956
30
0
11
2.3758730180118106
21
-8.3095135368346469
31
0
0
LINE
5
257
100
AcDbEntity
8
0
100
AcDbLine
10
-1.9814643781692913
20
-8.4465335454645665
30
0
11
-2.0962375957286161
21
-8.7253768471578024
31
0
0
LINE
5
258
100
AcDbEntity
8
0
100
AcDbLine
10
-0.97540381296456691
20
-8.7301801315944889
30
0
11
-1.1513557059648361
21
-8.7301801315931389
31
0
0
LINE
5
259
100
AcDbEntity
8
0
100
AcDbLine
10
-0.66925763132348148
20
-8.7301801315931389
30
0
11
-0.75698077337795266
21
-8.7301801315944889
31
0
0
CIRCLE
5
260
100
AcDbEntity
8
0
100
AcDbCircle
10
-3.2480314960629917
20
-3.0708661417322833
30
0
40
0.15748031496062881
210
0
220
0
230
1
0
LINE
5
261
100
AcDbEntity
8
0
100
AcDbLine
10
-0.68038102685826762
20
-8.5360263186299203
30
0
11
-0.63260098694854883
21
-8.5360263186279752
31
0
0
LINE
5
262
100
AcDbEntity
8
0
100
AcDbLine
10
0.41734642972834646
20
-9.1832056951771648
30
0
11
0.19310888792913386
21
-9.1832056951771648
31
0
0
LWPOLYLINE
5
263
100
AcDbEntity
8
0
100
AcDbPolyline
90
4
70
1
43
0.0
10
4.4881889763779528
20
4.6850393700787389
10
4.4881889763779528
20
-6.4960629921259834
10
-4.4881889763779528
20
-6.4960629921259834
10
-4.4881889763779528
20
4.6850393700787398
0
LINE
5
264
100
AcDbEntity
8
0
100
AcDbLine
10
2.7797533976929132
20
-8.5522058030433072
30
0
11
2.8737966508464563
21
-8.5522058030433072
31
0
0
LINE
5
265
100
AcDbEntity
8
0
100
AcDbLine
10
2.0881815607795278
20
-8.4874878653858286
30
0
11
2.0755413385826773
21
-8.4874878653858286
31
0
0
LINE
5
266
100
AcDbEntity
8
0
100
AcDbLine
10
1.2928082191780825
20
-9.1832056951785113
30
0
11
0.65801626038188965
21
-9.1832056951771648
31
0
0
LINE
5
267
100
AcDbEntity
8
0
100
AcDbLine
10
-1.7996979829566928
20
-7.9859238485590556
30
0
11
-1.9301450760433068
21
-8.3213953457007879
31
0
0
LINE
5
268
100
AcDbEntity
8
0
100
AcDbLine
10
2.9094420774448819
20
-8.714000647181102
30
0
11
2.7387990777677165
21
-8.714000647181102
31
0
0
LINE
5
269
100
AcDbEntity
8
0
100
AcDbLine
10
2.1240797918228345
20
-8.3095135368346469
30
0
11
2.1632644806377952
21
-8.3095135368346469
31
0
0
LINE
5
270
100
AcDbEntity
8
0
100
AcDbLine
10
1.6501725811653543
20
-8.7625391004212592
30
0
11
1.7464910743177657
21
-8.7625391004206659
31
0
0
SPLINE
5
271
100
AcDbEntity
8
0
100
AcDbSpline
70
0
71
3
72
15
73
11
74
0
42
0.000000001
43
0.0000000001
44
0.0000000001
40
0
40
0
40
0
40
0
40
0.1323720568123247
40
0.2594773126198619
40
0.38291637165895481
40
0.50443479475768538
40
0.62441091094346746
40
0.74491106992693112
40
0.87036416990928844
40
1
40
1
40
1
40
1
10
2.9096948818897643
20
-8.4874878653866848
30
0
10
2.9030256534695664
20
-8.4876732848052754
30
0
10
2.8899525509629358
20
-8.4880367462003985
30
0
10
2.8708651802210707
20
-8.4911528987886769
30
0
10
2.8527837068980668
20
-8.4962002291268508
30
0
10
2.83577332362277
20
-8.5032777946300619
30
0
10
2.8199332798827448
20
-8.5124274696910085
30
0
10
2.8054243263642045
20
-8.5238412492762805
30
0
10
2.79162374214821
20
-8.5368601723157838
30
0
10
2.7837531973314062
20
-8.5470349802005519
30
0
10
2.7797533976917279
20
-8.5522058030417387
30
0
0
LINE
5
272
100
AcDbEntity
8
0
100
AcDbLine
10
-0.9301975060551182
20
-0.94488188976377963
30
0
11
-0.039370078740157514
21
-0.94488188976377963
31
0
0
LINE
5
273
100
AcDbEntity
8
0
100
AcDbLine
10
-4.409448818897638
20
4.606299212598425
30
0
11
-4.409448818897638
21
-0.86614173228346492
31
0
0
LWPOLYLINE
5
274
100
AcDbEntity
8
0
100
AcDbPolyline
90
4
70
1
43
0.0
10
-1.2351568246535432
20
-0.94488188976377963
10
-3.0955518367634953
20
-0.9448818897638529
42
-7.872983346208331
10
-3.0955518367634567
20
-0.86614173228354163
10
-1.235156824653856
20
-0.8661417322835443
42
-7.872983346208331
0
LINE
5
275
100
AcDbEntity
8
0
100
AcDbLine
10
0.50102470068110228
20
-8.989051882212598
30
0
11
0.75610438464173224
21
-8.3418725056614189
31
0
0
SPLINE
5
276
100
AcDbEntity
8
0
100
AcDbSpline
70
0
71
3
72
15
73
11
74
0
42
0.000000001
43
0.0000000001
44
0.0000000001
40
0
40
0
40
0
40
0
40
0.12637815489421669
40
0.2466479692745171
40
0.36581285350894033
40
0.49034927152468938
40
0.61623711165113959
40
0.73933054562977418
40
0.86589886552499096
40
1
40
1
40
1
40
1
10
0.035864523783842549
20
-9.3068270682774195
30
0
10
0.036305873134936793
20
-9.3149579468943262
30
0
10
0.037167239731712452
20
-9.3308267076066151
30
0
10
0.043818306828881971
20
-9.3536650894543865
30
0
10
0.055703245775615126
20
-9.3740328840193961
30
0
10
0.071330148768897567
20
-9.3920659553585359
30
0
10
0.090076857491224613
20
-9.407374928241925
30
0
10
0.11191093036604374
20
-9.4180196709248776
30
0
10
0.13580181200252789
20
-9.4249858176149672
30
0
10
0.15260905764281235
20
-9.4255881117714981
30
0
10
0.16125552799050846
20
-9.4258979613849601
30
0
0
LINE
5
277
100
AcDbEntity
8
0
100
AcDbLine
10
1.0862669884586347
20
-8.3418725056628134
30
0
11
0.99677421529527543
21
-8.3418725056614189
31
0
0
SPLINE
5
278
100
AcDbEntity
8
0
100
AcDbSpline
70
0
71
3
72
23
73
19
74
0
42
0.000000001
43
0.0000000001
44
0.0000000001
40
0
40
0
40
0
40
0
40
0.076729332287347796
40
0.1484630344222464
40
0.21674407800668971
40
0.28085309857686702
40
0.34244531457309951
40
0.40128045686396591
40
0.45856301012671552
40
0.51430904628470475
40
0.56980479029886388
40
0.62537887169994211
40
0.68143309714357558
40
0.73929899392084686
40
0.79993733777044873
40
0.86264950397079876
40
0.92916710902111976
40
1
40
1
40
1
40
1
10
2.8105955398554645
20
-8.9566929133858224
30
0
10
2.7996325567415998
20
-8.9565157581005899
30
0
10
2.7784203593865024
20
-8.956172981610484
30
0
10
2.7475854660291743
20
-8.9530503939076969
30
0
10
2.7188089673004701
20
-8.9481511616308929
30
0
10
2.6920190856197328
20
-8.9409666214612535
30
0
10
2.6671316953777611
20
-8.9321002353430181
30
0
10
2.6445344050560049
20
-8.9204291952243953
30
0
10
2.6236377452961288
20
-8.9074646765850396
30
0
10
2.6050171191857689
20
-8.8920914252739927
30
0
10
2.5885490703976886
20
-8.8748053978336063
30
0
10
2.5740349846993817
20
-8.8557874848438303
30
0
10
2.561762475797015
20
-8.8348397636475031
30
0
10
2.5519581171490096
20
-8.8118580090126581
30
0
10
2.5441422733386867
20
-8.7871387102968566
30
0
10
2.5385873320367986
20
-8.7605535262977003
30
0
10
2.5352644350002449
20
-8.7321196058331694
30
0
10
2.5349487124562686
20
-8.7124931719322998
30
0
10
2.5347858914895922
20
-8.7023716427569813
30
0
0
SPLINE
5
279
100
AcDbEntity
8
0
100
AcDbSpline
70
0
71
3
72
15
73
11
74
0
42
0.000000001
43
0.0000000001
44
0.0000000001
40
0
40
0
40
0
40
0
40
0.12780428477334291
40
0.25070303376176623
40
0.37288491505643279
40
0.49999999999999861
40
0.62711508494356627
40
0.74929696623823405
40
0.87219571522665429
40
1
40
1
40
1
40
1
10
1.7614065365117042
20
-8.2771545680077629
30
0
10
1.7532733806612346
20
-8.2767138882909332
30
0
10
1.7373192454036737
20
-8.275849443549335
30
0
10
1.7143351533471176
20
-8.2691082880814886
30
0
10
1.6934876504977219
20
-8.2576151058440708
30
0
10
1.6748968673686424
20
-8.2423181040475981
30
0
10
1.6595998655721766
20
-8.223727320918524
30
0
10
1.6481066833347513
20
-8.2028798180691229
30
0
10
1.6413655278669079
20
-8.1798957260125711
30
0
10
1.6405010831253077
20
-8.163941590755007
30
0
10
1.6400604034084791
20
-8.1558084349045412
30
0
0
LINE
5
280
100
AcDbEntity
8
0
100
AcDbLine
10
1.079441268472441
20
-8.1477186926968503
30
0
11
1.1188787617301266
21
-8.1477186926976586
31
0
0
SPLINE
5
281
100
AcDbEntity
8
0
100
AcDbSpline
70
0
71
3
72
15
73
11
74
0
42
0.000000001
43
0.0000000001
44
0.0000000001
40
0
40
0
40
0
40
0
40
0.12780428477334591
40
0.25070303376176628
40
0.37288491505643429
40
0.50000000000000211
40
0.62711508494356816
40
0.74929696623823483
40
0.8721957152266584
40
1
40
1
40
1
40
1
10
1.8827526696149293
20
-8.1558084349045412
30
0
10
1.8823119898981
20
-8.163941590755007
30
0
10
1.8814475451565014
20
-8.1798957260125711
30
0
10
1.8747063896886564
20
-8.2028798180691265
30
0
10
1.8632132074512326
20
-8.223727320918524
30
0
10
1.8479162056547656
20
-8.2423181040475981
30
0
10
1.829325422525687
20
-8.2576151058440619
30
0
10
1.8084779196762908
20
-8.2691082880814921
30
0
10
1.7854938276197352
20
-8.275849443549335
30
0
10
1.7695396923621738
20
-8.2767138882909368
30
0
10
1.7614065365117042
20
-8.2771545680077629
30
0
0
LINE
5
282
100
AcDbEntity
8
0
100
AcDbLine
10
-0.9301975060551182
20
-0.86614173228346458
30
0
11
-0.039370078740157514
21
-0.86614173228346458
31
0
0
LINE
5
283
100
AcDbEntity
8
0
100
AcDbLine
10
1.2351568246535432
20
-0.94488188976377963
30
0
11
3.0955518367637795
21
-0.94488188976377963
31
0
0
SPLINE
5
284
100
AcDbEntity
8
0
100
AcDbSpline
70
0
71
3
72
15
73
11
74
0
42
0.000000001
43
0.0000000001
44
0.0000000001
40
0
40
0
40
0
40
0
40
0.1049103773054795
40
0.20147180640538301
40
0.30423225530670378
40
0.41061685537834469
40
0.5303632249804856
40
0.66635025100361878
40
0.82265654995618209
40
1
40
1
40
1
40
1
10
2.9716319706612024
20
-8.5218692697659311
30
0
10
2.97127914745551
20
-8.5191322568923074
30
0
10
2.9706015793214653
20
-8.5138760473354651
30
0
10
2.9670257961294251
20
-8.5066144226731097
30
0
10
2.9616684056161282
20
-8.5005685749972315
30
0
10
2.9545229269381195
20
-8.4956682964785628
30
0
10
2.9457934826426202
20
-8.4918346004579792
30
0
10
2.9352266472944781
20
-8.4895638735293666
30
0
10
2.9230788060197952
20
-8.4876234250789455
30
0
10
2.9143398581532494
20
-8.4875349122428005
30
0
10
2.9096948818897643
20
-8.4874878653866848
30
0
0
SPLINE
5
285
100
AcDbEntity
8
0
100
AcDbSpline
70
0
71
3
72
15
73
11
74
0
42
0.000000001
43
0.0000000001
44
0.0000000001
40
0
40
0
40
0
40
0
40
0.16629728347826611
40
0.31310002773854601
40
0.44259804720830742
40
0.55825169007196795
40
0.66412695941729449
40
0.76906577192659342
40
0.87776420486722007
40
1
40
1
40
1
40
1
10
3.088680428217021
20
-8.7625391004206659
30
0
10
3.0972113163156076
20
-8.7627377085410458
30
0
10
3.1132730417054315
20
-8.7631116425386537
30
0
10
3.1356801595210575
20
-8.7669885586345071
30
0
10
3.1550421354193032
20
-8.7727085639546818
30
0
10
3.1708160695951331
20
-8.781689675061731
30
0
10
3.183250067280047
20
-8.793128686847842
30
0
10
3.1920418231691503
20
-8.8071635128326733
30
0
10
3.197248147374995
20
-8.82378784463776
30
0
10
3.1978344281694442
20
-8.8356440747322988
30
0
10
3.1981447524538895
20
-8.8419196958256894
30
0
0
SPLINE
5
286
100
AcDbEntity
8
0
100
AcDbSpline
70
0
71
3
72
15
73
11
74
0
42
0.000000001
43
0.0000000001
44
0.0000000001
40
0
40
0
40
0
40
0
40
0.12780428477334169
40
0.25070303376176523
40
0.37288491505643206
40
0.499999999999998
40
0.62711508494356583
40
0.74929696623823394
40
0.87219571522665973
40
1
40
1
40
1
40
1
10
1.7614065365117046
20
-8.0344623018013142
30
0
10
1.7695396923621738
20
-8.0349029815181421
30
0
10
1.7854938276197352
20
-8.0357674262597438
30
0
10
1.8084779196762908
20
-8.0425085817275903
30
0
10
1.8293254225256863
20
-8.0540017639650081
30
0
10
1.8479162056547649
20
-8.0692987657614754
30
0
10
1.863213207451232
20
-8.0878895488905567
30
0
10
1.8747063896886564
20
-8.1087370517399524
30
0
10
1.8814475451564991
20
-8.1317211437965025
30
0
10
1.8823119898981
20
-8.1476752790540701
30
0
10
1.8827526696149293
20
-8.1558084349045412
30
0
0
SPLINE
5
287
100
AcDbEntity
8
0
100
AcDbSpline
70
0
71
3
72
11
73
7
74
0
42
0.000000001
43
0.0000000001
44
0.0000000001
40
0
40
0
40
0
40
0
40
0.2012904549828396
40
0.4351854225439924
40
0.70038693419001141
40
1
40
1
40
1
40
1
10
2.4352820623449478
20
-8.1515107593571337
30
0
10
2.4349385105571719
20
-8.1575983683590074
30
0
10
2.4341957593425554
20
-8.1707596416841071
30
0
10
2.429343120626394
20
-8.1914832030753733
30
0
10
2.4212933499163598
20
-8.2142835834994212
30
0
10
2.4144109093084491
20
-8.2299253238281818
30
0
10
2.4107600312803377
20
-8.2382226836371455
30
0
0
SPLINE
5
288
100
AcDbEntity
8
0
100
AcDbSpline
70
0
71
3
72
15
73
11
74
0
42
0.000000001
43
0.0000000001
44
0.0000000001
40
0
40
0
40
0
40
0
40
0.14854683285318759
40
0.28532132655083081
40
0.412119338091816
40
0.5311095263769644
40
0.64653089771418815
40
0.76151437418910661
40
0.87790595676616956
40
1
40
1
40
1
40
1
10
2.2191342627548281
20
-8.1669318304389993
30
0
10
2.2225440724695265
20
-8.1589863141714378
30
0
10
2.2290934644181575
20
-8.1437249639423559
30
0
10
2.241970065773959
20
-8.1234171881953863
30
0
10
2.2558813606892874
20
-8.1060269871926813
30
0
10
2.2711368492162571
20
-8.0914511932159119
30
0
10
2.2883807987788707
20
-8.0804858338211449
30
0
10
2.3070143928648053
20
-8.0726382984484655
30
0
10
2.3270672259593068
20
-8.0675546489902441
30
0
10
2.3409547393942165
20
-8.0670695961364878
30
0
10
2.3480645291770048
20
-8.0668212706288394
30
0
0
SPLINE
5
289
100
AcDbEntity
8
0
100
AcDbSpline
70
0
71
3
72
15
73
11
74
0
42
0.000000001
43
0.0000000001
44
0.0000000001
40
0
40
0
40
0
40
0
40
0.16196285661352369
40
0.30383583788179352
40
0.42960917059664921
40
0.54339797824952751
40
0.65070514198305174
40
0.75786928664231124
40
0.87213691269746951
40
1
40
1
40
1
40
1
10
0.19310888793010511
20
-9.1832056951785113
30
0
10
0.18077972411085497
20
-9.1835570364895247
30
0
10
0.15765070615124607
20
-9.1842161387296706
30
0
10
0.12533573543349147
20
-9.1899669081932203
30
0
10
0.097767089781126096
20
-9.199435856457491
30
0
10
0.074772230545907939
20
-9.2128576010674994
30
0
10
0.056972111423023074
20
-9.2308251144324274
30
0
10
0.044620917784587558
20
-9.2528502149180145
30
0
10
0.037128425573213428
20
-9.2786274536729501
30
0
10
0.036301305115172391
20
-9.2970817974711686
30
0
10
0.035864523783842549
20
-9.3068270682774195
30
0
0
SPLINE
5
290
100
AcDbEntity
8
0
100
AcDbSpline
70
0
71
3
72
15
73
11
74
0
42
0.000000001
43
0.0000000001
44
0.0000000001
40
0
40
0
40
0
40
0
40
0.12781571252726059
40
0.25281645830698751
40
0.37508082005568272
40
0.50432849508941691
40
0.63186963004385588
40
0.75263375875851035
40
0.87404930194318675
40
1
40
1
40
1
40
1
10
2.3480645291770048
20
-8.0668212706288394
30
0
10
2.3538320063423273
20
-8.067079484895336
30
0
10
2.3652399398543533
20
-8.0675902266112729
30
0
10
2.3815163266925645
20
-8.0726559431387201
30
0
10
2.3966610941271638
20
-8.0804131581237435
30
0
10
2.410104291010748
20
-8.0911323942520443
30
0
10
2.4210799213848899
20
-8.1042203875416927
30
0
10
2.4295437580652468
20
-8.1186544720704088
30
0
10
2.4345056886688146
20
-8.1346766766865759
30
0
10
2.4350201272539613
20
-8.1458312301413187
30
0
10
2.4352820623449478
20
-8.1515107593571337
30
0
0
SPLINE
5
291
100
AcDbEntity
8
0
100
AcDbSpline
70
0
71
3
72
15
73
11
74
0
42
0.000000001
43
0.0000000001
44
0.0000000001
40
0
40
0
40
0
40
0
40
0.1629007436470313
40
0.30726316614488741
40
0.4353156775957131
40
0.54890767930406692
40
0.65594379756471466
40
0.76205608740386388
40
0.87460317880666816
40
1
40
1
40
1
40
1
10
2.0755413385826786
20
-8.4874878653866848
30
0
10
2.0682756967341827
20
-8.4873713509206041
30
0
10
2.0545712527367952
20
-8.4871515814895417
30
0
10
2.0354364267547496
20
-8.4835050909892527
30
0
10
2.0190761102328616
20
-8.4780965458785857
30
0
10
2.0053106703509114
20
-8.4705480476906043
30
0
10
1.9949961901083615
20
-8.4600410261716057
30
0
10
1.9873523916999538
20
-8.4475562203298775
30
0
10
1.983069966627903
20
-8.4326429954136639
30
0
10
1.9825372442839408
20
-8.4220384362265595
30
0
10
1.9822564987595739
20
-8.4164498166325092
30
0
0
LINE
5
292
100
AcDbEntity
8
0
100
AcDbLine
10
0.75610438464173224
20
-8.3418725056614189
30
0
11
0.63071338043361069
21
-8.3418725056628134
31
0
0
SPLINE
5
293
100
AcDbEntity
8
0
100
AcDbSpline
70
0
71
3
72
11
73
7
74
0
42
0.000000001
43
0.0000000001
44
0.0000000001
40
0
40
0
40
0
40
0
40
0.22688125933915951
40
0.46401624813856229
40
0.72435402548428351
40
1
40
1
40
1
40
1
10
1.9498975299320476
20
-8.8452061535972373
30
0
10
1.9500954703317979
20
-8.8397140564559802
30
0
10
1.9505002969001761
20
-8.8284816509354851
30
0
10
1.953857686885639
20
-8.8112345882378076
30
0
10
1.9587560595087805
20
-8.7931609730107834
30
0
10
1.9635906690767115
20
-8.7811193101706575
30
0
10
1.9660770143458108
20
-8.7749265181749543
30
0
0
LINE
5
294
100
AcDbEntity
8
0
100
AcDbLine
10
1.102193668428433
20
-8.0943769550210298
30
0
11
1.079441268472441
21
-8.1477186926968503
31
0
0
SPLINE
5
295
100
AcDbEntity
8
0
100
AcDbSpline
70
0
71
3
72
15
73
11
74
0
42
0.000000001
43
0.0000000001
44
0.0000000001
40
0
40
0
40
0
40
0
40
0.21296950278253129
40
0.39648410686565222
40
0.55384217297159899
40
0.68100543185169193
40
0.78474120300960548
40
0.86728904824240949
40
0.93524414251583676
40
1
40
1
40
1
40
1
10
2.8737966508467276
20
-8.552205803041744
30
0
10
2.8816331874953494
20
-8.552086176443618
30
0
10
2.8962224230124232
20
-8.5518634682891879
30
0
10
2.9166077137601234
20
-8.5508419868481802
30
0
10
2.93365168727362
20
-8.5482848351072871
30
0
10
2.9476622311633878
20
-8.5452189555340166
30
0
10
2.9583749347752675
20
-8.5408985214296251
30
0
10
2.9665917159160609
20
-8.5361509697108318
30
0
10
2.9712311282938404
20
-8.5292284506563778
30
0
10
2.9715005212732555
20
-8.5242825870761791
30
0
10
2.9716319706612024
20
-8.5218692697659311
30
0
0
LINE
5
296
100
AcDbEntity
8
0
100
AcDbLine
10
-0.03937007874015748
20
4.606299212598425
30
0
11
-4.409448818897638
21
4.606299212598425
31
0
0
SPLINE
5
297
100
AcDbEntity
8
0
100
AcDbSpline
70
0
71
3
72
15
73
11
74
0
42
0.000000001
43
0.0000000001
44
0.0000000001
40
0
40
0
40
0
40
0
40
0.096961882356948012
40
0.2006168657303582
40
0.31151095956701619
40
0.43159579300816592
40
0.55924772194590389
40
0.69678566217508153
40
0.84314192378390507
40
1
40
1
40
1
40
1
10
3.0692144860317119
20
-8.683158505015637
30
0
10
3.0645527517384776
20
-8.685726232830941
30
0
10
3.0549074921782968
20
-8.6910389340062171
30
0
10
3.0387883708487253
20
-8.6968165219966203
30
0
10
3.0212575807412176
20
-8.7021869149896727
30
0
10
3.0021206172162325
20
-8.7067745138102346
30
0
10
2.9812290200916993
20
-8.7099740762316404
30
0
10
2.958772583971037
20
-8.7121259290365796
30
0
10
2.934661551781923
20
-8.7137583852966731
30
0
10
2.9180404591501041
20
-8.7139180498931612
30
0
10
2.9094420774457994
20
-8.7140006471793736
30
0
0
LINE
5
298
100
AcDbEntity
8
0
100
AcDbLine
10
0.65801626038188965
20
-9.1832056951771648
30
0
11
0.64790408262323407
21
-9.2074749217991556
31
0
0
LINE
5
299
100
AcDbEntity
8
0
100
AcDbLine
10
-1.9301450760433068
20
-8.3213953457007879
30
0
11
-1.9056230449789664
21
-8.3196257145938937
31
0
0
LINE
5
300
100
AcDbEntity
8
0
100
AcDbLine
10
-4.409448818897638
20
-0.94488188976377963
30
0
11
-3.4005111553622047
21
-0.94488188976377963
31
0
0
LINE
5
301
100
AcDbEntity
8
0
100
AcDbLine
10
-4.409448818897638
20
-0.94488188976377963
30
0
11
-4.409448818897638
21
-6.4173228346456694
31
0
0
LINE
5
302
100
AcDbEntity
8
0
100
AcDbLine
10
0.1999346079171615
20
-8.9890518822133512
30
0
11
0.50102470068110228
21
-8.989051882212598
31
0
0
LINE
5
303
100
AcDbEntity
8
0
100
AcDbLine
10
-0.039370078740157514
20
-0.94488188976377963
30
0
11
-0.03937007874015748
21
-6.4173228346456694
31
0
0
SPLINE
5
304
100
AcDbEntity
8
0
100
AcDbSpline
70
0
71
3
72
23
73
19
74
0
42
0.000000001
43
0.0000000001
44
0.0000000001
40
0
40
0
40
0
40
0
40
0.075465964772141195
40
0.1477536238833671
40
0.21669235443461221
40
0.28247579939638612
40
0.34661223254499679
40
0.40943654258730061
40
0.47054587463079728
40
0.5318468276143159
40
0.59207241457735016
40
0.64993465049993593
40
0.7067364828908449
40
0.76306439421449268
40
0.81959590106210711
40
0.87749122002679858
40
0.93766909724881409
40
1
40
1
40
1
40
1
10
2.9155093841009609
20
-8.3095135368352917
30
0
10
2.924698183026853
20
-8.3097509226236248
30
0
10
2.9426887877257477
20
-8.3102156965199203
30
0
10
2.9690132064032824
20
-8.3125785977507949
30
0
10
2.9938071438306806
20
-8.3172846328443448
30
0
10
3.0173232546792508
20
-8.3231972561437626
30
0
10
3.0393730259480587
20
-8.33138367918278
30
0
10
3.0600779207083129
20
-8.3412344157184641
30
0
10
3.079579583839219
20
-8.3526551457647038
30
0
10
3.0974142658938733
20
-8.3660263874907894
30
0
10
3.1135192386795838
20
-8.3808389325786212
30
0
10
3.127647937203085
20
-8.396851020367091
30
0
10
3.139270996718948
20
-8.4141961829226215
30
0
10
3.1489314984989316
20
-8.4324957419895714
30
0
10
3.156681332581631
20
-8.4518578396684365
30
0
10
3.1618537471152641
20
-8.472527007679858
30
0
10
3.165304054392863
20
-8.494281737413294
30
0
10
3.1656233368099489
20
-8.5092152171199711
30
0
10
3.1657857836263616
20
-8.5168131808866345
30
0
0
SPLINE
5
305
100
AcDbEntity
8
0
100
AcDbSpline
70
0
71
3
72
15
73
11
74
0
42
0.000000001
43
0.0000000001
44
0.0000000001
40
0
40
0
40
0
40
0
40
0.1336562772336411
40
0.26160469300414813
40
0.38347637564610249
40
0.50283989013403918
40
0.62045090751919107
40
0.74226514416094613
40
0.86713742700329766
40
1
40
1
40
1
40
1
10
3.1657857836263616
20
-8.5168131808866345
30
0
10
3.1655057220880676
20
-8.5258492691665264
30
0
10
3.1649575591864485
20
-8.5435355548341203
30
0
10
3.1603541959294525
20
-8.5691344337243454
30
0
10
3.1527518726022019
20
-8.5929703073284642
30
0
10
3.1420642889616355
20
-8.6148278218570358
30
0
10
3.1284212658470123
20
-8.6349747151206451
30
0
10
3.111648163372073
20
-8.6530887266547616
30
0
10
3.0919256963145876
20
-8.6696422090241061
30
0
10
3.0769397540731487
20
-8.6785609072583458
30
0
10
3.0692144860317119
20
-8.683158505015637
30
0
0
SPLINE
5
306
100
AcDbEntity
8
0
100
AcDbSpline
70
0
71
3
72
23
73
19
74
0
42
0.000000001
43
0.0000000001
44
0.0000000001
40
0
40
0
40
0
40
0
40
0.065032738572303295
40
0.1281105817859339
40
0.1902311858986715
40
0.25147309505345639
40
0.31351547567253041
40
0.37572396364311778
40
0.43919650976635061
40
0.50497701947876616
40
0.5703754308838852
40
0.63327291954460252
40
0.69485513867335136
40
0.75501270580640789
40
0.8153573797320921
40
0.87555817697142868
40
0.93704738644819319
40
1
40
1
40
1
40
1
10
2.5347858914895922
20
-8.7023716427569813
30
0
10
2.5351141826006818
20
-8.6892074736583389
30
0
10
2.5357608963353351
20
-8.6632748526588372
30
0
10
2.5412432806604515
20
-8.6250845599895474
30
0
10
2.5500985134123915
20
-8.5883657213266904
30
0
10
2.562296710883289
20
-8.5528238652814768
30
0
10
2.5781782056235589
20
-8.5187267222894167
30
0
10
2.5979462914554277
20
-8.486226258103871
30
0
10
2.6207607883286053
20
-8.4548466956363661
30
0
10
2.6471180384609068
20
-8.4255019046363522
30
0
10
2.6755560874338746
20
-8.3983576618612048
30
0
10
2.7058499726104004
20
-8.374607645315491
30
0
10
2.7375170905036024
20
-8.3546896311300038
30
0
10
2.7703785251238622
20
-8.3378666533467527
30
0
10
2.8048419628274099
20
-8.3253958880971393
30
0
10
2.8405502762160135
20
-8.3162069653435289
30
0
10
2.877569491067443
20
-8.3104380688034709
30
0
10
2.9027639927866811
20
-8.3098241207820234
30
0
10
2.9155093841009609
20
-8.3095135368352917
30
0
0
LINE
5
307
100
AcDbEntity
8
0
100
AcDbLine
10
0.99677421529527543
20
-8.3418725056614189
30
0
11
0.74068331355905515
21
-8.989051882212598
31
0
0
SPLINE
5
308
100
AcDbEntity
8
0
100
AcDbSpline
70
0
71
3
72
19
73
15
74
0
42
0.000000001
43
0.0000000001
44
0.0000000001
40
0
40
0
40
0
40
0
40
0.049572945413535498
40
0.099066993611687595
40
0.14973613833704369
40
0.20111265341232321
40
0.25509014798261781
40
0.31094717239795189
40
0.36953208344728222
40
0.43147391450232347
40
0.56151561356632851
40
0.69796162518904248
40
0.84371390484539721
40
1
40
1
40
1
40
1
10
0.16125552799050846
20
-9.4258979613849601
30
0
10
0.16742110220297549
20
-9.4257087307923033
30
0
10
0.17974243788362829
20
-9.4253305707746211
30
0
10
0.1981121750314942
20
-9.4220817684247322
30
0
10
0.21635717095972143
20
-9.4172189094466123
30
0
10
0.23416266543798803
20
-9.4094549477649174
30
0
10
0.25220350046075818
20
-9.4006690240584234
30
0
10
0.26956758989218554
20
-9.3889078207042402
30
0
10
0.28721375405218591
20
-9.3758800387362591
30
0
10
0.31024571084986841
20
-9.3548625538491859
30
0
10
0.33798894593673912
20
-9.3247980082710686
30
0
10
0.36796470770414519
20
-9.2831112115260144
30
0
10
0.39482896970043663
20
-9.2355587929511547
30
0
10
0.40966810109535667
20
-9.2010578103421388
30
0
10
0.41734642972710662
20
-9.1832056951785113
30
0
0
SPLINE
5
309
100
AcDbEntity
8
0
100
AcDbSpline
70
0
71
3
72
15
73
11
74
0
42
0.000000001
43
0.0000000001
44
0.0000000001
40
0
40
0
40
0
40
0
40
0.095527264233322404
40
0.1859102178914348
40
0.27975405046407698
40
0.38305322848528672
40
0.50497015762774022
40
0.64738934071474941
40
0.8105162397192105
40
1
40
1
40
1
40
1
10
2.7387990777693898
20
-8.7140006471793736
30
0
10
2.739063457230603
20
-8.717844448391741
30
0
10
2.7395779788557588
20
-8.7253250553855395
30
0
10
2.7444767702356669
20
-8.7356971668789924
30
0
10
2.7524309613592797
20
-8.7442005775565779
30
0
10
2.7632654605418479
20
-8.7511926532615671
30
0
10
2.7771636167784415
20
-8.7562994199242095
30
0
10
2.7939194645228937
20
-8.7599471787552705
30
0
10
2.8136540009870741
20
-8.7621952172673687
30
0
10
2.827779630785066
20
-8.7624188994544987
30
0
10
2.8353703753640387
20
-8.7625391004206659
30
0
0
LINE
5
310
100
AcDbEntity
8
0
100
AcDbLine
10
1.2351568246535432
20
-0.86614173228346458
30
0
11
3.0955518367637795
21
-0.86614173228346458
31
0
0
SPLINE
5
311
100
AcDbEntity
8
0
100
AcDbSpline
70
0
71
3
72
15
73
11
74
0
42
0.000000001
43
0.0000000001
44
0.0000000001
40
0
40
0
40
0
40
0
40
0.12780428477333999
40
0.25070303376176578
40
0.37288491505643362
40
0.50000000000000122
40
0.62711508494356716
40
0.74929696623823372
40
0.87219571522665706
40
1
40
1
40
1
40
1
10
1.6400604034084791
20
-8.1558084349045412
30
0
10
1.6405010831253077
20
-8.1476752790540701
30
0
10
1.6413655278669081
20
-8.131721143796506
30
0
10
1.6481066833347511
20
-8.1087370517399471
30
0
10
1.659599865572176
20
-8.0878895488905567
30
0
10
1.6748968673686428
20
-8.0692987657614754
30
0
10
1.6934876504977208
20
-8.0540017639650081
30
0
10
1.7143351533471192
20
-8.0425085817275868
30
0
10
1.7373192454036726
20
-8.0357674262597403
30
0
10
1.7532733806612346
20
-8.0349029815181421
30
0
10
1.7614065365117042
20
-8.0344623018013142
30
0
0
SPLINE
5
312
100
AcDbEntity
8
0
100
AcDbSpline
70
0
71
3
72
15
73
11
74
0
42
0.000000001
43
0.0000000001
44
0.0000000001
40
0
40
0
40
0
40
0
40
0.1190893330619831
40
0.2307554748883357
40
0.33850736817973448
40
0.4517926103772088
40
0.57118205983858006
40
0.69962041459939306
40
0.84085126159244927
40
1
40
1
40
1
40
1
10
1.9822564987595739
20
-8.4164498166325092
30
0
10
1.9826377537914577
20
-8.4084707655572988
30
0
10
1.9833764990986469
20
-8.3930100213187018
30
0
10
1.9906920872018843
20
-8.3712856312697284
30
0
10
2.0027624199075613
20
-8.3523703487598819
30
0
10
2.0195044139861711
20
-8.3366697226657163
30
0
10
2.0403234819205665
20
-8.3240976285021286
30
0
10
2.0651004543124323
20
-8.3157933627806653
30
0
10
2.0933359864376833
20
-8.3103252271800105
30
0
10
2.1134322700335222
20
-8.3097946500717299
30
0
10
2.1240797918239682
20
-8.3095135368352917
30
0
0
LINE
5
313
100
AcDbEntity
8
0
100
AcDbLine
10
-0.03937007874015748
20
4.606299212598425
30
0
11
-0.039370078740157514
21
-0.86614173228346458
31
0
0
LINE
5
314
100
AcDbEntity
8
0
100
AcDbLine
10
-1.7812432585481601
20
-7.9859238485600246
30
0
11
-1.7996979829566928
21
-7.9859238485590556
31
0
0
LINE
5
315
100
AcDbEntity
8
0
100
AcDbLine
10
0.74068331355905515
20
-8.989051882212598
30
0
11
1.3319929079926658
21
-8.9890518822133512
31
0
0
LINE
5
316
100
AcDbEntity
8
0
100
AcDbLine
10
-4.409448818897638
20
-6.4173228346456694
30
0
11
-0.03937007874015748
21
-6.4173228346456694
31
0
0
LINE
5
317
100
AcDbEntity
8
0
100
AcDbLine
10
-4.409448818897638
20
-0.86614173228346492
30
0
11
-3.4005111553622047
21
-0.86614173228346458
31
0
0
ENDSEC
0
SECTION
2
OBJECTS
0
DICTIONARY
5
C
100
AcDbDictionary
3
ACAD_GROUP
350
D
3
ACAD_MLINESTYLE
350
17
0
DICTIONARY
5
D
100
AcDbDictionary
0
DICTIONARY
5
1A
330
C
100
AcDbDictionary
0
DICTIONARY
5
17
100
AcDbDictionary
0
ENDSEC
0
EOF
